<svg xmlns="http://www.w3.org/2000/svg" width="53" height="53" fill="none" viewBox="0 0 53 53"><g clip-path="url(#a)"><mask id="b" width="53" height="53" x="0" y="0" maskUnits="userSpaceOnUse" style="mask-type:luminance"><rect width="53" height="53" fill="#fff" rx="6"/></mask><g mask="url(#b)"><path fill="#fff" fill-rule="evenodd" d="M44.85 19.814c-.256-.609-.705-2.518-.833-4.104-.343-4.227-.64-10.533-.95-11.73-.425-1.644-1.332-3.344-1.332-3.934 0-5.16-1.156-6.455-1.156-7.29 0-.542.253-.253.253-3.381s-3.418-6.4-6.837-6.4l-3.322-2.07v-2.983h-.03c-.835.93-2.327 2.345-3.677 2.345s-2.842-1.415-3.677-2.345h-.03v2.983l-3.323 2.07c-3.418 0-6.836 3.272-6.836 6.4s.252 2.84.252 3.38c0 .836-1.155 2.13-1.155 7.291 0 .59-.907 2.29-1.333 3.935-.31 1.196-.607 7.502-.95 11.73-.128 1.585-.577 3.494-.833 4.103-.597 1.421 2.285 3.599 2.478 3.676.249.1.334-.399.418-.594.347-.802-.944-1.755-.86-2.312.1-.67.218-1.844.682-1.657.466.188.623 1.253 1.088 1.441s.664.063.807-.29c.083-.206-.445-1.5-.92-2.713-.335-.858-.277-1.473-.277-1.473s3.698-8.59 3.854-10.323c.503-.798.27-1.197.334-1.776.257-2.323.26-6.814.603-6.814.325 0 .361 1.407.361 2.274 0 1.985 1.48 2.057 1.48 4.728 0 2.02-.54 1.19-.54 4.728 0 1.047-1.758 2.01-1.758 6.196 0 1.083-1.156 3.104-1.156 7.483 0 8.374 2.227 12.453 2.227 15.99 0 3.79-.686 3.465-.686 7.868S19.96 56.28 19.96 59.348c0 6.75-2.238 5.017-2.238 6.57 0 .408.433.673.433.673l3.828.41h1.973l.603-.723s-.53-.914-.53-1.396c0-.48.265-1.419.265-1.997 0-.577-.747-2.599-.747-4.427 0-1.829-.048-7.087-.048-7.087s.18-1.732.18-3.537-1.119-2.707-1.119-3.5c0-.795 3.214-6.57 3.214-12.994 0-3.43.83-9.204.83-13.21h.722c0 4.006.831 9.78.831 13.21 0 6.424 3.214 12.2 3.214 12.993s-1.12 1.697-1.12 3.501c0 1.805.181 3.537.181 3.537s-.048 5.258-.048 7.087-.746 3.85-.746 4.427c0 .578.265 1.516.265 1.997s-.53 1.396-.53 1.396l.602.722h1.974l3.828-.409s.433-.265.433-.674c0-1.552-2.239.18-2.239-6.569 0-3.068 2.745-8.698 2.745-13.102 0-4.403-.687-4.078-.687-7.868 0-3.537 2.227-7.616 2.227-15.99 0-4.38-1.155-6.4-1.155-7.483 0-4.187-1.758-5.15-1.758-6.196 0-3.537-.542-2.707-.542-4.728 0-2.671 1.481-2.743 1.481-4.728 0-.867.036-2.274.361-2.274.343 0 .346 4.491.604 6.814.064.579-.17.978.333 1.776.157 1.732 3.855 10.323 3.855 10.323s.057.615-.278 1.473c-.474 1.214-1.002 2.507-.92 2.713.143.353.343.477.808.29.465-.188.622-1.253 1.087-1.44s.583.987.683 1.656c.083.557-1.207 1.51-.86 2.312.084.195.169.695.418.594.192-.077 3.075-2.254 2.477-3.676" clip-rule="evenodd"/><path fill="#fff" fill-rule="evenodd" d="M26.556-.185c0-.36-.168-.65-.601-.65h-1.108c-.433 0-1.661.746-1.661 1.42v1.567c0 .313.145.481.53.481H25.4c.217 0 1.155-.433 1.155-1.034zM23.084 5.912v-1.79c0-.307.162-.74.632-.74h1.95c.289 0 .867.361.867.758v1.772c0 .27-.127.74-.434.74h-2.022c-.325 0-.993-.307-.993-.74M26.003 7.518h-1.998c-.386 0-.819.313-.819.673s1.782 8.302 3.178 8.302h.168c.073-1.874 0-7.98 0-8.302 0-.385-.072-.673-.53-.673M27.375-.185c0-.36.168-.65.602-.65h1.107c.433 0 1.661.746 1.661 1.42v1.567c0 .313-.144.481-.53.481H28.53c-.216 0-1.155-.433-1.155-1.034zM30.848 5.912v-1.79c0-.307-.163-.74-.632-.74h-1.95c-.29 0-.867.361-.867.758v1.772c0 .27.126.74.433.74h2.023c.324 0 .993-.307.993-.74M27.929 7.518h1.998c.385 0 .818.313.818.673s-1.781 8.302-3.178 8.302H27.4c-.073-1.874 0-7.98 0-8.302 0-.385.072-.673.53-.673M16.056-9.295q.075-.1.149-.203c-.986 1.363-1.8 2.039-2.853 2.254 0 .835-1.155 2.13-1.155 7.29 0 1.047 2.5 2.394 3.647 0 .744-1.552 1.024-2.198 1.198-2.58.088-.306.172-.487.246-.487.253-.433.145-4.728.145-4.728-.795-.686-.514-1.07-1.377-1.546" clip-rule="evenodd"/><path fill="#fff" fill-rule="evenodd" d="M31.708 10.333c0-2.67.698-2.454.698-3.874 0-2.96-.698-5.486-.698-6.81s.12-5.666.12-5.666l-.056-.013a4 4 0 0 1-.329.013c-1.625 0-3.884-.974-3.884-.974h-1.187s-2.259.974-3.884.974q-.158 0-.328-.013l-.057.013s.12 4.343.12 5.667-.698 3.85-.698 6.81c0 1.419.698 1.202.698 3.873 0 .939-.722 1.6-1.661 1.6 0 2.154 5.056 6.197 6.404 6.197s6.403-4.043 6.403-6.197c-.939 0-1.66-.661-1.66-1.6M33.37 11.933c.625-1.624 1.973-3.224 1.973-3.224zM17.888 37.884c0 .29.17.458.315.458s.48-1.64.48-2.731c-.059.002-.095-.148-.095-.569 0-1.495-1.408-4.232-1.408-9.477 0-5.246 1.6-10.973 1.95-13.24l-.075-1.056c-.033-.6-.069-2.051-.069-2.051l-.398-.54v.031c0 1.047-1.757 2.01-1.757 6.196 0 1.083-1.156 3.104-1.156 7.484q0 .384.006.758l.005.201.013.532.01.248q.009.234.02.463l.014.26.025.43q.008.128.018.257l.03.412.022.247.036.403.024.232a51 51 0 0 0 .116 1.012l.025.197a35 35 0 0 0 .165 1.13l.07.422.02.114a47 47 0 0 0 .186 1.017c.588 3.01 1.3 5.191 1.407 7.158z" clip-rule="evenodd"/><path fill="#fff" fill-rule="evenodd" d="M19.13 12.326c-.35 2.266-1.95 7.993-1.95 13.239 0 5.245 1.408 7.982 1.408 9.477s.457-.43.723-.43c.264 0 1.23 1.835 1.23 2.972q0 .079.015.093c-.003-.058 0-.124-.002-.183-.005-.154-.01-.307-.005-.473.002-.058.007-.121.01-.18.009-.187.019-.374.037-.571l.012-.111c.122-1.213.383-2.558.537-3.616l.015-.095q.049-.338.076-.627c.144-1.54 1.059-4.713 1.502-6.591l.003-.041.01-.195c.002-.015.002-.036.003-.052l.016-.312v-.01l.023-.507c.022-.552.045-1.272.055-2.084l.002-.195c.002-.214.004-.428.004-.652 0-.29-.006-.906-.006-.916 0-1.366-1.57-5.752-2.182-7.659-.121-.378-.064-.52-.104-.673-.24-.928-1.576-2.716-1.576-2.716z" clip-rule="evenodd"/><path fill="#059669" fill-rule="evenodd" d="M22.848 20.267v.028a55 55 0 0 1 .002 1.539c-.001.064 0 .132-.002.195a76 76 0 0 1-.077 2.591v.01l-.017.312-.002.052-.014.236c-.443 1.878-1.357 5.052-1.502 6.59a14 14 0 0 1-.076.628v.002c-.042.294-.094.617-.149.95l-.143.872-.004.026q-.075.458-.14.92l-.003.018c-.044.311-.082.621-.112.922l-.005.038-.008.076c-.018.192-.027.376-.036.558l-.005.085-.006.106c-.005.166 0 .32.005.473v.007c.004.095 0 .198.008.288.145 1.684 1.348 1.588 1.348 1.588.8 0 2.368-.498 2.875-1.413q.083-.299.163-.607c.472-1.83.826-3.887.826-6.017q0-.562.028-1.2c0-2.995-1.482-6.643-2.954-9.873" clip-rule="evenodd"/><path fill="#fff" fill-rule="evenodd" d="M36.044 37.884c0 .29-.171.458-.316.458-.144 0-.48-1.64-.48-2.731.059.002.095-.148.095-.569 0-1.495 1.409-4.232 1.409-9.477 0-5.246-1.601-10.973-1.951-13.24l.075-1.056c.033-.6.07-2.051.07-2.051l.397-.54v.031c0 1.047 1.757 2.01 1.757 6.196 0 1.083 1.156 3.104 1.156 7.484q0 .384-.006.758l-.005.201-.013.532-.01.248q-.009.234-.02.463l-.014.26q-.011.216-.025.43-.008.128-.018.257l-.03.412-.022.247q-.017.203-.036.403l-.024.232a51 51 0 0 1-.116 1.012l-.025.197-.055.4-.025.174a44 44 0 0 1-.253 1.538l-.013.072-.095.5c-.588 3.01-1.299 5.19-1.406 7.157z" clip-rule="evenodd"/><path fill="#fff" fill-rule="evenodd" d="M34.8 12.326c.35 2.266 1.952 7.993 1.952 13.239 0 5.245-1.409 7.982-1.409 9.477s-.457-.43-.722-.43-1.232 1.835-1.232 2.972q0 .079-.014.093c.004-.058 0-.124.002-.183.005-.154.01-.307.005-.473-.001-.058-.007-.121-.01-.18a13 13 0 0 0-.037-.571l-.013-.111c-.12-1.213-.382-2.558-.536-3.616l-.015-.095a14 14 0 0 1-.076-.627c-.144-1.54-1.059-4.713-1.502-6.591l-.003-.041-.01-.195-.003-.052-.016-.312v-.01l-.023-.507a76 76 0 0 1-.055-2.084q0-.096-.002-.195c-.002-.214-.004-.428-.004-.652 0-.29.006-.906.006-.916 0-1.366 1.571-5.752 2.182-7.659.121-.378.064-.52.104-.673.24-.928 1.576-2.716 1.576-2.716z" clip-rule="evenodd"/><path fill="#059669" fill-rule="evenodd" d="M31.083 20.267v.028q-.006.451-.006.887c0 .224.002.438.004.652l.002.195c.01.812.033 1.532.055 2.084l.001.023.021.484.001.01.018.364.011.195.003.04c.443 1.879 1.358 5.053 1.502 6.592q.027.289.076.627v.002c.042.294.094.617.15.95l.142.872.004.026q.075.458.14.92l.003.018a23 23 0 0 1 .117.96l.008.076q.025.286.036.558l.005.085.006.106c.005.166 0 .32-.005.473v.007c-.003.095 0 .198-.008.288-.144 1.684-1.348 1.588-1.348 1.588-.8 0-2.368-.498-2.875-1.413q-.083-.299-.163-.607c-.472-1.83-.826-3.887-.826-6.017q0-.562-.028-1.2c0-2.995 1.482-6.643 2.954-9.873" clip-rule="evenodd"/><path fill="#fff" fill-rule="evenodd" d="m23.606 59.383.003.006a8 8 0 0 1-.062-.931c0-1.829-.047-7.086-.047-7.086s.18-1.733.18-3.538-1.12-2.707-1.12-3.5c-.61 1.682-2.07 8.12 1.046 15.05M17.216 46.246c0 3.801 2.042 8.514 2.6 11.706l.002-.005c.834-8.731-1.353-11.196-2.527-13.882a28 28 0 0 0-.075 2.181M30.325 59.383l-.003.006c.036-.31.062-.623.062-.931 0-1.829.048-7.086.048-7.086s-.18-1.733-.18-3.538 1.119-2.707 1.119-3.5c.61 1.682 2.07 8.12-1.046 15.05M36.715 46.246c0 3.801-2.041 8.514-2.6 11.706l-.002-.005c-.834-8.731 1.354-11.196 2.527-13.882.046.582.075 1.279.075 2.181M13.429 5.569c.245-1.484.49-2.02 0-2.936-.49-.914-.816.345-2.13 0-.162.438-.317.894-.435 1.348-.267 1.034-.182 5.95-.375 9.993 0 0 1.064-2.111 1.146-4.23s1.55-2.69 1.794-4.175M13.711 8.134c-.69 2.098-1.214 7.758-1.214 7.758s3.698-8.59 3.854-10.323c0 0-1.95.466-2.64 2.565M37.875-9.295l-.148-.203c.986 1.363 1.8 2.039 2.853 2.254 0 .835 1.155 2.13 1.155 7.29 0 1.047-2.5 2.394-3.647 0-.744-1.552-1.025-2.198-1.198-2.58-.089-.306-.173-.487-.247-.487-.252-.433-.144-4.728-.144-4.728.794-.686.514-1.07 1.376-1.546M40.503 5.569c-.245-1.484-.49-2.02 0-2.936.489-.914.815.345 2.13 0 .162.438.317.894.434 1.348.268 1.034.182 5.95.376 9.993 0 0-1.065-2.111-1.146-4.23-.082-2.12-1.55-2.69-1.794-4.175M40.22 8.134c.69 2.098 1.215 7.758 1.215 7.758s-3.698-8.59-3.854-10.323c0 0 1.95.466 2.64 2.565" clip-rule="evenodd"/><path stroke="#353e82" stroke-linejoin="round" stroke-width=".565" d="M26.556-.185c0-.36-.168-.65-.601-.65h-1.108c-.433 0-1.661.746-1.661 1.42v1.567c0 .313.145.481.53.481H25.4c.217 0 1.155-.433 1.155-1.034zM23.084 5.912v-1.79c0-.307.162-.74.632-.74h1.95c.289 0 .867.361.867.758v1.772c0 .27-.127.74-.434.74h-2.022c-.325 0-.993-.307-.993-.74ZM26.003 7.518h-1.998c-.386 0-.819.313-.819.673s1.782 8.302 3.178 8.302h.168c.073-1.874 0-7.98 0-8.302 0-.385-.072-.673-.53-.673ZM27.375-.185c0-.36.168-.65.602-.65h1.107c.433 0 1.661.746 1.661 1.42v1.567c0 .313-.144.481-.53.481H28.53c-.216 0-1.155-.433-1.155-1.034zM30.848 5.912v-1.79c0-.307-.163-.74-.632-.74h-1.95c-.29 0-.867.361-.867.758v1.772c0 .27.126.74.433.74h2.023c.324 0 .993-.307.993-.74ZM27.929 7.518h1.998c.385 0 .818.313.818.673s-1.781 8.302-3.178 8.302H27.4c-.073-1.874 0-7.98 0-8.302 0-.385.072-.673.53-.673ZM16.056-9.295q.075-.1.149-.203c-.986 1.363-1.8 2.039-2.853 2.254 0 .835-1.155 2.13-1.155 7.29 0 1.047 2.5 2.394 3.647 0 .744-1.552 1.024-2.198 1.198-2.58.088-.306.172-.487.246-.487.253-.433.145-4.728.145-4.728-.795-.686-.514-1.07-1.377-1.546Z" clip-rule="evenodd"/><path stroke="#353e82" stroke-linejoin="round" stroke-width=".565" d="M31.708 10.333c0-2.67.698-2.454.698-3.874 0-2.96-.698-5.486-.698-6.81s.12-5.666.12-5.666l-.056-.013a4 4 0 0 1-.329.013c-1.625 0-3.884-.974-3.884-.974h-1.187s-2.259.974-3.884.974q-.158 0-.328-.013l-.057.013s.12 4.343.12 5.667-.698 3.85-.698 6.81c0 1.419.698 1.202.698 3.873 0 .939-.722 1.6-1.661 1.6 0 2.154 5.056 6.197 6.404 6.197s6.403-4.043 6.403-6.197c-.939 0-1.66-.661-1.66-1.6Z" clip-rule="evenodd"/><path stroke="#353e82" stroke-linejoin="round" stroke-width=".565" d="M33.37 11.933c.625-1.624 1.973-3.224 1.973-3.224"/><path fill="#fff" fill-rule="evenodd" stroke="#353e82" stroke-linejoin="round" stroke-width=".565" d="M17.888 37.884c0 .29.17.458.315.458s.48-1.64.48-2.731c-.059.002-.095-.148-.095-.569 0-1.495-1.408-4.232-1.408-9.477 0-5.246 1.6-10.973 1.95-13.24l-.075-1.056c-.033-.6-.069-2.051-.069-2.051l-.398-.54v.031c0 1.047-1.757 2.01-1.757 6.196 0 1.083-1.156 3.104-1.156 7.484q0 .384.006.758l.005.201.013.532.01.248q.009.234.02.463l.014.26.025.43q.008.128.018.257l.03.412.022.247.036.403.024.232a51 51 0 0 0 .116 1.012l.025.197a35 35 0 0 0 .165 1.13l.07.422.02.114a47 47 0 0 0 .186 1.017c.588 3.01 1.3 5.191 1.407 7.158z" clip-rule="evenodd"/><path fill="#fff" fill-rule="evenodd" stroke="#353e82" stroke-linejoin="round" stroke-width=".565" d="M19.13 12.326c-.35 2.266-1.95 7.993-1.95 13.239 0 5.245 1.408 7.982 1.408 9.477s.457-.43.723-.43c.264 0 1.23 1.835 1.23 2.972q0 .079.015.093c-.003-.058 0-.124-.002-.183-.005-.154-.01-.307-.005-.473.002-.058.007-.121.01-.18.009-.187.019-.374.037-.571l.012-.111c.122-1.213.383-2.558.537-3.616l.015-.095q.049-.338.076-.627c.144-1.54 1.059-4.713 1.502-6.591l.003-.041.01-.195c.002-.015.002-.036.003-.052l.016-.312v-.01l.023-.507c.022-.552.045-1.272.055-2.084l.002-.195c.002-.214.004-.428.004-.652 0-.29-.006-.906-.006-.916 0-1.366-1.57-5.752-2.182-7.659-.121-.378-.064-.52-.104-.673-.24-.928-1.576-2.716-1.576-2.716z" clip-rule="evenodd"/><path fill="#059669" fill-rule="evenodd" stroke="#353e82" stroke-linejoin="round" stroke-width=".565" d="M22.848 20.267v.028a55 55 0 0 1 .002 1.539c-.001.064 0 .132-.002.195a76 76 0 0 1-.077 2.591v.01l-.017.312-.002.052-.014.236c-.443 1.878-1.357 5.052-1.502 6.59a14 14 0 0 1-.076.628v.002c-.042.294-.094.617-.149.95l-.143.872-.004.026q-.075.458-.14.92l-.003.018c-.044.311-.082.621-.112.922l-.005.038-.008.076c-.018.192-.027.376-.036.558l-.005.085-.006.106c-.005.166 0 .32.005.473v.007c.004.095 0 .198.008.288.145 1.684 1.348 1.588 1.348 1.588.8 0 2.368-.498 2.875-1.413q.083-.299.163-.607c.472-1.83.826-3.887.826-6.017q0-.562.028-1.2c0-2.995-1.482-6.643-2.954-9.873Z" clip-rule="evenodd"/><path fill="#fff" fill-rule="evenodd" stroke="#353e82" stroke-linejoin="round" stroke-width=".565" d="M36.044 37.884c0 .29-.171.458-.316.458-.144 0-.48-1.64-.48-2.731.059.002.095-.148.095-.569 0-1.495 1.409-4.232 1.409-9.477 0-5.246-1.601-10.973-1.951-13.24l.075-1.056c.033-.6.07-2.051.07-2.051l.397-.54v.031c0 1.047 1.757 2.01 1.757 6.196 0 1.083 1.156 3.104 1.156 7.484q0 .384-.006.758l-.005.201-.013.532-.01.248q-.009.234-.02.463l-.014.26q-.011.216-.025.43-.008.128-.018.257l-.03.412-.022.247q-.017.203-.036.403l-.024.232a51 51 0 0 1-.116 1.012l-.025.197-.055.4-.025.174a44 44 0 0 1-.253 1.538l-.013.072-.095.5c-.588 3.01-1.299 5.19-1.406 7.157z" clip-rule="evenodd"/><path fill="#fff" fill-rule="evenodd" stroke="#353e82" stroke-linejoin="round" stroke-width=".565" d="M34.8 12.326c.35 2.266 1.952 7.993 1.952 13.239 0 5.245-1.409 7.982-1.409 9.477s-.457-.43-.722-.43-1.232 1.835-1.232 2.972q0 .079-.014.093c.004-.058 0-.124.002-.183.005-.154.01-.307.005-.473-.001-.058-.007-.121-.01-.18a13 13 0 0 0-.037-.571l-.013-.111c-.12-1.213-.382-2.558-.536-3.616l-.015-.095a14 14 0 0 1-.076-.627c-.144-1.54-1.059-4.713-1.502-6.591l-.003-.041-.01-.195-.003-.052-.016-.312v-.01l-.023-.507a76 76 0 0 1-.055-2.084q0-.096-.002-.195c-.002-.214-.004-.428-.004-.652 0-.29.006-.906.006-.916 0-1.366 1.571-5.752 2.182-7.659.121-.378.064-.52.104-.673.24-.928 1.576-2.716 1.576-2.716z" clip-rule="evenodd"/><path fill="#059669" fill-rule="evenodd" stroke="#353e82" stroke-linejoin="round" stroke-width=".565" d="M31.083 20.267v.028q-.006.451-.006.887c0 .224.002.438.004.652l.002.195c.01.812.033 1.532.055 2.084l.001.023.021.484.001.01.018.364.011.195.003.04c.443 1.879 1.358 5.053 1.502 6.592q.027.289.076.627v.002c.042.294.094.617.15.95l.142.872.004.026q.075.458.14.92l.003.018a23 23 0 0 1 .117.96l.008.076q.025.286.036.558l.005.085.006.106c.005.166 0 .32-.005.473v.007c-.003.095 0 .198-.008.288-.144 1.684-1.348 1.588-1.348 1.588-.8 0-2.368-.498-2.875-1.413q-.083-.299-.163-.607c-.472-1.83-.826-3.887-.826-6.017q0-.562-.028-1.2c0-2.995 1.482-6.643 2.954-9.873Z" clip-rule="evenodd"/><path stroke="#353e82" stroke-linejoin="round" stroke-width=".565" d="m23.606 59.383.003.006a8 8 0 0 1-.062-.931c0-1.829-.047-7.086-.047-7.086s.18-1.733.18-3.538-1.12-2.707-1.12-3.5c-.61 1.682-2.07 8.12 1.046 15.05ZM17.216 46.246c0 3.801 2.042 8.514 2.6 11.706l.002-.005c.834-8.731-1.353-11.196-2.527-13.882a28 28 0 0 0-.075 2.181ZM30.325 59.383l-.003.006c.036-.31.062-.623.062-.931 0-1.829.048-7.086.048-7.086s-.18-1.733-.18-3.538 1.119-2.707 1.119-3.5c.61 1.682 2.07 8.12-1.046 15.05ZM36.715 46.246c0 3.801-2.041 8.514-2.6 11.706l-.002-.005c-.834-8.731 1.354-11.196 2.527-13.882.046.582.075 1.279.075 2.181ZM12.197.047Z" clip-rule="evenodd"/><path stroke="#353e82" stroke-linejoin="round" stroke-width=".565" d="M44.85 19.814c-.256-.609-.705-2.518-.833-4.104-.343-4.227-.64-10.533-.95-11.73-.425-1.644-1.332-3.344-1.332-3.934 0-5.16-1.156-6.455-1.156-7.29 0-.542.253-.253.253-3.381s-3.418-6.4-6.837-6.4l-3.322-2.07v-2.983h-.03c-.835.93-2.327 2.345-3.677 2.345s-2.842-1.415-3.677-2.345h-.03v2.983l-3.323 2.07c-3.418 0-6.836 3.272-6.836 6.4s.252 2.84.252 3.38c0 .836-1.155 2.13-1.155 7.291 0 .59-.907 2.29-1.333 3.935-.31 1.196-.607 7.502-.95 11.73-.128 1.585-.577 3.494-.833 4.103-.597 1.421 2.285 3.599 2.478 3.676.249.1.334-.399.418-.594.347-.802-.944-1.755-.86-2.312.1-.67.218-1.844.682-1.657.466.188.623 1.253 1.088 1.441s.664.063.807-.29c.083-.206-.445-1.5-.92-2.713-.335-.858-.277-1.473-.277-1.473s3.698-8.59 3.854-10.323c.503-.798.27-1.197.334-1.776.257-2.323.26-6.814.603-6.814.325 0 .361 1.407.361 2.274 0 1.985 1.48 2.057 1.48 4.728 0 2.02-.54 1.19-.54 4.728 0 1.047-1.758 2.01-1.758 6.196 0 1.083-1.156 3.104-1.156 7.483 0 8.374 2.227 12.453 2.227 15.99 0 3.79-.686 3.465-.686 7.868S19.96 56.28 19.96 59.348c0 6.75-2.238 5.017-2.238 6.57 0 .408.433.673.433.673l3.828.41h1.973l.603-.723s-.53-.914-.53-1.396c0-.48.265-1.419.265-1.997 0-.577-.747-2.599-.747-4.427 0-1.829-.048-7.087-.048-7.087s.18-1.732.18-3.537-1.119-2.707-1.119-3.5c0-.795 3.214-6.57 3.214-12.994 0-3.43.83-9.204.83-13.21h.722c0 4.006.831 9.78.831 13.21 0 6.424 3.214 12.2 3.214 12.993s-1.12 1.697-1.12 3.501c0 1.805.181 3.537.181 3.537s-.048 5.258-.048 7.087-.746 3.85-.746 4.427c0 .578.265 1.516.265 1.997s-.53 1.396-.53 1.396l.602.722h1.974l3.828-.409s.433-.265.433-.674c0-1.552-2.239.18-2.239-6.569 0-3.068 2.745-8.698 2.745-13.102 0-4.403-.687-4.078-.687-7.868 0-3.537 2.227-7.616 2.227-15.99 0-4.38-1.155-6.4-1.155-7.483 0-4.187-1.758-5.15-1.758-6.196 0-3.537-.542-2.707-.542-4.728 0-2.671 1.481-2.743 1.481-4.728 0-.867.036-2.274.361-2.274.343 0 .346 4.491.604 6.814.064.579-.17.978.333 1.776.157 1.732 3.855 10.323 3.855 10.323s.057.615-.278 1.473c-.474 1.214-1.002 2.507-.92 2.713.143.353.343.477.808.29.465-.188.622-1.253 1.087-1.44s.583.987.683 1.656c.083.557-1.207 1.51-.86 2.312.084.195.169.695.418.594.192-.077 3.075-2.254 2.477-3.676Z" clip-rule="evenodd"/><path stroke="#353e82" stroke-linejoin="round" stroke-width=".565" d="M13.429 5.569c.245-1.484.49-2.02 0-2.936-.49-.914-.816.345-2.13 0-.162.438-.317.894-.435 1.348-.267 1.034-.182 5.95-.375 9.993 0 0 1.064-2.111 1.146-4.23s1.55-2.69 1.794-4.175ZM13.711 8.134c-.69 2.098-1.214 7.758-1.214 7.758s3.698-8.59 3.854-10.323c0 0-1.95.466-2.64 2.565ZM37.875-9.295l-.148-.203c.986 1.363 1.8 2.039 2.853 2.254 0 .835 1.155 2.13 1.155 7.29 0 1.047-2.5 2.394-3.647 0-.744-1.552-1.025-2.198-1.198-2.58-.089-.306-.173-.487-.247-.487-.252-.433-.144-4.728-.144-4.728.794-.686.514-1.07 1.376-1.546ZM40.503 5.569c-.245-1.484-.49-2.02 0-2.936.489-.914.815.345 2.13 0 .162.438.317.894.434 1.348.268 1.034.182 5.95.376 9.993 0 0-1.065-2.111-1.146-4.23-.082-2.12-1.55-2.69-1.794-4.175ZM40.22 8.134c.69 2.098 1.215 7.758 1.215 7.758s-3.698-8.59-3.854-10.323c0 0 1.95.466 2.64 2.565Z" clip-rule="evenodd"/><rect width="53" height="53" fill="url(#c)" rx="6"/><mask id="d" width="53" height="53" x="0" y="0" maskUnits="userSpaceOnUse" style="mask-type:luminance"><rect width="53" height="53" fill="#fff" rx="6"/></mask></g></g><defs><linearGradient id="c" x1="16.045" x2="16.045" y1="32.09" y2="53" gradientUnits="userSpaceOnUse"><stop stop-color="#f6f6f8" stop-opacity=".01"/><stop offset="1" stop-color="#f6f6f8"/></linearGradient><clipPath id="a"><path fill="#fff" d="M0 0h53v53H0z"/></clipPath></defs></svg>