<svg xmlns="http://www.w3.org/2000/svg" width="53" height="53" fill="none" viewBox="0 0 53 53"><g clip-path="url(#a)"><mask id="b" width="53" height="53" x="0" y="0" maskUnits="userSpaceOnUse" style="mask-type:luminance"><rect width="53" height="53" fill="#fff" rx="6"/></mask><g clip-rule="evenodd" mask="url(#b)"><path fill="#fff" fill-rule="evenodd" d="M44.83 7.388c-.606-1.504-1.396-2.508-1.512-3.948s-1.124-5.773-1.5-7.224c-.377-1.451-2.253-4.39-2.253-4.91 0-4.554-.532-7.283-.532-8.02 0-.477.224-.223.224-2.983 0-1.985-1.564-4.036-3.567-5.031l-.014-.007a7 7 0 0 0-.267-.124l-.09-.037-.196-.08-.11-.04a6 6 0 0 0-.477-.149 5 5 0 0 0-.421-.095l-.185-.03q-.058-.009-.116-.016a5 5 0 0 0-.203-.02q-.05-.005-.1-.009-.15-.01-.301-.01l-3.652-2.145.168-1.608s-.818-2.524-2.734-2.524-2.733 2.524-2.733 2.524l.168 1.608-3.652 2.145q-.15 0-.302.01-.05.003-.1.01a5 5 0 0 0-.202.019l-.116.017a5.4 5.4 0 0 0-1.084.274q-.054.018-.11.04l-.196.079-.09.037q-.134.059-.266.124l-.014.007c-2.003.995-3.567 3.046-3.567 5.031 0 2.76.224 2.506.224 2.984 0 .736-.532 3.465-.532 8.02 0 .52-1.877 3.458-2.253 4.91-.376 1.45-1.384 5.783-1.5 7.223s-.906 2.444-1.512 3.948c-.797 1.977 1.725 3.058 1.907 3.131.236.095.5.092.58-.092.327-.757-1.404-1.76-1.093-2.31.314-.555.852-1.18 1.291-1.002.44.177.23 1.57.67 1.746.44.177.628.06.762-.273.135-.333.072-2.932-.595-3.2.335-.458.549-.774.549-.774S14.96 1.858 15.728.775s2.136-5.162 2.274-6.69c.394-.574-.058-1.16.114-1.645.682-1.928.649-4.112.952-4.112.288 0 .994 2.507.994 4.864 0 1.783-.48 1.051-.48 4.172 0 .924-1.554 1.773-1.554 5.468 0 .955-1.021 2.739-1.021 6.603 0 7.39 3.307 12.053 3.307 15.174 0 3.344-.91 2.39-.91 6.275s2.654 8.973 2.654 11.68c0 5.444-3.412 2.533-3.412 4.196 0 .361.948.87.948.87l2.568 1.006 1.715.165c.762 0 1.479-.264 1.479-1.587 0-.425-.038-1.494-.038-2.004s-.569-1.977-.569-3.59c0-1.614.114-6.162.114-6.162s.796-2.226.796-3.818-.872-4.1-.872-4.8c0-.702 1.152-2.496 1.152-9.506 0-3.026.734-8.122.734-11.657h.639c0 3.535.734 8.631.734 11.657 0 7.01 1.152 8.804 1.152 9.505 0 .7-.872 3.208-.872 4.8 0 1.593.796 3.819.796 3.819s.114 4.548.114 6.161c0 1.614-.569 3.082-.569 3.591s-.038 1.58-.038 2.004c0 1.323.717 1.587 1.478 1.587l1.716-.165 2.568-1.006s.948-.509.948-.87c0-1.663-3.412 1.248-3.412-4.196 0-2.707 2.653-7.795 2.653-11.68 0-3.886-.91-2.93-.91-6.275 0-3.122 3.308-7.785 3.308-15.174 0-3.864-1.022-5.648-1.022-6.603 0-3.695-1.554-4.544-1.554-5.468 0-3.121-.479-2.389-.479-4.172 0-2.357.706-4.864.994-4.864.303 0 .27 2.184.952 4.112.172.484-.28 1.071.114 1.644.138 1.53 1.508 5.608 2.274 6.691.767 1.083 2.502 3.839 2.502 3.839s.213.316.549.774c-.667.268-.73 2.867-.595 3.2.134.332.323.45.763.273s.229-1.57.668-1.746c.44-.177.978.447 1.292 1.003.31.548-1.42 1.552-1.092 2.31.08.183.343.186.579.091.182-.073 2.703-1.154 1.907-3.13"/><path fill="#fff" fill-rule="evenodd" d="M19.583-2.636c0 .924-1.554 1.773-1.554 5.468 0 .955-1.022 2.739-1.022 6.603 0 2.402.35 4.514.822 6.38.818-3.151 1.857-6.445 4.207-6.747 2.35-.303 4.957-4.116 4.957-5.4 0 0-4.582-6.2-4.582-6.88 0-.681-1.588-.132-2.828.576"/><path fill="#fff" fill-rule="evenodd" d="M19.657 10.85c.143 1.152.278 2.915.278 5.462 0 2.37-.075 4.144-.196 5.466.342 1.066.575 2.004.575 2.83v.03C21.238 22.445 22 19.074 22 15.815c0-4.948.036-6.748.036-6.748-1.004.13-1.768.805-2.379 1.782"/><path fill="#fff" fill-rule="evenodd" d="M25.665 6.393c-.971 1.284-2.338 2.509-3.63 2.675l-.027.005c.011 1.12.028 3.101.028 4.574 0 2.169 1.88 6.01 1.88 7.314s-.171 1.531 0 1.928c.17.397.606 2.4.738 3.175.036.21.099.375.17.507.197-.877 1.114-2.976 1.114-9.237 0-1.758.248-4.216.456-6.66-.399-1.288-.832-3.034-.73-4.281M22.494 25.44c0-1.417-.625-2.721-.91-1.87-.284.85-.966 1.927-1.37 2.632-.224 1.49-.758 1.59-.805 4.282q.004.206-.004.4 0 .13.005.26c.117 1.745 1.925 5.282 2.59 5.016.7-.28 1.006-1.194.892-2.951s-.398-6.35-.398-7.769"/><path fill="#fff" fill-rule="evenodd" d="M24.787 26.84q.001-.113.037-.27a1.6 1.6 0 0 1-.17-.506c-.133-.775-.568-2.778-.739-3.175-.17-.397-.31-1.328-.665-.63a52 52 0 0 0-.925 1.892v.002c.1.369.169.821.169 1.288 0 1.417.284 6.01.398 7.768 0 0 .647 2.513 1.309 2.381.174-.035.41-.071.661-.105v-.027s.797-2.226.797-3.818-.872-4.1-.872-4.8M11.483 3.372c-.241-.54-.066-4.096.177-5.099.242-1.003 1.883-3.678 2.634-4.075s1.092 3.346.751 4.366c-.34 1.02-1.82 6.05-1.82 6.05s-1.501-.702-1.742-1.242M42.502 3.372c.241-.54.066-4.096-.177-5.099-.242-1.003-1.883-3.678-2.634-4.075s-1.093 3.346-.751 4.366c.34 1.02 1.819 6.05 1.819 6.05s1.502-.702 1.743-1.242"/><path fill="#fff" fill-rule="evenodd" d="M15.046-1.436c-.242.781-.721 2.363-1.167 3.841l-.653 2.209s1.735-2.756 2.502-3.839 2.136-5.162 2.274-6.69c-.682.794-2.433 2.787-2.956 4.479M25.665 6.393l-.012.015q-.04.053-.08.103a10 10 0 0 1-.388.47l-.072.084a10 10 0 0 1-.51.53l-.043.042a9 9 0 0 1-.237.217l-.04.036q-.285.25-.581.458c.197 1.47.632 3.243 1.066 3.768.347.418.857-1.62 1.133-3.317-.18-.847-.294-1.705-.236-2.406M34.402-2.636c0 .924 1.554 1.773 1.554 5.468 0 .955 1.022 2.739 1.022 6.603 0 2.402-.35 4.514-.822 6.38-.818-3.151-1.857-6.445-4.207-6.747-2.35-.303-4.957-4.116-4.957-5.4 0 0 4.582-6.2 4.582-6.88 0-.681 1.588-.132 2.828.576"/><path fill="#fff" fill-rule="evenodd" d="M34.328 10.85c-.143 1.152-.278 2.915-.278 5.462 0 2.37.075 4.144.196 5.466-.342 1.066-.575 2.004-.575 2.83v.03c-.924-2.192-1.686-5.563-1.686-8.822 0-4.948-.036-6.748-.036-6.748 1.004.13 1.768.805 2.379 1.782"/><path fill="#fff" fill-rule="evenodd" d="M28.32 6.393c.971 1.284 2.338 2.509 3.63 2.675l.027.005c-.011 1.12-.028 3.101-.028 4.574 0 2.169-1.88 6.01-1.88 7.314s.171 1.531 0 1.928c-.17.397-.606 2.4-.739 3.175-.035.21-.098.375-.17.507-.196-.877-1.114-2.976-1.114-9.237 0-1.758-.247-4.216-.455-6.66.399-1.288.832-3.034.729-4.281M31.491 25.44c0-1.417.626-2.721.91-1.87.284.85.966 1.927 1.37 2.632.224 1.49.758 1.59.806 4.282a6 6 0 0 0 .003.4q0 .13-.005.26c-.117 1.745-1.925 5.282-2.59 5.016-.7-.28-1.006-1.194-.892-2.951s.398-6.35.398-7.769"/><path fill="#fff" fill-rule="evenodd" d="M29.198 26.84q-.001-.113-.037-.27c.071-.131.134-.297.17-.506.132-.775.568-2.778.739-3.175.17-.397.31-1.328.664-.63.355.702.754 1.502.926 1.892v.002c-.1.369-.169.821-.169 1.288 0 1.417-.284 6.01-.398 7.768 0 0-.647 2.513-1.31 2.381-.174-.035-.409-.071-.66-.105v-.027s-.797-2.226-.797-3.818.872-4.1.872-4.8M38.94-1.436c.241.781.72 2.363 1.166 3.841.357 1.203.653 2.209.653 2.209S39.024 1.858 38.257.775s-2.136-5.162-2.274-6.69c.682.794 2.433 2.787 2.957 4.479M31.95-4.952c-.8-1.02-4.439-5.396-4.325-5.594v-.002c-.261.447-.482.762-.632.89-.15-.128-.371-.444-.633-.89v.002c.114.198-3.525 4.574-4.324 5.594 0 0 .458.908.375 1.74 0 .68 4.582 6.879 4.582 6.879s4.582-6.2 4.582-6.88c-.084-.831.374-1.739.374-1.739M28.32 6.393l.012.015q.04.053.08.103.07.09.141.178l.088.106q.078.094.159.187l.072.083q.246.275.51.53l.043.042q.117.112.237.217l.04.036q.285.25.581.458c-.198 1.47-.632 3.243-1.067 3.768-.346.418-.856-1.62-1.132-3.317.18-.847.294-1.705.236-2.406"/><path stroke="#353e82" stroke-linejoin="round" stroke-width=".5" d="M19.583-2.636c0 .924-1.554 1.773-1.554 5.468 0 .955-1.022 2.739-1.022 6.603 0 2.402.35 4.514.822 6.38.818-3.151 1.857-6.445 4.207-6.747 2.35-.303 4.957-4.116 4.957-5.4 0 0-4.582-6.2-4.582-6.88 0-.681-1.588-.132-2.828.576Z"/><path stroke="#353e82" stroke-linejoin="round" stroke-width=".5" d="M19.657 10.85c.143 1.152.278 2.915.278 5.462 0 2.37-.075 4.144-.196 5.466.342 1.066.575 2.004.575 2.83v.03C21.238 22.445 22 19.074 22 15.815c0-4.948.036-6.748.036-6.748-1.004.13-1.768.805-2.379 1.782Z"/><path stroke="#353e82" stroke-linejoin="round" stroke-width=".5" d="M25.665 6.393c-.971 1.284-2.338 2.509-3.63 2.675l-.027.005c.011 1.12.028 3.101.028 4.574 0 2.169 1.88 6.01 1.88 7.314s-.171 1.531 0 1.928c.17.397.606 2.4.738 3.175.036.21.099.375.17.507.197-.877 1.114-2.976 1.114-9.237 0-1.758.248-4.216.456-6.66-.399-1.288-.832-3.034-.73-4.281Z"/><path fill="#059669" fill-rule="evenodd" stroke="#353e82" stroke-linejoin="round" stroke-width=".565" d="M22.494 25.44c0-1.417-.625-2.721-.91-1.87-.284.85-.966 1.927-1.37 2.632-.224 1.49-.758 1.59-.805 4.282q.004.206-.004.4 0 .13.005.26c.117 1.745 1.925 5.282 2.59 5.016.7-.28 1.006-1.194.892-2.951s-.398-6.35-.398-7.769Z"/><path fill="#059669" fill-rule="evenodd" stroke="#353e82" stroke-linejoin="round" stroke-width=".565" d="M24.787 26.84q.001-.113.037-.27a1.6 1.6 0 0 1-.17-.506c-.133-.775-.568-2.778-.739-3.175-.17-.397-.31-1.328-.665-.63a52 52 0 0 0-.925 1.892v.002c.1.369.169.821.169 1.288 0 1.417.284 6.01.398 7.768 0 0 .647 2.513 1.309 2.381.174-.035.41-.071.661-.105v-.027s.797-2.226.797-3.818-.872-4.1-.872-4.8Z"/><path stroke="#353e82" stroke-linejoin="round" stroke-width=".5" d="M11.483 3.372c-.241-.54-.066-4.096.177-5.099.242-1.003 1.883-3.678 2.634-4.075s1.092 3.346.751 4.366c-.34 1.02-1.82 6.05-1.82 6.05s-1.501-.702-1.742-1.242ZM42.502 3.372c.241-.54.066-4.096-.177-5.099-.242-1.003-1.883-3.678-2.634-4.075s-1.093 3.346-.751 4.366c.34 1.02 1.819 6.05 1.819 6.05s1.502-.702 1.743-1.242Z"/><path stroke="#353e82" stroke-linejoin="round" stroke-width=".5" d="M15.046-1.436c-.242.781-.721 2.363-1.167 3.841l-.653 2.209s1.735-2.756 2.502-3.839 2.136-5.162 2.274-6.69c-.682.794-2.433 2.787-2.956 4.479ZM25.665 6.393l-.012.015q-.04.053-.08.103a10 10 0 0 1-.388.47l-.072.084a10 10 0 0 1-.51.53l-.043.042a9 9 0 0 1-.237.217l-.04.036q-.285.25-.581.458c.197 1.47.632 3.243 1.066 3.768.347.418.857-1.62 1.133-3.317-.18-.847-.294-1.705-.236-2.406ZM34.402-2.636c0 .924 1.554 1.773 1.554 5.468 0 .955 1.022 2.739 1.022 6.603 0 2.402-.35 4.514-.822 6.38-.818-3.151-1.857-6.445-4.207-6.747-2.35-.303-4.957-4.116-4.957-5.4 0 0 4.582-6.2 4.582-6.88 0-.681 1.588-.132 2.828.576Z"/><path stroke="#353e82" stroke-linejoin="round" stroke-width=".5" d="M34.328 10.85c-.143 1.152-.278 2.915-.278 5.462 0 2.37.075 4.144.196 5.466-.342 1.066-.575 2.004-.575 2.83v.03c-.924-2.192-1.686-5.563-1.686-8.822 0-4.948-.036-6.748-.036-6.748 1.004.13 1.768.805 2.379 1.782Z"/><path stroke="#353e82" stroke-linejoin="round" stroke-width=".5" d="M28.32 6.393c.971 1.284 2.338 2.509 3.63 2.675l.027.005c-.011 1.12-.028 3.101-.028 4.574 0 2.169-1.88 6.01-1.88 7.314s.171 1.531 0 1.928c-.17.397-.606 2.4-.739 3.175-.035.21-.098.375-.17.507-.196-.877-1.114-2.976-1.114-9.237 0-1.758-.247-4.216-.455-6.66.399-1.288.832-3.034.729-4.281Z"/><path fill="#059669" fill-rule="evenodd" stroke="#353e82" stroke-linejoin="round" stroke-width=".565" d="M31.491 25.44c0-1.417.626-2.721.91-1.87.284.85.966 1.927 1.37 2.632.224 1.49.758 1.59.806 4.282a6 6 0 0 0 .003.4q0 .13-.005.26c-.117 1.745-1.925 5.282-2.59 5.016-.7-.28-1.006-1.194-.892-2.951s.398-6.35.398-7.769Z"/><path fill="#059669" fill-rule="evenodd" stroke="#353e82" stroke-linejoin="round" stroke-width=".565" d="M29.198 26.84q-.001-.113-.037-.27c.071-.131.134-.297.17-.506.132-.775.568-2.778.739-3.175.17-.397.31-1.328.664-.63.355.702.754 1.502.926 1.892v.002c-.1.369-.169.821-.169 1.288 0 1.417-.284 6.01-.398 7.768 0 0-.647 2.513-1.31 2.381-.174-.035-.409-.071-.66-.105v-.027s-.797-2.226-.797-3.818.872-4.1.872-4.8Z"/><path stroke="#353e82" stroke-linejoin="round" stroke-width=".5" d="M38.94-1.436c.241.781.72 2.363 1.166 3.841.357 1.203.653 2.209.653 2.209S39.024 1.858 38.257.775s-2.136-5.162-2.274-6.69c.682.794 2.433 2.787 2.957 4.479ZM31.95-4.952c-.8-1.02-4.439-5.396-4.325-5.594v-.002c-.261.447-.482.762-.632.89-.15-.128-.371-.444-.633-.89v.002c.114.198-3.525 4.574-4.324 5.594 0 0 .458.908.375 1.74 0 .68 4.582 6.879 4.582 6.879s4.582-6.2 4.582-6.88c-.084-.831.374-1.739.374-1.739ZM28.32 6.393l.012.015q.04.053.08.103.07.09.141.178l.088.106q.078.094.159.187l.072.083q.246.275.51.53l.043.042q.117.112.237.217l.04.036q.285.25.581.458c-.198 1.47-.632 3.243-1.067 3.768-.346.418-.856-1.62-1.132-3.317.18-.847.294-1.705.236-2.406Z"/><path stroke="#353e82" stroke-linejoin="round" stroke-width=".5" d="M44.83 7.388c-.606-1.504-1.396-2.508-1.512-3.948s-1.124-5.773-1.5-7.224c-.377-1.451-2.253-4.39-2.253-4.91 0-4.554-.532-7.283-.532-8.02 0-.477.224-.223.224-2.983 0-1.985-1.564-4.036-3.567-5.031l-.014-.007a7 7 0 0 0-.267-.124l-.09-.037-.196-.08-.11-.04a6 6 0 0 0-.477-.149 5 5 0 0 0-.421-.095l-.185-.03q-.058-.009-.116-.016a5 5 0 0 0-.203-.02q-.05-.005-.1-.009-.15-.01-.301-.01l-3.652-2.145.168-1.608s-.818-2.524-2.734-2.524-2.733 2.524-2.733 2.524l.168 1.608-3.652 2.145q-.15 0-.302.01-.05.003-.1.01a5 5 0 0 0-.202.019l-.116.017a5.4 5.4 0 0 0-1.084.274q-.054.018-.11.04l-.196.079-.09.037q-.134.059-.266.124l-.014.007c-2.003.995-3.567 3.046-3.567 5.031 0 2.76.224 2.506.224 2.984 0 .736-.532 3.465-.532 8.02 0 .52-1.877 3.458-2.253 4.91-.376 1.45-1.384 5.783-1.5 7.223s-.906 2.444-1.512 3.948c-.797 1.977 1.725 3.058 1.907 3.131.236.095.5.092.58-.092.327-.757-1.404-1.76-1.093-2.31.314-.555.852-1.18 1.291-1.002.44.177.23 1.57.67 1.746.44.177.628.06.762-.273.135-.333.072-2.932-.595-3.2.335-.458.549-.774.549-.774S14.96 1.858 15.728.775s2.136-5.162 2.274-6.69c.394-.574-.058-1.16.114-1.645.682-1.928.649-4.112.952-4.112.288 0 .994 2.507.994 4.864 0 1.783-.48 1.051-.48 4.172 0 .924-1.554 1.773-1.554 5.468 0 .955-1.021 2.739-1.021 6.603 0 7.39 3.307 12.053 3.307 15.174 0 3.344-.91 2.39-.91 6.275s2.654 8.973 2.654 11.68c0 5.444-3.412 2.533-3.412 4.196 0 .361.948.87.948.87l2.568 1.006 1.715.165c.762 0 1.479-.264 1.479-1.587 0-.425-.038-1.494-.038-2.004s-.569-1.977-.569-3.59c0-1.614.114-6.162.114-6.162s.796-2.226.796-3.818-.872-4.1-.872-4.8c0-.702 1.152-2.496 1.152-9.506 0-3.026.734-8.122.734-11.657h.639c0 3.535.734 8.631.734 11.657 0 7.01 1.152 8.804 1.152 9.505 0 .7-.872 3.208-.872 4.8 0 1.593.796 3.819.796 3.819s.114 4.548.114 6.161c0 1.614-.569 3.082-.569 3.591s-.038 1.58-.038 2.004c0 1.323.717 1.587 1.478 1.587l1.716-.165 2.568-1.006s.948-.509.948-.87c0-1.663-3.412 1.248-3.412-4.196 0-2.707 2.653-7.795 2.653-11.68 0-3.886-.91-2.93-.91-6.275 0-3.122 3.308-7.785 3.308-15.174 0-3.864-1.022-5.648-1.022-6.603 0-3.695-1.554-4.544-1.554-5.468 0-3.121-.479-2.389-.479-4.172 0-2.357.706-4.864.994-4.864.303 0 .27 2.184.952 4.112.172.484-.28 1.071.114 1.644.138 1.53 1.508 5.608 2.274 6.691.767 1.083 2.502 3.839 2.502 3.839s.213.316.549.774c-.667.268-.73 2.867-.595 3.2.134.332.323.45.763.273s.229-1.57.668-1.746c.44-.177.978.447 1.292 1.003.31.548-1.42 1.552-1.092 2.31.08.183.343.186.579.091.182-.073 2.703-1.154 1.907-3.13Z"/></g><rect width="53" height="53" fill="url(#c)" rx="6"/></g><defs><linearGradient id="c" x1="16.045" x2="16.045" y1="32.09" y2="53" gradientUnits="userSpaceOnUse"><stop offset=".582" stop-color="#f6f6f8" stop-opacity=".01"/><stop offset="1" stop-color="#f6f6f8"/></linearGradient><clipPath id="a"><path fill="#fff" d="M0 0h53v53H0z"/></clipPath></defs></svg>