<svg width="53" height="53" viewBox="0 0 53 53" fill="none" xmlns="http://www.w3.org/2000/svg">
<g clip-path="url(#clip0_51_16531)">
<mask id="mask0_51_16531" style="mask-type:luminance" maskUnits="userSpaceOnUse" x="0" y="0" width="53" height="53">
<rect width="53" height="53" rx="6" fill="white"/>
</mask>
<g mask="url(#mask0_51_16531)">
<path fill-rule="evenodd" clip-rule="evenodd" d="M44.8299 7.3882C44.2237 5.88387 43.4342 4.87991 43.3179 3.44016C43.2017 2.00041 42.1942 -2.33255 41.8179 -3.78377C41.4414 -5.23499 39.5652 -8.17358 39.5652 -8.69388C39.5652 -13.2485 39.0332 -15.9767 39.0332 -16.7134C39.0332 -17.1913 39.2569 -16.9365 39.2569 -19.6968C39.2569 -21.6821 37.6927 -23.7331 35.6897 -24.7283C35.6852 -24.7306 35.6809 -24.7323 35.6764 -24.7346C35.5882 -24.7782 35.4992 -24.8196 35.4094 -24.859C35.3797 -24.8719 35.3494 -24.8839 35.3194 -24.8964C35.2542 -24.9238 35.1889 -24.9507 35.1229 -24.9759C35.0867 -24.9899 35.0502 -25.0023 35.0137 -25.0155C34.9534 -25.0372 34.8929 -25.0582 34.8319 -25.0781C34.7929 -25.0906 34.7534 -25.1026 34.7142 -25.1143C34.6552 -25.132 34.5959 -25.1489 34.5364 -25.1649C34.4962 -25.1756 34.4557 -25.1858 34.4152 -25.1955C34.3557 -25.21 34.2959 -25.2232 34.2362 -25.2354C34.1957 -25.2439 34.1554 -25.2521 34.1149 -25.2596C34.0537 -25.2708 33.9919 -25.2803 33.9302 -25.2893C33.8914 -25.295 33.8527 -25.3015 33.8137 -25.3062C33.7464 -25.3145 33.6787 -25.3204 33.6112 -25.3259C33.5779 -25.3287 33.5449 -25.3327 33.5119 -25.3347C33.4114 -25.3409 33.3107 -25.3446 33.2099 -25.3446L29.5579 -27.4904L29.7257 -29.0977C29.7257 -29.0977 28.9084 -31.6222 26.9924 -31.6222C25.0767 -31.6222 24.2592 -29.0977 24.2592 -29.0977L24.4272 -27.4904L20.7752 -25.3446C20.6744 -25.3446 20.5737 -25.3409 20.4732 -25.3347C20.4399 -25.3327 20.4069 -25.3287 20.3739 -25.3259C20.3062 -25.3204 20.2387 -25.3145 20.1712 -25.3062C20.1324 -25.3015 20.0937 -25.295 20.0547 -25.2893C19.9932 -25.2803 19.9314 -25.2708 19.8699 -25.2596C19.8297 -25.2521 19.7892 -25.2439 19.7487 -25.2354C19.6892 -25.2232 19.6294 -25.21 19.5699 -25.1955C19.5294 -25.1858 19.4889 -25.1756 19.4487 -25.1649C19.3892 -25.1489 19.3299 -25.132 19.2709 -25.1143C19.2314 -25.1026 19.1922 -25.0906 19.1529 -25.0781C19.0922 -25.0582 19.0317 -25.0372 18.9712 -25.0155C18.9347 -25.0023 18.8982 -24.9899 18.8619 -24.9759C18.7962 -24.9507 18.7309 -24.9238 18.6654 -24.8964C18.6357 -24.8839 18.6054 -24.8719 18.5757 -24.859C18.4859 -24.8196 18.3969 -24.7782 18.3087 -24.7346C18.3042 -24.7323 18.2997 -24.7306 18.2952 -24.7283H18.2954C16.2922 -23.7331 14.7282 -21.6821 14.7282 -19.6968C14.7282 -16.9365 14.9517 -17.1913 14.9517 -16.7134C14.9517 -15.9767 14.4199 -13.2485 14.4199 -8.69388C14.4199 -8.17358 12.5434 -5.23499 12.1672 -3.78377C11.7909 -2.33255 10.7834 2.00041 10.6672 3.44016C10.5509 4.87991 9.76142 5.88387 9.15517 7.3882C8.35842 9.3647 10.8802 10.446 11.0622 10.5192C11.2977 10.614 11.5617 10.6112 11.6414 10.4273C11.9694 9.67036 10.2382 8.66615 10.5487 8.11767C10.8634 7.56171 11.4007 6.93769 11.8404 7.1147C12.2802 7.29171 12.0694 8.68409 12.5094 8.8611C12.9492 9.03811 13.1377 8.92044 13.2724 8.58786C13.4072 8.25529 13.3444 5.65626 12.6772 5.38775C13.0124 4.92978 13.2257 4.6139 13.2257 4.6139C13.2257 4.6139 14.9612 1.85806 15.7277 0.775314C16.4942 -0.307678 17.8637 -4.3866 18.0019 -5.9156C18.3959 -6.48876 17.9444 -7.07563 18.1157 -7.55978C18.7982 -9.48768 18.7649 -11.6716 19.0684 -11.6716C19.3559 -11.6716 20.0619 -9.16507 20.0619 -6.80812C20.0619 -5.02457 19.5829 -5.75704 19.5829 -2.63596C19.5829 -1.71227 18.0284 -0.862885 18.0284 2.8316C18.0284 3.7872 17.0067 5.57075 17.0067 9.43526C17.0067 16.8245 20.3142 21.4875 20.3142 24.6089C20.3142 27.9531 19.4044 26.9982 19.4044 30.8837C19.4044 34.7694 22.0579 39.857 22.0579 42.5642C22.0579 48.0076 18.6464 45.0969 18.6464 46.7601C18.6464 47.1213 19.5942 47.6297 19.5942 47.6297L22.1624 48.6359L23.8774 48.8014C24.6387 48.8014 25.3559 48.5369 25.3559 47.2138C25.3559 46.7893 25.3179 45.72 25.3179 45.2104C25.3179 44.7008 24.7492 43.2329 24.7492 41.6194C24.7492 40.0056 24.8629 35.4577 24.8629 35.4577C24.8629 35.4577 25.6589 33.2324 25.6589 31.6398C25.6589 30.0473 24.7872 27.5397 24.7872 26.8392C24.7872 26.1384 25.9387 24.3441 25.9387 17.3338C25.9387 14.3082 26.6732 9.21213 26.6732 5.67695H26.9924H27.3119C27.3119 9.21213 28.0464 14.3082 28.0464 17.3338C28.0464 24.3441 29.1979 26.1384 29.1979 26.8392C29.1979 27.5397 28.3259 30.0473 28.3259 31.6398C28.3259 33.2324 29.1219 35.4577 29.1219 35.4577C29.1219 35.4577 29.2357 40.0056 29.2357 41.6194C29.2357 43.2329 28.6672 44.7008 28.6672 45.2104C28.6672 45.72 28.6292 46.7893 28.6292 47.2138C28.6292 48.5369 29.3462 48.8014 30.1074 48.8014L31.8227 48.6359L34.3909 47.6297C34.3909 47.6297 35.3387 47.1213 35.3387 46.7601C35.3387 45.0969 31.9269 48.0076 31.9269 42.5642C31.9269 39.857 34.5804 34.7694 34.5804 30.8837C34.5804 26.9982 33.6707 27.9531 33.6707 24.6089C33.6707 21.4875 36.9784 16.8245 36.9784 9.43526C36.9784 5.57075 35.9564 3.7872 35.9564 2.8316C35.9564 -0.862885 34.4022 -1.71227 34.4022 -2.63596C34.4022 -5.75704 33.9232 -5.02457 33.9232 -6.80812C33.9232 -9.16507 34.6292 -11.6716 34.9167 -11.6716C35.2202 -11.6716 35.1869 -9.48768 35.8692 -7.55978C36.0407 -7.07563 35.5892 -6.48876 35.9829 -5.9156C36.1214 -4.3866 37.4909 -0.307678 38.2572 0.775314C39.0239 1.85806 40.7592 4.6139 40.7592 4.6139C40.7592 4.6139 40.9724 4.92978 41.3079 5.38775C40.6407 5.65626 40.5779 8.25529 40.7127 8.58786C40.8472 8.92044 41.0359 9.03811 41.4757 8.8611C41.9154 8.68409 41.7047 7.29171 42.1444 7.1147C42.5844 6.93769 43.1217 7.56171 43.4364 8.11767C43.7469 8.66615 42.0157 9.67036 42.3437 10.4273C42.4234 10.6112 42.6874 10.614 42.9229 10.5192C43.1049 10.446 45.6264 9.3647 44.8299 7.3882Z" fill="white"/>
<path fill-rule="evenodd" clip-rule="evenodd" d="M19.5831 -2.63585C19.5831 -1.71217 18.0288 -0.862778 18.0288 2.83171C18.0288 3.7873 17.0068 5.5706 17.0068 9.43512C17.0068 11.8369 17.3571 13.9493 17.8288 15.8156C18.6466 12.6636 19.6858 9.3703 22.0361 9.06789C24.3863 8.76548 26.9928 4.95232 26.9928 3.66714C26.9928 3.66714 22.4108 -2.53214 22.4108 -3.21275C22.4108 -3.89311 20.8226 -3.34414 19.5831 -2.63585Z" fill="white"/>
<path fill-rule="evenodd" clip-rule="evenodd" d="M19.6572 10.85C19.8 12.0023 19.9352 13.7654 19.9352 16.3116C19.9352 18.6823 19.86 20.4556 19.7392 21.7782C20.0807 22.8442 20.3142 23.7816 20.3142 24.6088C20.3142 24.6188 20.314 24.6275 20.314 24.6372C21.2385 22.4456 21.9995 19.0752 21.9995 15.8157C21.9995 10.8682 22.036 9.06799 22.036 9.06799C21.032 9.19713 20.2677 9.87326 19.6572 10.85Z" fill="white"/>
<path fill-rule="evenodd" clip-rule="evenodd" d="M25.6648 6.39282C24.6938 7.67651 23.3266 8.90185 22.0356 9.06789C22.0263 9.06914 22.0176 9.07138 22.0083 9.07288C22.0191 10.1938 22.0356 12.1743 22.0356 13.6467C22.0356 15.8156 23.9151 19.657 23.9151 20.9611C23.9151 22.2652 23.7446 22.4921 23.9151 22.8888C24.0858 23.2859 24.5216 25.2893 24.6543 26.0642C24.6903 26.2736 24.7528 26.4391 24.8243 26.5708C25.0206 25.694 25.9383 23.5948 25.9383 17.3339C25.9383 15.5756 26.1861 13.1184 26.3941 10.6742C25.9951 9.38601 25.5616 7.63961 25.6648 6.39282Z" fill="white"/>
<path fill-rule="evenodd" clip-rule="evenodd" d="M22.494 25.4405C22.494 24.023 21.8685 22.7188 21.5843 23.5695C21.3 24.4199 20.6178 25.4974 20.2148 26.2022C19.9895 27.6925 19.4565 27.7915 19.4085 30.484C19.411 30.6214 19.4105 30.7555 19.4048 30.8839C19.4048 30.9699 19.4075 31.0572 19.41 31.1442C19.5273 32.8891 21.3348 36.4265 21.9995 36.1603C22.6993 35.88 23.0058 34.9663 22.892 33.2087C22.7783 31.4508 22.494 26.8581 22.494 25.4405Z" fill="white"/>
<path fill-rule="evenodd" clip-rule="evenodd" d="M24.787 26.8391C24.787 26.7641 24.8005 26.6758 24.824 26.5704C24.7525 26.4387 24.69 26.2734 24.6542 26.0643C24.5215 25.2894 24.0857 23.286 23.9152 22.8888C23.7445 22.4919 23.6045 21.5615 23.2505 22.2598C22.8955 22.9611 22.4965 23.7612 22.3247 24.1513C22.3245 24.1518 22.3242 24.1523 22.3242 24.1526C22.4252 24.5218 22.4937 24.974 22.4937 25.4405C22.4937 26.8581 22.778 31.451 22.8917 33.2087C22.8917 33.2087 23.5392 35.7224 24.201 35.5901C24.3755 35.5552 24.6107 35.519 24.8622 35.4846C24.8625 35.4689 24.8627 35.4577 24.8627 35.4577C24.8627 35.4577 25.6587 33.2324 25.6587 31.6398C25.6587 30.0474 24.787 27.5399 24.787 26.8391Z" fill="white"/>
<path fill-rule="evenodd" clip-rule="evenodd" d="M11.4827 3.37182C11.2417 2.83157 11.4175 -0.723557 11.6597 -1.72677C11.9022 -2.73023 13.543 -5.40505 14.2942 -5.80195C15.0452 -6.19885 15.3865 -2.45649 15.0452 -1.43608C14.7042 -0.415414 13.2257 4.61387 13.2257 4.61387C13.2257 4.61387 11.7237 3.91207 11.4827 3.37182Z" fill="white"/>
<path fill-rule="evenodd" clip-rule="evenodd" d="M42.5022 3.37182C42.7432 2.83157 42.5675 -0.723557 42.3252 -1.72677C42.0827 -2.73023 40.442 -5.40505 39.6907 -5.80195C38.9397 -6.19885 38.5985 -2.45649 38.9397 -1.43608C39.2807 -0.415414 40.759 4.61387 40.759 4.61387C40.759 4.61387 42.2612 3.91207 42.5022 3.37182Z" fill="white"/>
<path fill-rule="evenodd" clip-rule="evenodd" d="M15.0456 -1.43598C14.8036 -0.654646 14.3248 0.927459 13.8788 2.4051C13.5218 3.60801 13.2261 4.61397 13.2261 4.61397C13.2261 4.61397 14.9613 1.85837 15.7278 0.775382C16.4943 -0.30761 17.8638 -4.38653 18.0023 -5.91528C17.3198 -5.12149 15.5693 -3.12803 15.0456 -1.43598Z" fill="white"/>
<path fill-rule="evenodd" clip-rule="evenodd" d="M25.6652 6.39282C25.6612 6.39806 25.6569 6.40329 25.6529 6.40828C25.6269 6.44293 25.5997 6.47709 25.5729 6.51149C25.5267 6.57083 25.4799 6.63016 25.4319 6.689C25.4032 6.72465 25.3739 6.76005 25.3444 6.79545C25.2922 6.85803 25.2392 6.92011 25.1854 6.98169C25.1609 7.00961 25.1372 7.03753 25.1127 7.0652C24.9494 7.24845 24.7792 7.4262 24.6034 7.59573C24.5889 7.60969 24.5742 7.6234 24.5597 7.63737C24.4817 7.71141 24.4029 7.78371 24.3232 7.85426C24.3097 7.86623 24.2962 7.8782 24.2824 7.88991C24.0929 8.0552 23.8992 8.20928 23.7017 8.34764C23.8994 9.81806 24.3337 11.5909 24.7684 12.1157C25.1149 12.5338 25.6247 10.4969 25.9009 8.79889C25.7214 7.95224 25.6072 7.09387 25.6652 6.39282Z" fill="white"/>
<path fill-rule="evenodd" clip-rule="evenodd" d="M34.4019 -2.63585C34.4019 -1.71217 35.9562 -0.862778 35.9562 2.83171C35.9562 3.7873 36.9782 5.5706 36.9782 9.43512C36.9782 11.8369 36.6279 13.9493 36.1562 15.8156C35.3384 12.6636 34.2989 9.3703 31.9487 9.06789C29.5987 8.76548 26.9922 4.95232 26.9922 3.66714C26.9922 3.66714 31.5742 -2.53214 31.5742 -3.21275C31.5742 -3.89311 33.1624 -3.34414 34.4019 -2.63585Z" fill="white"/>
<path fill-rule="evenodd" clip-rule="evenodd" d="M34.328 10.85C34.1852 12.0023 34.05 13.7654 34.05 16.3116C34.05 18.6823 34.1252 20.4556 34.246 21.7782C33.9045 22.8442 33.671 23.7816 33.671 24.6088C33.671 24.6188 33.6712 24.6275 33.6712 24.6372C32.7467 22.4456 31.9855 19.0752 31.9855 15.8157C31.9855 10.8682 31.9492 9.06799 31.9492 9.06799C32.9532 9.19713 33.7175 9.87326 34.328 10.85Z" fill="white"/>
<path fill-rule="evenodd" clip-rule="evenodd" d="M28.3198 6.39282C29.2911 7.67651 30.6583 8.90185 31.9491 9.06789C31.9583 9.06914 31.9673 9.07138 31.9766 9.07288C31.9658 10.1938 31.9491 12.1743 31.9491 13.6467C31.9491 15.8156 30.0696 19.657 30.0696 20.9611C30.0696 22.2652 30.2401 22.4921 30.0696 22.8888C29.8988 23.2859 29.4631 25.2893 29.3303 26.0642C29.2946 26.2736 29.2321 26.4391 29.1603 26.5708C28.9641 25.694 28.0463 23.5948 28.0463 17.3339C28.0463 15.5756 27.7986 13.1184 27.5908 10.6742C27.9896 9.38601 28.4233 7.63961 28.3198 6.39282Z" fill="white"/>
<path fill-rule="evenodd" clip-rule="evenodd" d="M31.491 25.4405C31.491 24.023 32.1165 22.7188 32.4007 23.5695C32.685 24.4199 33.3675 25.4974 33.7702 26.2022C33.9955 27.6925 34.5287 27.7915 34.5767 30.484C34.574 30.6214 34.5747 30.7555 34.5802 30.8839C34.5802 30.9699 34.5775 31.0572 34.575 31.1442C34.458 32.8891 32.6502 36.4265 31.9855 36.1603C31.2857 35.88 30.9792 34.9663 31.093 33.2087C31.2067 31.4508 31.491 26.8581 31.491 25.4405Z" fill="white"/>
<path fill-rule="evenodd" clip-rule="evenodd" d="M29.1979 26.8391C29.1979 26.7641 29.1844 26.6758 29.1609 26.5704C29.2324 26.4387 29.2947 26.2734 29.3307 26.0643C29.4632 25.2894 29.8992 23.286 30.0697 22.8888C30.2402 22.4919 30.3802 21.5615 30.7342 22.2598C31.0894 22.9611 31.4884 23.7612 31.6602 24.1513C31.6604 24.1518 31.6604 24.1523 31.6607 24.1526C31.5597 24.5218 31.4912 24.974 31.4912 25.4405C31.4912 26.8581 31.2069 31.451 31.0932 33.2087C31.0932 33.2087 30.4457 35.7224 29.7839 35.5901C29.6094 35.5552 29.3742 35.519 29.1227 35.4846C29.1224 35.4689 29.1222 35.4577 29.1222 35.4577C29.1222 35.4577 28.3262 33.2324 28.3262 31.6398C28.3262 30.0474 29.1979 27.5399 29.1979 26.8391Z" fill="white"/>
<path fill-rule="evenodd" clip-rule="evenodd" d="M38.9397 -1.43598C39.1814 -0.654646 39.6604 0.927459 40.1062 2.4051C40.4634 3.60801 40.7592 4.61397 40.7592 4.61397C40.7592 4.61397 39.0239 1.85837 38.2574 0.775382C37.4909 -0.30761 36.1214 -4.38653 35.9829 -5.91528C36.6652 -5.12149 38.4159 -3.12803 38.9397 -1.43598Z" fill="white"/>
<path fill-rule="evenodd" clip-rule="evenodd" d="M31.9494 -4.95152C31.1501 -5.97219 27.5111 -10.348 27.6249 -10.5457C27.6251 -10.5462 27.6251 -10.5472 27.6254 -10.5477C27.3636 -10.1015 27.1426 -9.7856 26.9926 -9.6577C26.8426 -9.7856 26.6216 -10.1015 26.3601 -10.5477C26.3604 -10.5472 26.3601 -10.5462 26.3606 -10.5457C26.4741 -10.348 22.8351 -5.97219 22.0361 -4.95152C22.0361 -4.95152 22.4941 -4.04429 22.4109 -3.2126C22.4109 -2.53224 26.9926 3.66704 26.9926 3.66704C26.9926 3.66704 31.5746 -2.53224 31.5746 -3.2126C31.4911 -4.04429 31.9494 -4.95152 31.9494 -4.95152Z" fill="white"/>
<path fill-rule="evenodd" clip-rule="evenodd" d="M28.3197 6.39282C28.3237 6.39806 28.328 6.40329 28.332 6.40828C28.3582 6.44293 28.3855 6.47709 28.4122 6.51149C28.4585 6.57083 28.505 6.63016 28.553 6.689C28.5817 6.72465 28.6112 6.76005 28.6407 6.79545C28.6927 6.85803 28.746 6.92011 28.7995 6.98169C28.824 7.00961 28.8477 7.03753 28.8722 7.0652C29.0357 7.24845 29.206 7.4262 29.3815 7.59573C29.396 7.60969 29.4107 7.6234 29.4252 7.63737C29.5032 7.71141 29.582 7.78371 29.6617 7.85426C29.6752 7.86623 29.689 7.8782 29.7025 7.88991C29.892 8.0552 30.0857 8.20928 30.2832 8.34764C30.0855 9.81806 29.6512 11.5909 29.2165 12.1157C28.8702 12.5338 28.3602 10.4969 28.084 8.79889C28.2637 7.95224 28.3777 7.09387 28.3197 6.39282Z" fill="white"/>
<path fill-rule="evenodd" clip-rule="evenodd" d="M19.5831 -2.63585C19.5831 -1.71217 18.0288 -0.862778 18.0288 2.83171C18.0288 3.7873 17.0068 5.5706 17.0068 9.43512C17.0068 11.8369 17.3571 13.9493 17.8288 15.8156C18.6466 12.6636 19.6858 9.3703 22.0361 9.06789C24.3863 8.76548 26.9928 4.95232 26.9928 3.66714C26.9928 3.66714 22.4108 -2.53214 22.4108 -3.21275C22.4108 -3.89311 20.8226 -3.34414 19.5831 -2.63585Z" stroke="#353E82" stroke-width="0.5" stroke-linejoin="round"/>
<path fill-rule="evenodd" clip-rule="evenodd" d="M19.6572 10.85C19.8 12.0023 19.9352 13.7654 19.9352 16.3116C19.9352 18.6823 19.86 20.4556 19.7392 21.7782C20.0807 22.8442 20.3142 23.7816 20.3142 24.6088C20.3142 24.6188 20.314 24.6275 20.314 24.6372C21.2385 22.4456 21.9995 19.0752 21.9995 15.8157C21.9995 10.8682 22.036 9.06799 22.036 9.06799C21.032 9.19713 20.2677 9.87326 19.6572 10.85Z" stroke="#353E82" stroke-width="0.5" stroke-linejoin="round"/>
<path fill-rule="evenodd" clip-rule="evenodd" d="M25.6648 6.39282V6.39282C24.6938 7.67651 23.3266 8.90185 22.0356 9.06789C22.0263 9.06914 22.0176 9.07138 22.0083 9.07288C22.0191 10.1938 22.0356 12.1743 22.0356 13.6467C22.0356 15.8156 23.9151 19.657 23.9151 20.9611C23.9151 22.2652 23.7446 22.4921 23.9151 22.8888C24.0858 23.2859 24.5216 25.2893 24.6543 26.0642C24.6903 26.2736 24.7528 26.4391 24.8243 26.5708C25.0206 25.694 25.9383 23.5948 25.9383 17.3339C25.9383 15.5756 26.1861 13.1184 26.3941 10.6742C25.9951 9.38601 25.5616 7.63961 25.6648 6.39282Z" stroke="#353E82" stroke-width="0.5" stroke-linejoin="round"/>
<path fill-rule="evenodd" clip-rule="evenodd" d="M22.494 25.4405C22.494 24.023 21.8685 22.7188 21.5843 23.5695C21.3 24.4199 20.6178 25.4974 20.2148 26.2022C19.9895 27.6925 19.4565 27.7915 19.4085 30.484C19.411 30.6214 19.4105 30.7555 19.4048 30.8839C19.4048 30.9699 19.4075 31.0572 19.41 31.1442C19.5273 32.8891 21.3348 36.4265 21.9995 36.1603C22.6993 35.88 23.0058 34.9663 22.892 33.2087C22.7783 31.4508 22.494 26.8581 22.494 25.4405Z" fill="#059669" stroke="#353E82" stroke-width="0.564973" stroke-linejoin="round"/>
<path fill-rule="evenodd" clip-rule="evenodd" d="M24.787 26.8391C24.787 26.7641 24.8005 26.6758 24.824 26.5704C24.7525 26.4387 24.69 26.2734 24.6542 26.0643C24.5215 25.2894 24.0857 23.286 23.9152 22.8888C23.7445 22.4919 23.6045 21.5615 23.2505 22.2598C22.8955 22.9611 22.4965 23.7612 22.3247 24.1513C22.3245 24.1518 22.3242 24.1523 22.3242 24.1526C22.4252 24.5218 22.4937 24.974 22.4937 25.4405C22.4937 26.8581 22.778 31.451 22.8917 33.2087C22.8917 33.2087 23.5392 35.7224 24.201 35.5901C24.3755 35.5552 24.6107 35.519 24.8622 35.4846C24.8625 35.4689 24.8627 35.4577 24.8627 35.4577C24.8627 35.4577 25.6587 33.2324 25.6587 31.6398C25.6587 30.0474 24.787 27.5399 24.787 26.8391Z" fill="#059669" stroke="#353E82" stroke-width="0.564973" stroke-linejoin="round"/>
<path fill-rule="evenodd" clip-rule="evenodd" d="M11.4827 3.37182C11.2417 2.83157 11.4175 -0.723558 11.6597 -1.72677C11.9022 -2.73023 13.543 -5.40505 14.2942 -5.80195C15.0452 -6.19885 15.3865 -2.45649 15.0452 -1.43608C14.7042 -0.415414 13.2257 4.61387 13.2257 4.61387C13.2257 4.61387 11.7237 3.91207 11.4827 3.37182Z" stroke="#353E82" stroke-width="0.5" stroke-linejoin="round"/>
<path fill-rule="evenodd" clip-rule="evenodd" d="M42.5022 3.37182C42.7432 2.83157 42.5675 -0.723558 42.3252 -1.72677C42.0827 -2.73023 40.442 -5.40505 39.6907 -5.80195C38.9397 -6.19885 38.5985 -2.45649 38.9397 -1.43608C39.2807 -0.415414 40.759 4.61387 40.759 4.61387C40.759 4.61387 42.2612 3.91207 42.5022 3.37182Z" stroke="#353E82" stroke-width="0.5" stroke-linejoin="round"/>
<path fill-rule="evenodd" clip-rule="evenodd" d="M15.0456 -1.43598C14.8036 -0.654646 14.3248 0.927459 13.8788 2.4051C13.5218 3.60801 13.2261 4.61397 13.2261 4.61397C13.2261 4.61397 14.9613 1.85837 15.7278 0.775382C16.4943 -0.30761 17.8638 -4.38653 18.0023 -5.91528C17.3198 -5.12149 15.5693 -3.12803 15.0456 -1.43598Z" stroke="#353E82" stroke-width="0.5" stroke-linejoin="round"/>
<path fill-rule="evenodd" clip-rule="evenodd" d="M25.6652 6.39282V6.39282C25.6612 6.39806 25.6569 6.40329 25.6529 6.40828C25.6269 6.44293 25.5997 6.47709 25.5729 6.51149C25.5267 6.57083 25.4799 6.63016 25.4319 6.689C25.4032 6.72465 25.3739 6.76005 25.3444 6.79545C25.2922 6.85803 25.2392 6.92011 25.1854 6.98169C25.1609 7.00961 25.1372 7.03753 25.1127 7.0652C24.9494 7.24845 24.7792 7.4262 24.6034 7.59573C24.5889 7.60969 24.5742 7.6234 24.5597 7.63737C24.4817 7.71141 24.4029 7.78371 24.3232 7.85426C24.3097 7.86623 24.2962 7.8782 24.2824 7.88991C24.0929 8.0552 23.8992 8.20928 23.7017 8.34764C23.8994 9.81806 24.3337 11.5909 24.7684 12.1157C25.1149 12.5338 25.6247 10.4969 25.9009 8.79889C25.7214 7.95224 25.6072 7.09387 25.6652 6.39282Z" stroke="#353E82" stroke-width="0.5" stroke-linejoin="round"/>
<path fill-rule="evenodd" clip-rule="evenodd" d="M34.4019 -2.63585C34.4019 -1.71217 35.9562 -0.862778 35.9562 2.83171C35.9562 3.7873 36.9782 5.5706 36.9782 9.43512C36.9782 11.8369 36.6279 13.9493 36.1562 15.8156C35.3384 12.6636 34.2989 9.3703 31.9487 9.06789C29.5987 8.76548 26.9922 4.95232 26.9922 3.66714C26.9922 3.66714 31.5742 -2.53214 31.5742 -3.21275C31.5742 -3.89311 33.1624 -3.34414 34.4019 -2.63585Z" stroke="#353E82" stroke-width="0.5" stroke-linejoin="round"/>
<path fill-rule="evenodd" clip-rule="evenodd" d="M34.328 10.85C34.1852 12.0023 34.05 13.7654 34.05 16.3116C34.05 18.6823 34.1252 20.4556 34.246 21.7782C33.9045 22.8442 33.671 23.7816 33.671 24.6088C33.671 24.6188 33.6712 24.6275 33.6712 24.6372C32.7467 22.4456 31.9855 19.0752 31.9855 15.8157C31.9855 10.8682 31.9492 9.06799 31.9492 9.06799C32.9532 9.19713 33.7175 9.87326 34.328 10.85Z" stroke="#353E82" stroke-width="0.5" stroke-linejoin="round"/>
<path fill-rule="evenodd" clip-rule="evenodd" d="M28.3198 6.39282V6.39282C29.2911 7.67651 30.6583 8.90185 31.9491 9.06789C31.9583 9.06914 31.9673 9.07138 31.9766 9.07288C31.9658 10.1938 31.9491 12.1743 31.9491 13.6467C31.9491 15.8156 30.0696 19.657 30.0696 20.9611C30.0696 22.2652 30.2401 22.4921 30.0696 22.8888C29.8988 23.2859 29.4631 25.2893 29.3303 26.0642C29.2946 26.2736 29.2321 26.4391 29.1603 26.5708C28.9641 25.694 28.0463 23.5948 28.0463 17.3339C28.0463 15.5756 27.7986 13.1184 27.5908 10.6742C27.9896 9.38601 28.4233 7.63961 28.3198 6.39282Z" stroke="#353E82" stroke-width="0.5" stroke-linejoin="round"/>
<path fill-rule="evenodd" clip-rule="evenodd" d="M31.491 25.4405C31.491 24.023 32.1165 22.7188 32.4007 23.5695C32.685 24.4199 33.3675 25.4974 33.7702 26.2022C33.9955 27.6925 34.5287 27.7915 34.5767 30.484C34.574 30.6214 34.5747 30.7555 34.5802 30.8839C34.5802 30.9699 34.5775 31.0572 34.575 31.1442C34.458 32.8891 32.6502 36.4265 31.9855 36.1603C31.2857 35.88 30.9792 34.9663 31.093 33.2087C31.2067 31.4508 31.491 26.8581 31.491 25.4405Z" fill="#059669" stroke="#353E82" stroke-width="0.564973" stroke-linejoin="round"/>
<path fill-rule="evenodd" clip-rule="evenodd" d="M29.1979 26.8391C29.1979 26.7641 29.1844 26.6758 29.1609 26.5704C29.2324 26.4387 29.2947 26.2734 29.3307 26.0643C29.4632 25.2894 29.8992 23.286 30.0697 22.8888C30.2402 22.4919 30.3802 21.5615 30.7342 22.2598C31.0894 22.9611 31.4884 23.7612 31.6602 24.1513C31.6604 24.1518 31.6604 24.1523 31.6607 24.1526C31.5597 24.5218 31.4912 24.974 31.4912 25.4405C31.4912 26.8581 31.2069 31.451 31.0932 33.2087C31.0932 33.2087 30.4457 35.7224 29.7839 35.5901C29.6094 35.5552 29.3742 35.519 29.1227 35.4846C29.1224 35.4689 29.1222 35.4577 29.1222 35.4577C29.1222 35.4577 28.3262 33.2324 28.3262 31.6398C28.3262 30.0474 29.1979 27.5399 29.1979 26.8391Z" fill="#059669" stroke="#353E82" stroke-width="0.564973" stroke-linejoin="round"/>
<path fill-rule="evenodd" clip-rule="evenodd" d="M38.9397 -1.43598C39.1814 -0.654646 39.6604 0.927459 40.1062 2.4051C40.4634 3.60801 40.7592 4.61397 40.7592 4.61397C40.7592 4.61397 39.0239 1.85837 38.2574 0.775382C37.4909 -0.30761 36.1214 -4.38653 35.9829 -5.91528C36.6652 -5.12149 38.4159 -3.12803 38.9397 -1.43598Z" stroke="#353E82" stroke-width="0.5" stroke-linejoin="round"/>
<path fill-rule="evenodd" clip-rule="evenodd" d="M31.9494 -4.95152C31.1501 -5.97219 27.5111 -10.348 27.6249 -10.5457C27.6251 -10.5462 27.6251 -10.5472 27.6254 -10.5477C27.3636 -10.1015 27.1426 -9.7856 26.9926 -9.6577C26.8426 -9.7856 26.6216 -10.1015 26.3601 -10.5477C26.3604 -10.5472 26.3601 -10.5462 26.3606 -10.5457C26.4741 -10.348 22.8351 -5.97219 22.0361 -4.95152C22.0361 -4.95152 22.4941 -4.04429 22.4109 -3.2126C22.4109 -2.53224 26.9926 3.66704 26.9926 3.66704C26.9926 3.66704 31.5746 -2.53224 31.5746 -3.2126C31.4911 -4.04429 31.9494 -4.95152 31.9494 -4.95152Z" stroke="#353E82" stroke-width="0.5" stroke-linejoin="round"/>
<path fill-rule="evenodd" clip-rule="evenodd" d="M28.3197 6.39282V6.39282C28.3237 6.39806 28.328 6.40329 28.332 6.40828C28.3582 6.44293 28.3855 6.47709 28.4122 6.51149C28.4585 6.57083 28.505 6.63016 28.553 6.689C28.5817 6.72465 28.6112 6.76005 28.6407 6.79545C28.6927 6.85803 28.746 6.92011 28.7995 6.98169C28.824 7.00961 28.8477 7.03753 28.8722 7.0652C29.0357 7.24845 29.206 7.4262 29.3815 7.59573C29.396 7.60969 29.4107 7.6234 29.4252 7.63737C29.5032 7.71141 29.582 7.78371 29.6617 7.85426C29.6752 7.86623 29.689 7.8782 29.7025 7.88991C29.892 8.0552 30.0857 8.20928 30.2832 8.34764C30.0855 9.81806 29.6512 11.5909 29.2165 12.1157C28.8702 12.5338 28.3602 10.4969 28.084 8.79889C28.2637 7.95224 28.3777 7.09387 28.3197 6.39282Z" stroke="#353E82" stroke-width="0.5" stroke-linejoin="round"/>
<path fill-rule="evenodd" clip-rule="evenodd" d="M44.8299 7.3882C44.2237 5.88387 43.4342 4.87991 43.3179 3.44016C43.2017 2.00041 42.1942 -2.33255 41.8179 -3.78377C41.4414 -5.23499 39.5652 -8.17358 39.5652 -8.69388C39.5652 -13.2485 39.0332 -15.9767 39.0332 -16.7134C39.0332 -17.1913 39.2569 -16.9365 39.2569 -19.6968C39.2569 -21.6821 37.6927 -23.7331 35.6897 -24.7283C35.6852 -24.7306 35.6809 -24.7323 35.6764 -24.7346C35.5882 -24.7782 35.4992 -24.8196 35.4094 -24.859C35.3797 -24.8719 35.3494 -24.8839 35.3194 -24.8964C35.2542 -24.9238 35.1889 -24.9507 35.1229 -24.9759C35.0867 -24.9899 35.0502 -25.0023 35.0137 -25.0155C34.9534 -25.0372 34.8929 -25.0582 34.8319 -25.0781C34.7929 -25.0906 34.7534 -25.1026 34.7142 -25.1143C34.6552 -25.132 34.5959 -25.1489 34.5364 -25.1649C34.4962 -25.1756 34.4557 -25.1858 34.4152 -25.1955C34.3557 -25.21 34.2959 -25.2232 34.2362 -25.2354C34.1957 -25.2439 34.1554 -25.2521 34.1149 -25.2596C34.0537 -25.2708 33.9919 -25.2803 33.9302 -25.2893C33.8914 -25.295 33.8527 -25.3015 33.8137 -25.3062C33.7464 -25.3145 33.6787 -25.3204 33.6112 -25.3259C33.5779 -25.3287 33.5449 -25.3327 33.5119 -25.3347C33.4114 -25.3409 33.3107 -25.3446 33.2099 -25.3446V-25.3446L29.5579 -27.4904L29.7257 -29.0977C29.7257 -29.0977 28.9084 -31.6222 26.9924 -31.6222C25.0767 -31.6222 24.2592 -29.0977 24.2592 -29.0977L24.4272 -27.4904L20.7752 -25.3446V-25.3446C20.6744 -25.3446 20.5737 -25.3409 20.4732 -25.3347C20.4399 -25.3327 20.4069 -25.3287 20.3739 -25.3259C20.3062 -25.3204 20.2387 -25.3145 20.1712 -25.3062C20.1324 -25.3015 20.0937 -25.295 20.0547 -25.2893C19.9932 -25.2803 19.9314 -25.2708 19.8699 -25.2596C19.8297 -25.2521 19.7892 -25.2439 19.7487 -25.2354C19.6892 -25.2232 19.6294 -25.21 19.5699 -25.1955C19.5294 -25.1858 19.4889 -25.1756 19.4487 -25.1649C19.3892 -25.1489 19.3299 -25.132 19.2709 -25.1143C19.2314 -25.1026 19.1922 -25.0906 19.1529 -25.0781C19.0922 -25.0582 19.0317 -25.0372 18.9712 -25.0155C18.9347 -25.0023 18.8982 -24.9899 18.8619 -24.9759C18.7962 -24.9507 18.7309 -24.9238 18.6654 -24.8964C18.6357 -24.8839 18.6054 -24.8719 18.5757 -24.859C18.4859 -24.8196 18.3969 -24.7782 18.3087 -24.7346C18.3042 -24.7323 18.2997 -24.7306 18.2952 -24.7283H18.2954C16.2922 -23.7331 14.7282 -21.6821 14.7282 -19.6968C14.7282 -16.9365 14.9517 -17.1913 14.9517 -16.7134C14.9517 -15.9767 14.4199 -13.2485 14.4199 -8.69388C14.4199 -8.17358 12.5434 -5.23499 12.1672 -3.78377C11.7909 -2.33255 10.7834 2.00041 10.6672 3.44016C10.5509 4.87991 9.76142 5.88387 9.15517 7.3882C8.35842 9.3647 10.8802 10.446 11.0622 10.5192C11.2977 10.614 11.5617 10.6112 11.6414 10.4273C11.9694 9.67036 10.2382 8.66614 10.5487 8.11767C10.8634 7.56171 11.4007 6.9377 11.8404 7.1147C12.2802 7.29171 12.0694 8.68409 12.5094 8.8611C12.9492 9.03811 13.1377 8.92044 13.2724 8.58786C13.4072 8.25529 13.3444 5.65626 12.6772 5.38775C13.0124 4.92977 13.2257 4.6139 13.2257 4.6139C13.2257 4.6139 14.9612 1.85806 15.7277 0.775314C16.4942 -0.307677 17.8637 -4.3866 18.0019 -5.9156C18.3959 -6.48876 17.9444 -7.07563 18.1157 -7.55978C18.7982 -9.48768 18.7649 -11.6716 19.0684 -11.6716C19.3559 -11.6716 20.0619 -9.16507 20.0619 -6.80812C20.0619 -5.02457 19.5829 -5.75704 19.5829 -2.63596C19.5829 -1.71228 18.0284 -0.862884 18.0284 2.8316C18.0284 3.7872 17.0067 5.57075 17.0067 9.43526C17.0067 16.8245 20.3142 21.4875 20.3142 24.6089C20.3142 27.9531 19.4044 26.9982 19.4044 30.8837C19.4044 34.7694 22.0579 39.857 22.0579 42.5642C22.0579 48.0076 18.6464 45.0969 18.6464 46.7601C18.6464 47.1213 19.5942 47.6297 19.5942 47.6297L22.1624 48.6359L23.8774 48.8014C24.6387 48.8014 25.3559 48.5369 25.3559 47.2138C25.3559 46.7893 25.3179 45.72 25.3179 45.2104C25.3179 44.7008 24.7492 43.2329 24.7492 41.6194C24.7492 40.0056 24.8629 35.4577 24.8629 35.4577C24.8629 35.4577 25.6589 33.2324 25.6589 31.6398C25.6589 30.0473 24.7872 27.5397 24.7872 26.8392C24.7872 26.1384 25.9387 24.3441 25.9387 17.3338C25.9387 14.3082 26.6732 9.21213 26.6732 5.67695H26.9924H27.3119C27.3119 9.21213 28.0464 14.3082 28.0464 17.3338C28.0464 24.3441 29.1979 26.1384 29.1979 26.8392C29.1979 27.5397 28.3259 30.0473 28.3259 31.6398C28.3259 33.2324 29.1219 35.4577 29.1219 35.4577C29.1219 35.4577 29.2357 40.0056 29.2357 41.6194C29.2357 43.2329 28.6672 44.7008 28.6672 45.2104C28.6672 45.72 28.6292 46.7893 28.6292 47.2138C28.6292 48.5369 29.3462 48.8014 30.1074 48.8014L31.8227 48.6359L34.3909 47.6297C34.3909 47.6297 35.3387 47.1213 35.3387 46.7601C35.3387 45.0969 31.9269 48.0076 31.9269 42.5642C31.9269 39.857 34.5804 34.7694 34.5804 30.8837C34.5804 26.9982 33.6707 27.9531 33.6707 24.6089C33.6707 21.4875 36.9784 16.8245 36.9784 9.43526C36.9784 5.57075 35.9564 3.7872 35.9564 2.8316C35.9564 -0.862884 34.4022 -1.71228 34.4022 -2.63596C34.4022 -5.75704 33.9232 -5.02457 33.9232 -6.80812C33.9232 -9.16507 34.6292 -11.6716 34.9167 -11.6716C35.2202 -11.6716 35.1869 -9.48768 35.8692 -7.55978C36.0407 -7.07563 35.5892 -6.48876 35.9829 -5.9156C36.1214 -4.3866 37.4909 -0.307677 38.2572 0.775314C39.0239 1.85806 40.7592 4.6139 40.7592 4.6139C40.7592 4.6139 40.9724 4.92977 41.3079 5.38775C40.6407 5.65626 40.5779 8.25529 40.7127 8.58786C40.8472 8.92044 41.0359 9.03811 41.4757 8.8611C41.9154 8.68409 41.7047 7.29171 42.1444 7.1147C42.5844 6.9377 43.1217 7.56171 43.4364 8.11767C43.7469 8.66614 42.0157 9.67036 42.3437 10.4273C42.4234 10.6112 42.6874 10.614 42.9229 10.5192C43.1049 10.446 45.6264 9.3647 44.8299 7.3882Z" stroke="#353E82" stroke-width="0.5" stroke-linejoin="round"/>
</g>
<rect width="53" height="53" rx="6" fill="url(#paint0_linear_51_16531)"/>
</g>
<defs>
<linearGradient id="paint0_linear_51_16531" x1="16.0448" y1="32.0897" x2="16.0448" y2="53" gradientUnits="userSpaceOnUse">
<stop offset="0.581731" stop-color="#F6F6F8" stop-opacity="0.01"/>
<stop offset="1" stop-color="#F6F6F8"/>
</linearGradient>
<clipPath id="clip0_51_16531">
<rect width="53" height="53" fill="white"/>
</clipPath>
</defs>
</svg>
