<svg width="53" height="53" viewBox="0 0 53 53" fill="none" xmlns="http://www.w3.org/2000/svg">
<g clip-path="url(#clip0_74_2359)">
<mask id="mask0_74_2359" style="mask-type:luminance" maskUnits="userSpaceOnUse" x="0" y="0" width="53" height="53">
<rect width="53" height="53" rx="6" fill="white"/>
</mask>
<g mask="url(#mask0_74_2359)">
<path fill-rule="evenodd" clip-rule="evenodd" d="M38.9604 24.3184C38.7824 23.9484 38.4698 22.7878 38.3804 21.8239C38.1418 19.2547 37.9345 15.4212 37.719 14.6943C37.4228 13.6945 36.7914 12.6613 36.7914 12.3028C36.7914 9.16558 35.987 8.3787 35.987 7.87116C35.987 7.54205 36.1628 7.71754 36.1628 5.81621C36.1628 3.91488 33.7829 1.92572 31.4027 1.92572L29.0896 0.667806V-1.14569H29.0683C28.4871 -0.580114 27.4488 0.280307 26.5085 0.280307C25.5683 0.280307 24.53 -0.580114 23.9488 -1.14569H23.9275V0.667806L21.6144 1.92572C19.2342 1.92572 16.8543 3.91488 16.8543 5.81621C16.8543 7.71754 17.0303 7.54205 17.0303 7.87116C17.0303 8.3787 16.2257 9.16558 16.2257 12.3028C16.2257 12.6613 15.5941 13.6945 15.2979 14.6943C15.0825 15.4212 14.8755 19.2547 14.6369 21.8239C14.5473 22.7878 14.2349 23.9484 14.0567 24.3184C13.6406 25.1824 15.6474 26.5059 15.7816 26.5529C15.9549 26.6141 16.0139 26.3105 16.0727 26.192C16.3141 25.7044 15.4157 25.1249 15.4735 24.7865C15.5432 24.3797 15.6255 23.6653 15.9492 23.7793C16.273 23.8933 16.3826 24.541 16.7062 24.6551C17.0299 24.7691 17.1688 24.6933 17.2679 24.479C17.3259 24.3535 16.9581 23.5675 16.6279 22.8295C16.3946 22.308 16.4345 21.9341 16.4345 21.9341C16.4345 21.9341 19.0094 16.7127 19.1182 15.6596C19.4681 15.1746 19.3055 14.9317 19.3503 14.5801C19.5297 13.1684 19.5318 10.438 19.7707 10.438C19.997 10.438 20.0221 11.2937 20.0221 11.8202C20.0221 13.027 21.0529 13.0707 21.0529 14.6943C21.0529 15.9227 20.6757 15.4183 20.6757 17.5683C20.6757 18.2045 19.4521 18.7895 19.4521 21.3344C19.4521 21.9927 18.6477 23.2211 18.6477 25.8832C18.6477 30.973 20.1981 33.4521 20.1981 35.6023C20.1981 37.9058 19.7203 37.7084 19.7203 40.3849C19.7203 43.0616 21.6312 46.484 21.6312 48.3488C21.6312 52.4515 20.0724 51.3984 20.0724 52.3418C20.0724 52.5905 20.374 52.7513 20.374 52.7513L23.0391 53H24.4134L24.8326 52.5612C24.8326 52.5612 24.4637 52.0055 24.4637 51.7128C24.4637 51.4204 24.648 50.85 24.648 50.4989C24.648 50.1479 24.1286 48.9192 24.1286 47.8077C24.1286 46.6962 24.095 43.5003 24.095 43.5003C24.095 43.5003 24.2207 42.4473 24.2207 41.3502C24.2207 40.2534 23.4414 39.7048 23.4414 39.2223C23.4414 38.7395 25.6788 35.2293 25.6788 31.3242C25.6788 29.2399 26.2571 25.7295 26.2571 23.2943H26.5085H26.76C26.76 25.7295 27.3383 29.2399 27.3383 31.3242C27.3383 35.2293 29.5759 38.7395 29.5759 39.2223C29.5759 39.7048 28.7964 40.2534 28.7964 41.3502C28.7964 42.4473 28.9221 43.5003 28.9221 43.5003C28.9221 43.5003 28.8887 46.6962 28.8887 47.8077C28.8887 48.9192 28.3691 50.1479 28.3691 50.4989C28.3691 50.85 28.5534 51.4204 28.5534 51.7128C28.5534 52.0055 28.1847 52.5612 28.1847 52.5612L28.6037 53H29.9781L32.6431 52.7513C32.6431 52.7513 32.9449 52.5905 32.9449 52.3418C32.9449 51.3984 31.3861 52.4515 31.3861 48.3488C31.3861 46.484 33.2968 43.0616 33.2968 40.3849C33.2968 37.7084 32.819 37.9058 32.819 35.6023C32.819 33.4521 34.3694 30.973 34.3694 25.8832C34.3694 23.2211 33.565 21.9927 33.565 21.3344C33.565 18.7895 32.3413 18.2045 32.3413 17.5683C32.3413 15.4183 31.9642 15.9227 31.9642 14.6943C31.9642 13.0707 32.995 13.027 32.995 11.8202C32.995 11.2937 33.0203 10.438 33.2464 10.438C33.4852 10.438 33.4874 13.1684 33.6668 14.5801C33.7116 14.9317 33.549 15.1746 33.8989 15.6596C34.0079 16.7127 36.5828 21.9341 36.5828 21.9341C36.5828 21.9341 36.6225 22.308 36.3894 22.8295C36.0592 23.5675 35.6911 24.3535 35.7492 24.479C35.8482 24.6933 35.9872 24.7691 36.3109 24.6551C36.6347 24.541 36.7443 23.8933 37.0679 23.7793C37.3916 23.6653 37.4741 24.3797 37.5436 24.7865C37.6016 25.1249 36.703 25.7044 36.9444 26.192C37.0032 26.3105 37.0624 26.6141 37.2357 26.5529C37.3695 26.5059 39.3765 25.1824 38.9604 24.3184Z" fill="#D8EBE0"/>
<path d="M38.9604 24.3184C38.7824 23.9484 38.4698 22.7878 38.3804 21.8239C38.1418 19.2547 37.9345 15.4212 37.719 14.6943C37.4228 13.6945 36.7914 12.6613 36.7914 12.3028C36.7914 9.16558 35.987 8.3787 35.987 7.87116C35.987 7.54205 36.1628 7.71754 36.1628 5.81621C36.1628 3.91488 33.7829 1.92572 31.4027 1.92572L29.0896 0.667806V-1.14569H29.0683C28.4871 -0.580114 27.4488 0.280307 26.5085 0.280307C25.5683 0.280307 24.53 -0.580114 23.9488 -1.14569H23.9275V0.667806L21.6144 1.92572C19.2342 1.92572 16.8543 3.91488 16.8543 5.81621C16.8543 7.71754 17.0303 7.54205 17.0303 7.87116C17.0303 8.3787 16.2257 9.16558 16.2257 12.3028C16.2257 12.6613 15.5941 13.6945 15.2979 14.6943C15.0825 15.4212 14.8755 19.2547 14.6369 21.8239C14.5473 22.7878 14.2349 23.9484 14.0567 24.3184C13.6406 25.1824 15.6474 26.5059 15.7816 26.5529C15.9549 26.6141 16.0139 26.3105 16.0727 26.192C16.3141 25.7044 15.4157 25.1249 15.4735 24.7865C15.5432 24.3797 15.6255 23.6653 15.9492 23.7793C16.273 23.8933 16.3826 24.541 16.7062 24.6551C17.0299 24.7691 17.1688 24.6933 17.2679 24.479C17.3259 24.3535 16.9581 23.5675 16.6279 22.8295C16.3946 22.308 16.4345 21.9341 16.4345 21.9341C16.4345 21.9341 19.0094 16.7127 19.1182 15.6596C19.4681 15.1746 19.3055 14.9317 19.3503 14.5801C19.5297 13.1684 19.5318 10.438 19.7707 10.438C19.997 10.438 20.0221 11.2937 20.0221 11.8202C20.0221 13.027 21.0529 13.0707 21.0529 14.6943C21.0529 15.9227 20.6758 15.4183 20.6758 17.5683C20.6758 18.2045 19.4521 18.7895 19.4521 21.3344C19.4521 21.9927 18.6477 23.2211 18.6477 25.8832C18.6477 30.973 20.1981 33.4521 20.1981 35.6023C20.1981 37.9058 19.7203 37.7084 19.7203 40.3849C19.7203 43.0616 21.6312 46.484 21.6312 48.3488C21.6312 52.4515 20.0724 51.3984 20.0724 52.3418C20.0724 52.5905 20.374 52.7513 20.374 52.7513L23.0391 53H24.4134L24.8326 52.5612C24.8326 52.5612 24.4637 52.0055 24.4637 51.7128C24.4637 51.4204 24.648 50.85 24.648 50.4989C24.648 50.1479 24.1286 48.9192 24.1286 47.8077C24.1286 46.6962 24.095 43.5003 24.095 43.5003C24.095 43.5003 24.2207 42.4473 24.2207 41.3502C24.2207 40.2534 23.4414 39.7048 23.4414 39.2223C23.4414 38.7395 25.6788 35.2293 25.6788 31.3242C25.6788 29.2399 26.2571 25.7295 26.2571 23.2943H26.5085H26.76C26.76 25.7295 27.3383 29.2399 27.3383 31.3242C27.3383 35.2293 29.5759 38.7395 29.5759 39.2223C29.5759 39.7048 28.7964 40.2534 28.7964 41.3502C28.7964 42.4473 28.9221 43.5003 28.9221 43.5003C28.9221 43.5003 28.8887 46.6962 28.8887 47.8077C28.8887 48.9192 28.3691 50.1479 28.3691 50.4989C28.3691 50.85 28.5534 51.4204 28.5534 51.7128C28.5534 52.0055 28.1847 52.5612 28.1847 52.5612L28.6037 53H29.9781L32.6431 52.7513C32.6431 52.7513 32.9449 52.5905 32.9449 52.3418C32.9449 51.3984 31.3861 52.4515 31.3861 48.3488C31.3861 46.484 33.2968 43.0616 33.2968 40.3849C33.2968 37.7084 32.819 37.9058 32.819 35.6023C32.819 33.4521 34.3694 30.973 34.3694 25.8832C34.3694 23.2211 33.565 21.9927 33.565 21.3344C33.565 18.7895 32.3413 18.2045 32.3413 17.5683C32.3413 15.4183 31.9642 15.9227 31.9642 14.6943C31.9642 13.0707 32.995 13.027 32.995 11.8202C32.995 11.2937 33.0203 10.438 33.2464 10.438C33.4852 10.438 33.4874 13.1684 33.6668 14.5801C33.7116 14.9317 33.549 15.1746 33.8989 15.6596C34.0079 16.7127 36.5828 21.9341 36.5828 21.9341C36.5828 21.9341 36.6225 22.308 36.3894 22.8295C36.0592 23.5675 35.6911 24.3535 35.7492 24.479C35.8482 24.6933 35.9872 24.7691 36.3109 24.6551C36.6347 24.541 36.7443 23.8933 37.0679 23.7793C37.3916 23.6653 37.4741 24.3797 37.5436 24.7865C37.6016 25.1249 36.703 25.7044 36.9444 26.192C37.0032 26.3105 37.0624 26.6141 37.2357 26.5529C37.3695 26.5059 39.3765 25.1824 38.9604 24.3184" stroke="#353E82" stroke-width="0.28"/>
<path fill-rule="evenodd" clip-rule="evenodd" d="M16.8545 5.81621C16.8545 7.71754 17.0305 7.54205 17.0305 7.87117C18.1367 7.6738 18.8658 6.84007 20.1984 4.88742C21.5308 2.93494 22.6622 3.24201 22.6622 2.78132C22.6622 2.43016 21.8828 2.27671 21.6146 1.92572C19.2347 1.92572 16.8545 3.91471 16.8545 5.81621Z" fill="#D8EBE0"/>
<path d="M16.8545 5.81621C16.8545 7.71754 17.0305 7.54205 17.0305 7.87117C18.1367 7.6738 18.8658 6.84007 20.1984 4.88742C21.5308 2.93494 22.6622 3.24201 22.6622 2.78132C22.6622 2.43016 21.8828 2.27671 21.6146 1.92572C19.2347 1.92572 16.8545 3.91471 16.8545 5.81621" stroke="#353E82" stroke-width="0.28"/>
<path fill-rule="evenodd" clip-rule="evenodd" d="M25.4523 4.00988C25.3047 3.75534 23.1896 2.78125 22.6617 2.78125C22.6617 3.24194 21.5302 2.93487 20.1978 4.88735C19.703 5.61258 19.2913 6.18315 18.9126 6.62438H18.9128C19.5134 6.91337 19.3178 7.14708 19.871 7.56403C20.424 7.9808 22.2594 8.61699 23.3907 8.61699C24.5222 8.61699 26.0949 8.02472 26.0949 8.02472V6.53276C26.0949 4.9094 25.6817 4.40479 25.4523 4.00988Z" fill="#D8EBE0"/>
<path d="M25.4523 4.00988C25.3047 3.75534 23.1896 2.78125 22.6617 2.78125C22.6617 3.24194 21.5302 2.93487 20.1978 4.88735C19.703 5.61258 19.2913 6.18315 18.9126 6.62438H18.9128C19.5134 6.91337 19.3178 7.14708 19.871 7.56403C20.424 7.9808 22.2594 8.61699 23.3907 8.61699C24.5222 8.61699 26.0949 8.02472 26.0949 8.02472V6.53276C26.0949 4.9094 25.6817 4.40479 25.4523 4.00988" stroke="#353E82" stroke-width="0.28"/>
<path fill-rule="evenodd" clip-rule="evenodd" d="M23.8271 11.3539V9.87537C23.8271 9.36335 24.0618 8.98309 24.4976 8.98309C24.9334 8.98309 25.8217 8.66138 25.9223 8.66138C26.0228 8.66138 26.2241 8.69065 26.2241 8.87355V10.8624C26.2241 11.1512 25.8302 11.1694 25.2854 11.1694C24.9669 11.1694 24.288 11.4197 24.1457 11.544C24.0032 11.6684 23.8271 11.5001 23.8271 11.3539Z" fill="#D8EBE0"/>
<path d="M23.8271 11.3539V9.87537C23.8271 9.36335 24.0618 8.98309 24.4976 8.98309C24.9334 8.98309 25.8217 8.66138 25.9223 8.66138C26.0228 8.66138 26.2241 8.69065 26.2241 8.87355V10.8624C26.2241 11.1512 25.8302 11.1694 25.2854 11.1694C24.9669 11.1694 24.288 11.4197 24.1457 11.544C24.0032 11.6684 23.8271 11.5001 23.8271 11.3539" stroke="#353E82" stroke-width="0.28"/>
<path fill-rule="evenodd" clip-rule="evenodd" d="M26.2231 12.1621C26.2231 11.9427 26.1059 11.7672 25.8041 11.7672H25.033C24.7312 11.7672 23.8765 12.2205 23.8765 12.63V13.5828C23.8765 13.7729 23.9771 13.8752 24.2453 13.8752H25.4186C25.5694 13.8752 26.2231 13.6119 26.2231 13.2463V12.1621Z" fill="#D8EBE0" stroke="#353E82" stroke-width="0.28"/>
<path fill-rule="evenodd" clip-rule="evenodd" d="M23.8062 15.868V14.78C23.8062 14.5935 23.9192 14.3302 24.2461 14.3302H25.6037C25.8048 14.3302 26.2072 14.5496 26.2072 14.7911V15.868C26.2072 16.0324 26.1192 16.3176 25.9055 16.3176H24.4975C24.2711 16.3176 23.8062 16.1311 23.8062 15.868Z" fill="#D8EBE0"/>
<path d="M23.8062 15.868V14.78C23.8062 14.5935 23.9192 14.3302 24.2461 14.3302H25.6037C25.8048 14.3302 26.2072 14.5496 26.2072 14.7911V15.868C26.2072 16.0324 26.1192 16.3176 25.9055 16.3176H24.4975C24.2711 16.3176 23.8062 16.1311 23.8062 15.868" stroke="#353E82" stroke-width="0.28"/>
<path fill-rule="evenodd" clip-rule="evenodd" d="M25.8376 16.844H24.4464C24.1782 16.844 23.8765 17.0341 23.8765 17.2535C23.8765 17.4729 25.1169 22.2998 26.0891 22.2998H26.2063C26.2568 21.1602 26.2063 17.4485 26.2063 17.2535C26.2063 17.0195 26.156 16.844 25.8376 16.844Z" fill="#D8EBE0"/>
<path d="M25.8376 16.844H24.4464C24.1782 16.844 23.8765 17.0341 23.8765 17.2535C23.8765 17.4729 25.1169 22.2998 26.0891 22.2998H26.2063C26.2568 21.1602 26.2063 17.4485 26.2063 17.2535C26.2063 17.0195 26.156 16.844 25.8376 16.844" stroke="#353E82" stroke-width="0.28"/>
<path fill-rule="evenodd" clip-rule="evenodd" d="M29.1902 11.3539V9.87537C29.1902 9.36335 28.9555 8.98309 28.5198 8.98309C28.084 8.98309 27.1957 8.66138 27.095 8.66138C26.9946 8.66138 26.7935 8.69065 26.7935 8.87355V10.8624C26.7935 11.1512 27.1874 11.1694 27.7321 11.1694C28.0504 11.1694 28.7294 11.4197 28.8719 11.544C29.0142 11.6684 29.1902 11.5001 29.1902 11.3539Z" fill="#D8EBE0"/>
<path d="M29.1902 11.3539V9.87537C29.1902 9.36335 28.9555 8.98309 28.5198 8.98309C28.084 8.98309 27.1957 8.66138 27.095 8.66138C26.9946 8.66138 26.7935 8.69065 26.7935 8.87355V10.8624C26.7935 11.1512 27.1874 11.1694 27.7321 11.1694C28.0504 11.1694 28.7294 11.4197 28.8719 11.544C29.0142 11.6684 29.1902 11.5001 29.1902 11.3539" stroke="#353E82" stroke-width="0.28"/>
<path fill-rule="evenodd" clip-rule="evenodd" d="M26.7935 12.1621C26.7935 11.9427 26.9107 11.7672 27.2125 11.7672H27.9833C28.2851 11.7672 29.1401 12.2205 29.1401 12.63V13.5828C29.1401 13.7729 29.0394 13.8752 28.7712 13.8752H27.5979C27.4471 13.8752 26.7935 13.6119 26.7935 13.2463V12.1621Z" fill="#D8EBE0" stroke="#353E82" stroke-width="0.28"/>
<path fill-rule="evenodd" clip-rule="evenodd" d="M29.2116 15.868V14.78C29.2116 14.5935 29.0985 14.3302 28.7717 14.3302H27.4141C27.213 14.3302 26.8105 14.5496 26.8105 14.7911V15.868C26.8105 16.0324 26.8986 16.3176 27.1123 16.3176H28.5203C28.7465 16.3176 29.2116 16.1311 29.2116 15.868Z" fill="#D8EBE0"/>
<path d="M29.2116 15.868V14.78C29.2116 14.5935 29.0985 14.3302 28.7717 14.3302H27.4141C27.213 14.3302 26.8105 14.5496 26.8105 14.7911V15.868C26.8105 16.0324 26.8986 16.3176 27.1123 16.3176H28.5203C28.7465 16.3176 29.2116 16.1311 29.2116 15.868" stroke="#353E82" stroke-width="0.28"/>
<path fill-rule="evenodd" clip-rule="evenodd" d="M27.1787 16.844H28.5699C28.8381 16.844 29.1399 17.0341 29.1399 17.2535C29.1399 17.4729 27.8995 22.2998 26.9273 22.2998H26.8101C26.7595 21.1602 26.8101 17.4485 26.8101 17.2535C26.8101 17.0195 26.8602 16.844 27.1787 16.844Z" fill="#D8EBE0"/>
<path d="M27.1787 16.844H28.5699C28.8381 16.844 29.1399 17.0341 29.1399 17.2535C29.1399 17.4729 27.8995 22.2998 26.9273 22.2998H26.8101C26.7595 21.1602 26.8101 17.4485 26.8101 17.2535C26.8101 17.0195 26.8602 16.844 27.1787 16.844" stroke="#353E82" stroke-width="0.28"/>
<path fill-rule="evenodd" clip-rule="evenodd" d="M19.3498 6.07892C19.2969 6.14865 19.2452 6.21631 19.1938 6.28173C19.2452 6.21631 19.2969 6.14883 19.3498 6.07892Z" fill="#D8EBE0"/>
<path d="M19.3498 6.07892V6.07892C19.2969 6.14865 19.2452 6.21631 19.1938 6.28173C19.2452 6.21631 19.2969 6.14883 19.3498 6.07892" stroke="#353E82" stroke-width="0.28"/>
<path fill-rule="evenodd" clip-rule="evenodd" d="M18.9128 6.62446C18.9468 6.58485 18.9815 6.54265 19.0161 6.50098C18.3298 7.32954 17.7624 7.74046 17.03 7.87117C17.03 8.37871 16.2256 9.16559 16.2256 12.303C16.2256 12.9391 17.9659 13.7575 18.7648 12.303C19.2831 11.3594 19.4779 10.9662 19.5991 10.7345C19.6606 10.5482 19.7191 10.4381 19.7706 10.4381C19.9464 10.1748 19.871 7.5641 19.871 7.5641C19.318 7.14715 19.5134 6.91345 18.9128 6.62446Z" fill="#D8EBE0"/>
<path d="M18.9128 6.62446V6.62446C18.9468 6.58485 18.9815 6.54265 19.0161 6.50098C18.3298 7.32954 17.7624 7.74046 17.03 7.87117C17.03 8.37871 16.2256 9.16559 16.2256 12.303C16.2256 12.9391 17.9659 13.7575 18.7648 12.303C19.2831 11.3594 19.4779 10.9662 19.5991 10.7345C19.6606 10.5482 19.7191 10.4381 19.7706 10.4381C19.9464 10.1748 19.871 7.5641 19.871 7.5641C19.318 7.14715 19.5134 6.91345 18.9128 6.62446" stroke="#353E82" stroke-width="0.28"/>
<path fill-rule="evenodd" clip-rule="evenodd" d="M19.0459 6.46663C19.0937 6.40831 19.1418 6.34775 19.1908 6.28528C19.1418 6.34775 19.0937 6.40831 19.0459 6.46663Z" fill="#D8EBE0"/>
<path d="M19.0459 6.46663C19.0937 6.40831 19.1418 6.34775 19.1908 6.28528C19.1418 6.34775 19.0937 6.40831 19.0459 6.46663" stroke="#353E82" stroke-width="0.28"/>
<path fill-rule="evenodd" clip-rule="evenodd" d="M26.5088 -9C24.233 -9 23.0952 -7.24334 23.0952 -6.32677C23.0952 -5.41021 23.4889 -1.62924 23.4889 -1.62924C23.4889 -1.62924 25.1083 0.280181 26.5088 0.280181C27.9092 0.280181 29.5286 -1.62924 29.5286 -1.62924C29.5286 -1.62924 29.9223 -5.41021 29.9223 -6.32677C29.9223 -7.24334 28.7845 -9 26.5088 -9Z" fill="#D8EBE0"/>
<path d="M26.5088 -9C24.233 -9 23.0952 -7.24334 23.0952 -6.32677C23.0952 -5.41021 23.4889 -1.62924 23.4889 -1.62924C23.4889 -1.62924 25.1083 0.280181 26.5088 0.280181C27.9092 0.280181 29.5286 -1.62924 29.5286 -1.62924C29.5286 -1.62924 29.9223 -5.41021 29.9223 -6.32677C29.9223 -7.24334 28.7845 -9 26.5088 -9" stroke="#353E82" stroke-width="0.28"/>
<path fill-rule="evenodd" clip-rule="evenodd" d="M29.8102 18.5556C29.8102 16.932 30.2963 17.0636 30.2963 16.2008C30.2963 14.4018 29.8102 12.8661 29.8102 12.0616C29.8102 11.2572 29.8939 8.61717 29.8939 8.61717L29.8544 8.60925C29.7757 8.61442 29.6993 8.61717 29.6257 8.61717C28.4944 8.61717 26.9217 8.0249 26.9217 8.0249H26.5084H26.0949C26.0949 8.0249 24.5221 8.61717 23.3907 8.61717C23.3175 8.61717 23.2409 8.61442 23.1621 8.60925L23.1225 8.61717C23.1225 8.61717 23.2063 11.2572 23.2063 12.0616C23.2063 12.8661 22.7202 14.4018 22.7202 16.2008C22.7202 17.0636 23.2063 16.932 23.2063 18.5556C23.2063 19.126 22.7035 19.5281 22.0498 19.5281C22.0498 20.8374 25.5697 23.2944 26.5084 23.2944C27.4468 23.2944 30.9668 20.8374 30.9668 19.5281C30.3129 19.5281 29.8102 19.126 29.8102 18.5556Z" fill="#D8EBE0"/>
<path d="M29.8102 18.5556C29.8102 16.932 30.2963 17.0636 30.2963 16.2008C30.2963 14.4018 29.8102 12.8661 29.8102 12.0616C29.8102 11.2572 29.8939 8.61717 29.8939 8.61717L29.8544 8.60925C29.7757 8.61442 29.6993 8.61717 29.6257 8.61717C28.4944 8.61717 26.9217 8.0249 26.9217 8.0249H26.5084H26.0949C26.0949 8.0249 24.5221 8.61717 23.3907 8.61717C23.3175 8.61717 23.2409 8.61442 23.1621 8.60925L23.1225 8.61717C23.1225 8.61717 23.2063 11.2572 23.2063 12.0616C23.2063 12.8661 22.7202 14.4018 22.7202 16.2008C22.7202 17.0636 23.2063 16.932 23.2063 18.5556C23.2063 19.126 22.7035 19.5281 22.0498 19.5281C22.0498 20.8374 25.5697 23.2944 26.5084 23.2944C27.4468 23.2944 30.9668 20.8374 30.9668 19.5281C30.3129 19.5281 29.8102 19.126 29.8102 18.5556" stroke="#353E82" stroke-width="0.28"/>
<path fill-rule="evenodd" clip-rule="evenodd" d="M30.9668 19.5282C31.4026 18.541 32.3412 17.5683 32.3412 17.5683L30.9668 19.5282Z" fill="#D8EBE0"/>
<path d="M30.9668 19.5282C31.4026 18.541 32.3412 17.5683 32.3412 17.5683" stroke="#353E82" stroke-width="0.28"/>
<path fill-rule="evenodd" clip-rule="evenodd" d="M20.1879 35.3017C20.1879 35.4784 20.3067 35.5803 20.4073 35.5803C20.508 35.5803 20.7411 34.5839 20.7411 33.9203C20.7006 33.9213 20.6755 33.8302 20.6755 33.5746C20.6755 32.6658 19.6949 31.0023 19.6949 27.8138C19.6949 24.6253 20.8095 21.1443 21.0531 19.7664L21.0006 19.124C20.9779 18.7596 20.9526 17.8775 20.9526 17.8775L20.6755 17.5496C20.6755 17.5559 20.6755 17.5618 20.6755 17.5683C20.6755 18.2045 19.4519 18.7896 19.4519 21.3345C19.4519 21.9927 18.6475 23.2212 18.6475 25.8832C18.6475 26.0394 18.649 26.1929 18.6518 26.3442C18.6526 26.3856 18.6542 26.4255 18.6552 26.4665C18.6577 26.5752 18.6603 26.6837 18.6642 26.79C18.6662 26.8409 18.669 26.8904 18.6711 26.9407C18.6753 27.035 18.6792 27.1296 18.6846 27.2221C18.6875 27.2753 18.6913 27.3271 18.6944 27.3796C18.7 27.4673 18.7055 27.5551 18.7118 27.6411C18.7157 27.6938 18.7203 27.7454 18.7244 27.7975C18.7313 27.8817 18.7382 27.9657 18.7457 28.048C18.7505 28.0985 18.7558 28.1479 18.7607 28.1979C18.7688 28.2802 18.7771 28.3625 18.786 28.4431C18.7913 28.4907 18.7971 28.5373 18.8024 28.5843C18.8121 28.6658 18.8217 28.7469 18.832 28.8268C18.8377 28.8709 18.8434 28.9143 18.8494 28.9577C18.8602 29.039 18.8715 29.1199 18.8831 29.1995C18.8888 29.2396 18.895 29.2793 18.9009 29.319C18.9133 29.401 18.9259 29.4823 18.9392 29.5626C18.9449 29.5979 18.9506 29.6328 18.9565 29.668C18.9705 29.7515 18.9848 29.8345 18.9996 29.9163C19.0049 29.9463 19.0102 29.9759 19.0157 30.0055C19.0315 30.0921 19.0477 30.1781 19.0641 30.2626C19.0686 30.2857 19.0732 30.3086 19.0777 30.3315C19.0957 30.4232 19.1142 30.5137 19.1328 30.603C19.1357 30.6174 19.1389 30.6322 19.142 30.6467C19.163 30.7464 19.1845 30.8448 19.206 30.9415C19.2066 30.9443 19.2072 30.9472 19.208 30.95C19.6171 32.7797 20.1123 34.1053 20.1871 35.301L20.1879 35.3017Z" fill="#D8EBE0" stroke="#353E82" stroke-width="0.28"/>
<path fill-rule="evenodd" clip-rule="evenodd" d="M26.5084 0.28033C26.2366 0.28033 25.9568 0.207997 25.682 0.0919189H25.6816C25.6816 0.931157 25.8715 3.35914 26.5084 3.35914C27.1453 3.35914 27.3351 0.931157 27.3351 0.0919189H27.3347C27.06 0.207997 26.7802 0.28033 26.5084 0.28033Z" fill="#D8EBE0"/>
<path d="M26.5084 0.28033C26.2366 0.28033 25.9568 0.207997 25.682 0.0919189H25.6816C25.6816 0.931157 25.8715 3.35914 26.5084 3.35914C27.1453 3.35914 27.3351 0.931157 27.3351 0.0919189H27.3347C27.06 0.207997 26.7802 0.28033 26.5084 0.28033" stroke="#353E82" stroke-width="0.28"/>
<path fill-rule="evenodd" clip-rule="evenodd" d="M21.0526 19.7666C20.809 21.1443 19.6943 24.6255 19.6943 27.814C19.6943 31.0023 20.675 32.6658 20.675 33.5746C20.675 34.4834 20.9934 33.3134 21.1779 33.3134C21.362 33.3134 22.0352 34.4285 22.0352 35.1196C22.0352 35.152 22.0386 35.1703 22.0451 35.1759C22.0427 35.1412 22.0451 35.101 22.0437 35.0649C22.0402 34.9717 22.0364 34.8785 22.0402 34.7776C22.0413 34.7421 22.0453 34.7039 22.0471 34.6677C22.0534 34.5544 22.0603 34.4404 22.0731 34.3209C22.0755 34.2986 22.079 34.2757 22.0816 34.2534C22.1659 33.5162 22.3482 32.6985 22.4554 32.0553C22.4588 32.0369 22.4627 32.0158 22.4657 31.9978C22.4878 31.8612 22.5061 31.7332 22.5186 31.6166C22.619 30.6811 23.2557 28.7517 23.5646 27.6102C23.5646 27.6102 23.5652 27.6002 23.5662 27.5853C23.5675 27.566 23.5701 27.5243 23.5739 27.4668C23.5744 27.458 23.575 27.4451 23.5756 27.4356C23.5788 27.3827 23.5823 27.3223 23.5867 27.2458C23.5867 27.2439 23.5867 27.2415 23.5869 27.2398C23.5916 27.1542 23.5966 27.0565 23.6019 26.9456C23.6019 26.9413 23.6021 26.9358 23.6023 26.9315C23.6179 26.596 23.6339 26.1582 23.641 25.6648C23.6417 25.6264 23.6415 25.5852 23.6419 25.5463C23.6435 25.4161 23.6449 25.2858 23.6449 25.15C23.6451 24.9735 23.6408 24.5991 23.6408 24.5931C23.6408 23.7628 22.5472 21.0965 22.1217 19.9377C22.0372 19.7077 22.0771 19.6217 22.0492 19.5282C21.8821 18.9645 20.9519 17.8776 20.9519 17.8776L21.0526 19.7666Z" fill="#D8EBE0" stroke="#353E82" stroke-width="0.28"/>
<path fill-rule="evenodd" clip-rule="evenodd" d="M23.6416 24.5933C23.6416 24.5992 23.6416 24.6049 23.6416 24.6107C23.6448 24.7931 23.646 24.9734 23.6458 25.1498C23.6458 25.2857 23.6444 25.416 23.6428 25.5461C23.6424 25.585 23.6426 25.6263 23.6418 25.6645C23.6347 26.1581 23.6187 26.5959 23.6033 26.9314C23.6029 26.9357 23.6027 26.9411 23.6027 26.9455C23.5974 27.0563 23.5925 27.1541 23.5879 27.2395C23.5877 27.2414 23.5877 27.2438 23.5875 27.2457C23.5834 27.322 23.5796 27.3826 23.5765 27.4353C23.5759 27.445 23.5755 27.4577 23.5747 27.4667C23.5712 27.5242 23.5684 27.5657 23.567 27.5852C23.566 27.6001 23.5654 27.6101 23.5654 27.6101C23.2566 28.7516 22.6201 30.6809 22.5194 31.6165C22.507 31.7331 22.4886 31.8611 22.4665 31.9977C22.4665 31.998 22.4663 31.9984 22.4663 31.9987C22.4373 32.1775 22.401 32.374 22.3627 32.5765C22.3303 32.748 22.2966 32.9259 22.2632 33.1066C22.2623 33.1118 22.2613 33.1171 22.2603 33.1223C22.2261 33.3072 22.1928 33.4951 22.1628 33.6818C22.162 33.6853 22.1616 33.6889 22.161 33.6923C22.1304 33.8816 22.1036 34.0698 22.0827 34.2531C22.0819 34.2607 22.0807 34.2681 22.0797 34.2756C22.0779 34.291 22.0754 34.307 22.0738 34.3223C22.0615 34.4389 22.0546 34.5503 22.0485 34.6611C22.0475 34.6781 22.0461 34.6959 22.0452 34.7127C22.0436 34.7346 22.0418 34.7565 22.041 34.7775C22.0375 34.8782 22.041 34.9714 22.0448 35.0648V35.0692C22.0469 35.1269 22.045 35.1895 22.0503 35.2439C22.1507 36.2676 22.9887 36.2092 22.9887 36.2092C23.5461 36.2092 24.6375 35.9069 24.9902 35.3508C25.0289 35.2298 25.0666 35.1063 25.1035 34.9816C25.4325 33.8694 25.679 32.6189 25.679 31.3241C25.679 31.0971 25.6863 30.8524 25.6983 30.5949C25.6983 28.774 24.6667 26.5567 23.6416 24.5933Z" fill="#D8EBE0"/>
<path d="M23.6416 24.5933C23.6416 24.5992 23.6416 24.6049 23.6416 24.6107C23.6448 24.7931 23.646 24.9734 23.6458 25.1498C23.6458 25.2857 23.6444 25.416 23.6428 25.5461C23.6424 25.585 23.6426 25.6263 23.6418 25.6645C23.6347 26.1581 23.6187 26.5959 23.6033 26.9314C23.6029 26.9357 23.6027 26.9411 23.6027 26.9455C23.5974 27.0563 23.5925 27.1541 23.5879 27.2395C23.5877 27.2414 23.5877 27.2438 23.5875 27.2457C23.5834 27.322 23.5796 27.3826 23.5765 27.4353C23.5759 27.445 23.5755 27.4577 23.5747 27.4667C23.5712 27.5242 23.5684 27.5657 23.567 27.5852C23.566 27.6001 23.5654 27.6101 23.5654 27.6101C23.2566 28.7516 22.6201 30.6809 22.5194 31.6165C22.507 31.7331 22.4886 31.8611 22.4665 31.9977C22.4665 31.998 22.4663 31.9984 22.4663 31.9987C22.4373 32.1775 22.401 32.374 22.3627 32.5765C22.3303 32.748 22.2966 32.9259 22.2632 33.1066C22.2623 33.1118 22.2613 33.1171 22.2603 33.1223C22.2261 33.3072 22.1928 33.4951 22.1628 33.6818C22.162 33.6853 22.1616 33.6889 22.161 33.6923C22.1304 33.8816 22.1036 34.0698 22.0827 34.2531C22.0819 34.2607 22.0807 34.2681 22.0797 34.2756C22.0779 34.291 22.0754 34.307 22.0738 34.3223C22.0615 34.4389 22.0546 34.5503 22.0485 34.6611C22.0475 34.6781 22.0461 34.6959 22.0452 34.7127C22.0436 34.7346 22.0418 34.7565 22.041 34.7775C22.0375 34.8782 22.041 34.9714 22.0448 35.0648V35.0692C22.0469 35.1269 22.045 35.1895 22.0503 35.2439C22.1507 36.2676 22.9887 36.2092 22.9887 36.2092C23.5461 36.2092 24.6375 35.9069 24.9902 35.3508C25.0289 35.2298 25.0666 35.1063 25.1035 34.9816C25.4325 33.8694 25.679 32.6189 25.679 31.3241C25.679 31.0971 25.6863 30.8524 25.6983 30.5949C25.6983 28.774 24.6667 26.5567 23.6416 24.5933" stroke="#353E82" stroke-width="0.28"/>
<path fill-rule="evenodd" clip-rule="evenodd" d="M32.8291 35.3017C32.8291 35.4784 32.7101 35.5803 32.6096 35.5803C32.509 35.5803 32.2759 34.5839 32.2759 33.9203C32.3162 33.9213 32.3414 33.8302 32.3414 33.5746C32.3414 32.6658 33.3221 31.0023 33.3221 27.8138C33.3221 24.6253 32.2074 21.1443 31.9639 19.7664L32.0164 19.124C32.0391 18.7596 32.0643 17.8775 32.0643 17.8775L32.3414 17.5496C32.3414 17.5559 32.3414 17.5618 32.3414 17.5683C32.3414 18.2045 33.5651 18.7896 33.5651 21.3345C33.5651 21.9927 34.3695 23.2212 34.3695 25.8832C34.3695 26.0394 34.3679 26.1929 34.3652 26.3442C34.3644 26.3856 34.3628 26.4255 34.3618 26.4665C34.3592 26.5752 34.3565 26.6837 34.3525 26.79C34.3507 26.8409 34.348 26.8904 34.3458 26.9407C34.3417 27.035 34.3377 27.1296 34.3324 27.2221C34.3294 27.2753 34.3257 27.3271 34.3223 27.3796C34.317 27.4673 34.3115 27.5551 34.3052 27.6411C34.3012 27.6938 34.2967 27.7454 34.2923 27.7975C34.2856 27.8817 34.2787 27.9657 34.271 28.048C34.2665 28.0985 34.2611 28.1479 34.2562 28.1979C34.2481 28.2802 34.2398 28.3625 34.2309 28.4431C34.2256 28.4907 34.2199 28.5373 34.2146 28.5843C34.2049 28.6658 34.1952 28.7469 34.185 28.8268C34.1792 28.8709 34.1735 28.9143 34.1676 28.9577C34.1565 29.039 34.1455 29.1199 34.1338 29.1995C34.1281 29.2396 34.122 29.2793 34.1161 29.319C34.1037 29.401 34.091 29.4823 34.0778 29.5626C34.0721 29.5979 34.0664 29.6328 34.0604 29.668C34.0464 29.7515 34.032 29.8345 34.0174 29.9163C34.0121 29.9463 34.0067 29.9759 34.0012 30.0055C33.9854 30.0921 33.9692 30.1781 33.9527 30.2626C33.9483 30.2857 33.9438 30.3086 33.9393 30.3315C33.9213 30.4232 33.9027 30.5137 33.8842 30.603C33.881 30.6174 33.8781 30.6322 33.8749 30.6467C33.8538 30.7464 33.8325 30.8448 33.811 30.9415C33.8104 30.9443 33.8098 30.9472 33.809 30.95C33.3999 32.7797 32.9047 34.1053 32.8299 35.301L32.8291 35.3017Z" fill="#D8EBE0" stroke="#353E82" stroke-width="0.28"/>
<path fill-rule="evenodd" clip-rule="evenodd" d="M31.9636 19.7666C32.2072 21.1443 33.3219 24.6255 33.3219 27.814C33.3219 31.0023 32.3412 32.6658 32.3412 33.5746C32.3412 34.4834 32.0228 33.3134 31.8383 33.3134C31.654 33.3134 30.981 34.4285 30.981 35.1196C30.981 35.152 30.9774 35.1703 30.9711 35.1759C30.9735 35.1412 30.9711 35.101 30.9725 35.0649C30.976 34.9717 30.9798 34.8785 30.976 34.7776C30.9748 34.7421 30.9709 34.7039 30.9689 34.6677C30.9628 34.5544 30.9557 34.4404 30.9431 34.3209C30.9405 34.2986 30.9372 34.2757 30.9344 34.2534C30.8503 33.5162 30.668 32.6985 30.5608 32.0553C30.5574 32.0369 30.5535 32.0158 30.5505 31.9978C30.5284 31.8612 30.5101 31.7332 30.4976 31.6166C30.397 30.6811 29.7605 28.7517 29.4516 27.6102C29.4516 27.6102 29.451 27.6002 29.45 27.5853C29.4487 27.566 29.4461 27.5243 29.4423 27.4668C29.4417 27.458 29.441 27.4451 29.4406 27.4356C29.4374 27.3827 29.4337 27.3223 29.4295 27.2458C29.4293 27.2439 29.4293 27.2415 29.4293 27.2398C29.4246 27.1542 29.4196 27.0565 29.4143 26.9456C29.4143 26.9413 29.4141 26.9358 29.4137 26.9315C29.3983 26.596 29.3823 26.1582 29.3752 25.6648C29.3744 25.6264 29.3746 25.5852 29.3741 25.5463C29.3727 25.4161 29.3711 25.2858 29.3711 25.15C29.3711 24.9735 29.3754 24.5991 29.3754 24.5931C29.3754 23.7628 30.469 21.0965 30.8945 19.9377C30.979 19.7077 30.9391 19.6217 30.967 19.5282C31.1341 18.9645 32.0643 17.8776 32.0643 17.8776L31.9636 19.7666Z" fill="#D8EBE0" stroke="#353E82" stroke-width="0.28"/>
<path fill-rule="evenodd" clip-rule="evenodd" d="M29.3751 24.5933C29.3751 24.5992 29.3749 24.6049 29.3749 24.6107C29.3719 24.7931 29.3707 24.9734 29.3707 25.1498C29.3707 25.2857 29.3723 25.416 29.3737 25.5461C29.3743 25.585 29.3741 25.6263 29.3749 25.6645C29.382 26.1581 29.3979 26.5959 29.4133 26.9314C29.4137 26.9357 29.4137 26.9411 29.4139 26.9455C29.4193 27.0563 29.4242 27.1541 29.4287 27.2395C29.4289 27.2414 29.4289 27.2438 29.4291 27.2457C29.4333 27.322 29.4368 27.3826 29.4402 27.4353C29.4406 27.445 29.4412 27.4577 29.442 27.4667C29.4455 27.5242 29.4483 27.5657 29.4495 27.5852C29.4506 27.6001 29.4512 27.6101 29.4512 27.6101C29.7601 28.7516 30.3966 30.6809 30.4972 31.6165C30.5097 31.7331 30.528 31.8611 30.5501 31.9977C30.5501 31.998 30.5503 31.9984 30.5503 31.9987C30.5793 32.1775 30.6157 32.374 30.654 32.5765C30.6861 32.748 30.7201 32.9259 30.7534 33.1066C30.7544 33.1118 30.7554 33.1171 30.7564 33.1223C30.7905 33.3072 30.8239 33.4951 30.8539 33.6818C30.8545 33.6853 30.8551 33.6889 30.8557 33.6923C30.886 33.8816 30.9131 34.0698 30.934 34.2531C30.9348 34.2607 30.9358 34.2681 30.937 34.2756C30.9387 34.291 30.9413 34.307 30.9429 34.3223C30.9551 34.4389 30.962 34.5503 30.9682 34.6611C30.9691 34.6781 30.9705 34.6959 30.9715 34.7127C30.9731 34.7346 30.9749 34.7565 30.9757 34.7775C30.9792 34.8782 30.9757 34.9714 30.9719 35.0648V35.0692C30.9697 35.1269 30.9717 35.1895 30.9664 35.2439C30.8659 36.2676 30.0277 36.2092 30.0277 36.2092C29.4706 36.2092 28.379 35.9069 28.0265 35.3508C27.9878 35.2298 27.9501 35.1063 27.913 34.9816C27.5842 33.8694 27.3377 32.6189 27.3377 31.3241C27.3377 31.0971 27.3304 30.8524 27.3184 30.5949C27.3184 28.774 28.35 26.5567 29.3751 24.5933Z" fill="#D8EBE0"/>
<path d="M29.3751 24.5933C29.3751 24.5992 29.3749 24.6049 29.3749 24.6107C29.3719 24.7931 29.3707 24.9734 29.3707 25.1498C29.3707 25.2857 29.3723 25.416 29.3737 25.5461C29.3743 25.585 29.3741 25.6263 29.3749 25.6645C29.382 26.1581 29.3979 26.5959 29.4133 26.9314C29.4137 26.9357 29.4137 26.9411 29.4139 26.9455C29.4193 27.0563 29.4242 27.1541 29.4287 27.2395C29.4289 27.2414 29.4289 27.2438 29.4291 27.2457C29.4333 27.322 29.4368 27.3826 29.4402 27.4353C29.4406 27.445 29.4412 27.4577 29.442 27.4667C29.4455 27.5242 29.4483 27.5657 29.4495 27.5852C29.4506 27.6001 29.4512 27.6101 29.4512 27.6101C29.7601 28.7516 30.3966 30.6809 30.4972 31.6165C30.5097 31.7331 30.528 31.8611 30.5501 31.9977C30.5501 31.998 30.5503 31.9984 30.5503 31.9987C30.5793 32.1775 30.6157 32.374 30.654 32.5765C30.6861 32.748 30.7201 32.9259 30.7534 33.1066C30.7544 33.1118 30.7554 33.1171 30.7564 33.1223C30.7905 33.3072 30.8239 33.4951 30.8539 33.6818C30.8545 33.6853 30.8551 33.6889 30.8557 33.6923C30.886 33.8816 30.9131 34.0698 30.934 34.2531C30.9348 34.2607 30.9358 34.2681 30.937 34.2756C30.9387 34.291 30.9413 34.307 30.9429 34.3223C30.9551 34.4389 30.962 34.5503 30.9682 34.6611C30.9691 34.6781 30.9705 34.6959 30.9715 34.7127C30.9731 34.7346 30.9749 34.7565 30.9757 34.7775C30.9792 34.8782 30.9757 34.9714 30.9719 35.0648V35.0692C30.9697 35.1269 30.9717 35.1895 30.9664 35.2439C30.8659 36.2676 30.0277 36.2092 30.0277 36.2092C29.4706 36.2092 28.379 35.9069 28.0265 35.3508C27.9878 35.2298 27.9501 35.1063 27.913 34.9816C27.5842 33.8694 27.3377 32.6189 27.3377 31.3241C27.3377 31.0971 27.3304 30.8524 27.3184 30.5949C27.3184 28.774 28.35 26.5567 29.3751 24.5933" stroke="#353E82" stroke-width="0.28"/>
<path fill-rule="evenodd" clip-rule="evenodd" d="M24.1696 48.3701C24.1702 48.3715 24.171 48.3727 24.1716 48.3739C24.1471 48.1848 24.1287 47.9948 24.1287 47.8076C24.1287 46.6961 24.0954 43.5003 24.0954 43.5003C24.0954 43.5003 24.2211 42.4472 24.2211 41.3501C24.2211 40.2533 23.4417 39.7047 23.4417 39.2222C23.017 40.2452 22.0006 44.1581 24.1696 48.3701Z" fill="#D8EBE0"/>
<path d="M24.1696 48.3701C24.1702 48.3715 24.171 48.3727 24.1716 48.3739C24.1471 48.1848 24.1287 47.9948 24.1287 47.8076C24.1287 46.6961 24.0954 43.5003 24.0954 43.5003C24.0954 43.5003 24.2211 42.4472 24.2211 41.3501C24.2211 40.2533 23.4417 39.7047 23.4417 39.2222C23.017 40.2452 22.0006 44.158 24.1696 48.3701" stroke="#353E82" stroke-width="0.28"/>
<path fill-rule="evenodd" clip-rule="evenodd" d="M19.7202 40.3848C19.7202 42.6954 21.1418 45.5596 21.5312 47.5C21.5312 47.499 21.5314 47.4981 21.5316 47.4971C22.1126 42.1897 20.5898 40.6914 19.7729 39.0591C19.7409 39.4125 19.7202 39.8363 19.7202 40.3848Z" fill="#D8EBE0"/>
<path d="M19.7202 40.3848C19.7202 42.6954 21.1418 45.5596 21.5312 47.5C21.5312 47.499 21.5314 47.4981 21.5316 47.4971C22.1126 42.1897 20.5898 40.6914 19.7729 39.0591C19.7409 39.4125 19.7202 39.8363 19.7202 40.3848" stroke="#353E82" stroke-width="0.28"/>
<path fill-rule="evenodd" clip-rule="evenodd" d="M28.8474 48.3701C28.8468 48.3715 28.846 48.3727 28.8452 48.3739C28.8699 48.1848 28.8883 47.9948 28.8883 47.8076C28.8883 46.6961 28.9216 43.5003 28.9216 43.5003C28.9216 43.5003 28.7959 42.4472 28.7959 41.3501C28.7959 40.2533 29.5753 39.7047 29.5753 39.2222C29.9998 40.2452 31.0164 44.1581 28.8474 48.3701Z" fill="#D8EBE0"/>
<path d="M28.8474 48.3701C28.8468 48.3715 28.846 48.3727 28.8452 48.3739C28.8699 48.1848 28.8883 47.9948 28.8883 47.8076C28.8883 46.6961 28.9216 43.5003 28.9216 43.5003C28.9216 43.5003 28.7959 42.4472 28.7959 41.3501C28.7959 40.2533 29.5753 39.7047 29.5753 39.2222C29.9998 40.2452 31.0164 44.158 28.8474 48.3701" stroke="#353E82" stroke-width="0.28"/>
<path fill-rule="evenodd" clip-rule="evenodd" d="M33.2968 40.3848C33.2968 42.6954 31.8754 45.5596 31.486 47.5C31.4858 47.499 31.4856 47.4981 31.4854 47.4971C30.9044 42.1897 32.4274 40.6914 33.2443 39.0591C33.2763 39.4125 33.2968 39.8363 33.2968 40.3848Z" fill="#D8EBE0"/>
<path d="M33.2968 40.3848C33.2968 42.6954 31.8754 45.5596 31.486 47.5C31.4858 47.499 31.4856 47.4981 31.4854 47.4971C30.9044 42.1897 32.4274 40.6914 33.2443 39.0591C33.2763 39.4125 33.2968 39.8363 33.2968 40.3848" stroke="#353E82" stroke-width="0.28"/>
<path fill-rule="evenodd" clip-rule="evenodd" d="M16.2256 12.3029C16.2256 12.146 16.2291 11.9995 16.2329 11.8541C16.2285 11.9979 16.2256 12.146 16.2256 12.3029Z" fill="#D8EBE0"/>
<path d="M16.2256 12.3029C16.2256 12.146 16.2291 11.9995 16.2329 11.8541C16.2285 11.9979 16.2256 12.146 16.2256 12.3029" stroke="#353E82" stroke-width="0.28"/>
<path fill-rule="evenodd" clip-rule="evenodd" d="M17.0832 15.6595C17.2535 14.7572 17.4238 14.4314 17.0832 13.8751C16.7425 13.319 16.5154 14.0845 15.5996 13.8751C15.4871 14.1412 15.3795 14.4183 15.2976 14.6942C15.1113 15.323 15.1709 18.3103 15.0361 20.7685H15.0363C15.0363 20.7685 15.7772 19.4851 15.8341 18.1968C15.8907 16.9086 16.9128 16.5618 17.0832 15.6595Z" fill="#D8EBE0"/>
<path d="M17.0832 15.6595C17.2535 14.7572 17.4238 14.4314 17.0832 13.8751C16.7425 13.319 16.5154 14.0845 15.5996 13.8751C15.4871 14.1412 15.3795 14.4183 15.2976 14.6942C15.1113 15.323 15.1709 18.3103 15.0361 20.7685H15.0363C15.0363 20.7685 15.7772 19.4851 15.8341 18.1968C15.8907 16.9086 16.9128 16.5618 17.0832 15.6595" stroke="#353E82" stroke-width="0.28"/>
<path fill-rule="evenodd" clip-rule="evenodd" d="M17.2798 17.2184C16.7992 18.4941 16.4341 21.934 16.4341 21.934C16.4341 21.934 19.009 16.7126 19.1178 15.6595C19.1178 15.6595 17.7603 15.9428 17.2798 17.2184Z" fill="#D8EBE0"/>
<path d="M17.2798 17.2184C16.7992 18.4941 16.4341 21.934 16.4341 21.934C16.4341 21.934 19.009 16.7126 19.1178 15.6595C19.1178 15.6595 17.7603 15.9428 17.2798 17.2184" stroke="#353E82" stroke-width="0.28"/>
<path fill-rule="evenodd" clip-rule="evenodd" d="M36.1627 5.81621C36.1627 7.71754 35.9867 7.54205 35.9867 7.87117C34.8805 7.6738 34.1514 6.84007 32.819 4.88742C31.4864 2.93494 30.355 3.24201 30.355 2.78132C30.355 2.43016 31.1344 2.27671 31.4026 1.92572C33.7825 1.92572 36.1627 3.91471 36.1627 5.81621Z" fill="#D8EBE0"/>
<path d="M36.1627 5.81621C36.1627 7.71754 35.9867 7.54205 35.9867 7.87117C34.8805 7.6738 34.1514 6.84007 32.819 4.88742C31.4864 2.93494 30.355 3.24201 30.355 2.78132C30.355 2.43016 31.1344 2.27671 31.4026 1.92572C33.7825 1.92572 36.1627 3.91471 36.1627 5.81621" stroke="#353E82" stroke-width="0.28"/>
<path fill-rule="evenodd" clip-rule="evenodd" d="M27.5645 4.00988C27.7123 3.75534 29.8272 2.78125 30.3552 2.78125C30.3552 3.24194 31.4866 2.93487 32.8192 4.88735C33.314 5.61258 33.7255 6.18315 34.1042 6.62438C33.5037 6.91337 33.699 7.14708 33.1458 7.56403C32.5928 7.9808 30.7576 8.61699 29.6261 8.61699C28.4946 8.61699 26.9219 8.02472 26.9219 8.02472V6.53276C26.9219 4.9094 27.3353 4.40479 27.5645 4.00988Z" fill="#D8EBE0"/>
<path d="M27.5645 4.00988C27.7123 3.75534 29.8272 2.78125 30.3552 2.78125C30.3552 3.24194 31.4866 2.93487 32.8192 4.88735C33.314 5.61258 33.7255 6.18315 34.1042 6.62438C33.5037 6.91337 33.699 7.14708 33.1458 7.56403C32.5928 7.9808 30.7576 8.61699 29.6261 8.61699C28.4946 8.61699 26.9219 8.02472 26.9219 8.02472V6.53276C26.9219 4.9094 27.3353 4.40479 27.5645 4.00988" stroke="#353E82" stroke-width="0.28"/>
<path fill-rule="evenodd" clip-rule="evenodd" d="M33.666 6.07892C33.7189 6.14865 33.7708 6.21631 33.8219 6.28173C33.7708 6.21631 33.7189 6.14883 33.666 6.07892Z" fill="#D8EBE0"/>
<path d="M33.666 6.07892V6.07892C33.7189 6.14865 33.7708 6.21631 33.8219 6.28173C33.7708 6.21631 33.7189 6.14883 33.666 6.07892" stroke="#353E82" stroke-width="0.28"/>
<path fill-rule="evenodd" clip-rule="evenodd" d="M34.1041 6.62446C34.0702 6.58485 34.0355 6.54265 34.0007 6.50098C34.6871 7.32954 35.2546 7.74046 35.987 7.87117C35.987 8.37871 36.7914 9.16559 36.7914 12.303C36.7914 12.9391 35.0511 13.7575 34.2522 12.303C33.7339 11.3594 33.5389 10.9662 33.4179 10.7345C33.3561 10.5482 33.2979 10.4381 33.2464 10.4381C33.0706 10.1748 33.1459 7.5641 33.1459 7.5641C33.699 7.14715 33.5036 6.91345 34.1041 6.62446Z" fill="#D8EBE0"/>
<path d="M34.1041 6.62446V6.62446C34.0702 6.58485 34.0355 6.54265 34.0007 6.50098C34.6871 7.32954 35.2546 7.74046 35.987 7.87117C35.987 8.37871 36.7914 9.16559 36.7914 12.303C36.7914 12.9391 35.0511 13.7575 34.2522 12.303C33.7339 11.3594 33.5389 10.9662 33.4179 10.7345C33.3561 10.5482 33.2979 10.4381 33.2464 10.4381C33.0706 10.1748 33.1459 7.5641 33.1459 7.5641C33.699 7.14715 33.5036 6.91345 34.1041 6.62446" stroke="#353E82" stroke-width="0.28"/>
<path fill-rule="evenodd" clip-rule="evenodd" d="M33.9712 6.46663C33.9235 6.40831 33.8751 6.34775 33.8262 6.28528C33.8753 6.34775 33.9235 6.40831 33.9712 6.46663Z" fill="#D8EBE0"/>
<path d="M33.9712 6.46663C33.9235 6.40831 33.8751 6.34775 33.8262 6.28528C33.8753 6.34775 33.9235 6.40831 33.9712 6.46663" stroke="#353E82" stroke-width="0.28"/>
<path fill-rule="evenodd" clip-rule="evenodd" d="M35.9335 15.6595C35.7632 14.7572 35.5928 14.4314 35.9335 13.8751C36.2741 13.319 36.5013 14.0845 37.417 13.8751C37.5295 14.1412 37.6371 14.4183 37.7188 14.6942C37.9053 15.323 37.8457 18.3103 37.9805 20.7685H37.9803C37.9803 20.7685 37.2394 19.4851 37.1826 18.1968C37.1257 16.9086 36.1038 16.5618 35.9335 15.6595Z" fill="#D8EBE0"/>
<path d="M35.9335 15.6595C35.7632 14.7572 35.5928 14.4314 35.9335 13.8751C36.2741 13.319 36.5013 14.0845 37.417 13.8751C37.5295 14.1412 37.6371 14.4183 37.7188 14.6942C37.9053 15.323 37.8457 18.3103 37.9805 20.7685H37.9803C37.9803 20.7685 37.2394 19.4851 37.1826 18.1968C37.1257 16.9086 36.1038 16.5618 35.9335 15.6595" stroke="#353E82" stroke-width="0.28"/>
<path fill-rule="evenodd" clip-rule="evenodd" d="M35.7369 17.2184C36.2175 18.4941 36.5826 21.934 36.5826 21.934C36.5826 21.934 34.0077 16.7126 33.8989 15.6595C33.8989 15.6595 35.2564 15.9428 35.7369 17.2184Z" fill="#D8EBE0"/>
<path d="M35.7369 17.2184C36.2175 18.4941 36.5826 21.934 36.5826 21.934C36.5826 21.934 34.0077 16.7126 33.8989 15.6595C33.8989 15.6595 35.2564 15.9428 35.7369 17.2184" stroke="#353E82" stroke-width="0.28"/>
<path fill-rule="evenodd" clip-rule="evenodd" d="M16.8545 5.81621C16.8545 7.71754 17.0305 7.54205 17.0305 7.87117C18.1367 7.6738 18.8658 6.84007 20.1984 4.88742C21.5308 2.93494 22.6622 3.24201 22.6622 2.78132C22.6622 2.43016 21.8828 2.27671 21.6146 1.92572C19.2347 1.92572 16.8545 3.91471 16.8545 5.81621Z" stroke="#353E82" stroke-width="0.282486" stroke-linejoin="round"/>
<path fill-rule="evenodd" clip-rule="evenodd" d="M25.4523 4.00988C25.3047 3.75534 23.1896 2.78125 22.6617 2.78125C22.6617 3.24194 21.5302 2.93487 20.1978 4.88735C19.703 5.61258 19.2913 6.18315 18.9126 6.62438H18.9128C19.5134 6.91337 19.3178 7.14708 19.871 7.56403C20.424 7.9808 22.2594 8.61699 23.3907 8.61699C24.5222 8.61699 26.0949 8.02472 26.0949 8.02472V6.53276C26.0949 4.9094 25.6817 4.40479 25.4523 4.00988Z" stroke="#353E82" stroke-width="0.282486" stroke-linejoin="round"/>
<path fill-rule="evenodd" clip-rule="evenodd" d="M23.8271 11.3539V9.87537C23.8271 9.36335 24.0618 8.98309 24.4976 8.98309C24.9334 8.98309 25.8217 8.66138 25.9223 8.66138C26.0228 8.66138 26.2241 8.69065 26.2241 8.87355V10.8624C26.2241 11.1512 25.8302 11.1694 25.2854 11.1694C24.9669 11.1694 24.288 11.4197 24.1457 11.544C24.0032 11.6684 23.8271 11.5001 23.8271 11.3539Z" stroke="#353E82" stroke-width="0.282486" stroke-linejoin="round"/>
<path fill-rule="evenodd" clip-rule="evenodd" d="M26.2231 12.1621C26.2231 11.9427 26.1059 11.7672 25.8041 11.7672H25.033C24.7312 11.7672 23.8765 12.2205 23.8765 12.63V13.5828C23.8765 13.7729 23.9771 13.8752 24.2453 13.8752H25.4186C25.5694 13.8752 26.2231 13.6119 26.2231 13.2463V12.1621Z" stroke="#353E82" stroke-width="0.282486" stroke-linejoin="round"/>
<path fill-rule="evenodd" clip-rule="evenodd" d="M23.8062 15.868V14.78C23.8062 14.5935 23.9192 14.3302 24.2461 14.3302H25.6037C25.8048 14.3302 26.2072 14.5496 26.2072 14.7911V15.868C26.2072 16.0324 26.1192 16.3176 25.9055 16.3176H24.4975C24.2711 16.3176 23.8062 16.1311 23.8062 15.868Z" stroke="#353E82" stroke-width="0.282486" stroke-linejoin="round"/>
<path fill-rule="evenodd" clip-rule="evenodd" d="M25.8376 16.844H24.4464C24.1782 16.844 23.8765 17.0341 23.8765 17.2535C23.8765 17.4729 25.1169 22.2998 26.0891 22.2998H26.2063C26.2568 21.1602 26.2063 17.4485 26.2063 17.2535C26.2063 17.0195 26.156 16.844 25.8376 16.844Z" stroke="#353E82" stroke-width="0.282486" stroke-linejoin="round"/>
<path fill-rule="evenodd" clip-rule="evenodd" d="M29.1902 11.3539V9.87537C29.1902 9.36335 28.9555 8.98309 28.5198 8.98309C28.084 8.98309 27.1957 8.66138 27.095 8.66138C26.9946 8.66138 26.7935 8.69065 26.7935 8.87355V10.8624C26.7935 11.1512 27.1874 11.1694 27.7321 11.1694C28.0504 11.1694 28.7294 11.4197 28.8719 11.544C29.0142 11.6684 29.1902 11.5001 29.1902 11.3539Z" stroke="#353E82" stroke-width="0.282486" stroke-linejoin="round"/>
<path fill-rule="evenodd" clip-rule="evenodd" d="M26.7935 12.1621C26.7935 11.9427 26.9107 11.7672 27.2125 11.7672H27.9833C28.2851 11.7672 29.1401 12.2205 29.1401 12.63V13.5828C29.1401 13.7729 29.0394 13.8752 28.7712 13.8752H27.5979C27.4471 13.8752 26.7935 13.6119 26.7935 13.2463V12.1621Z" stroke="#353E82" stroke-width="0.282486" stroke-linejoin="round"/>
<path fill-rule="evenodd" clip-rule="evenodd" d="M29.2116 15.868V14.78C29.2116 14.5935 29.0985 14.3302 28.7717 14.3302H27.4141C27.213 14.3302 26.8105 14.5496 26.8105 14.7911V15.868C26.8105 16.0324 26.8986 16.3176 27.1123 16.3176H28.5203C28.7465 16.3176 29.2116 16.1311 29.2116 15.868Z" stroke="#353E82" stroke-width="0.282486" stroke-linejoin="round"/>
<path fill-rule="evenodd" clip-rule="evenodd" d="M27.1787 16.844H28.5699C28.8381 16.844 29.1399 17.0341 29.1399 17.2535C29.1399 17.4729 27.8995 22.2998 26.9273 22.2998H26.8101C26.7595 21.1602 26.8101 17.4485 26.8101 17.2535C26.8101 17.0195 26.8602 16.844 27.1787 16.844Z" stroke="#353E82" stroke-width="0.282486" stroke-linejoin="round"/>
<path fill-rule="evenodd" clip-rule="evenodd" d="M19.3498 6.07892V6.07892C19.2969 6.14865 19.2452 6.21631 19.1938 6.28173C19.2452 6.21631 19.2969 6.14883 19.3498 6.07892Z" stroke="#353E82" stroke-width="0.282486" stroke-linejoin="round"/>
<path fill-rule="evenodd" clip-rule="evenodd" d="M18.9128 6.62446V6.62446C18.9468 6.58485 18.9815 6.54265 19.0161 6.50098C18.3298 7.32954 17.7624 7.74046 17.03 7.87117C17.03 8.37871 16.2256 9.16559 16.2256 12.303C16.2256 12.9391 17.9659 13.7575 18.7648 12.303C19.2831 11.3594 19.4779 10.9662 19.5991 10.7345C19.6606 10.5482 19.7191 10.4381 19.7706 10.4381C19.9464 10.1748 19.871 7.5641 19.871 7.5641C19.318 7.14715 19.5134 6.91345 18.9128 6.62446Z" stroke="#353E82" stroke-width="0.282486" stroke-linejoin="round"/>
<path fill-rule="evenodd" clip-rule="evenodd" d="M19.0459 6.46663C19.0937 6.40831 19.1418 6.34775 19.1908 6.28528C19.1418 6.34775 19.0937 6.40831 19.0459 6.46663Z" stroke="#353E82" stroke-width="0.282486" stroke-linejoin="round"/>
<path fill-rule="evenodd" clip-rule="evenodd" d="M26.5088 -9C24.233 -9 23.0952 -7.24334 23.0952 -6.32677C23.0952 -5.41021 23.4889 -1.62924 23.4889 -1.62924C23.4889 -1.62924 25.1083 0.280181 26.5088 0.280181C27.9092 0.280181 29.5286 -1.62924 29.5286 -1.62924C29.5286 -1.62924 29.9223 -5.41021 29.9223 -6.32677C29.9223 -7.24334 28.7845 -9 26.5088 -9Z" stroke="#353E82" stroke-width="0.282486" stroke-linejoin="round"/>
<path fill-rule="evenodd" clip-rule="evenodd" d="M29.8102 18.5556C29.8102 16.932 30.2963 17.0636 30.2963 16.2008C30.2963 14.4018 29.8102 12.8661 29.8102 12.0616C29.8102 11.2572 29.8939 8.61717 29.8939 8.61717L29.8544 8.60925C29.7757 8.61442 29.6993 8.61717 29.6257 8.61717C28.4944 8.61717 26.9217 8.0249 26.9217 8.0249H26.5084H26.0949C26.0949 8.0249 24.5221 8.61717 23.3907 8.61717C23.3175 8.61717 23.2409 8.61442 23.1621 8.60925L23.1225 8.61717C23.1225 8.61717 23.2063 11.2572 23.2063 12.0616C23.2063 12.8661 22.7202 14.4018 22.7202 16.2008C22.7202 17.0636 23.2063 16.932 23.2063 18.5556C23.2063 19.126 22.7035 19.5281 22.0498 19.5281C22.0498 20.8374 25.5697 23.2944 26.5084 23.2944C27.4468 23.2944 30.9668 20.8374 30.9668 19.5281C30.3129 19.5281 29.8102 19.126 29.8102 18.5556Z" stroke="#353E82" stroke-width="0.282486" stroke-linejoin="round"/>
<path d="M30.9668 19.5282C31.4026 18.541 32.3412 17.5683 32.3412 17.5683" stroke="#353E82" stroke-width="0.282486" stroke-linejoin="round"/>
<path fill-rule="evenodd" clip-rule="evenodd" d="M20.1879 35.3017C20.1879 35.4784 20.3067 35.5803 20.4073 35.5803C20.508 35.5803 20.7411 34.5839 20.7411 33.9203C20.7006 33.9213 20.6755 33.8302 20.6755 33.5746C20.6755 32.6658 19.6949 31.0023 19.6949 27.8138C19.6949 24.6253 20.8095 21.1443 21.0531 19.7664L21.0006 19.124C20.9779 18.7596 20.9526 17.8775 20.9526 17.8775L20.6755 17.5496C20.6755 17.5559 20.6755 17.5618 20.6755 17.5683C20.6755 18.2045 19.4519 18.7896 19.4519 21.3345C19.4519 21.9927 18.6475 23.2212 18.6475 25.8832C18.6475 26.0394 18.649 26.1929 18.6518 26.3442C18.6526 26.3856 18.6542 26.4255 18.6552 26.4665C18.6577 26.5752 18.6603 26.6837 18.6642 26.79C18.6662 26.8409 18.669 26.8904 18.6711 26.9407C18.6753 27.035 18.6792 27.1296 18.6846 27.2221C18.6875 27.2753 18.6913 27.3271 18.6944 27.3796C18.7 27.4673 18.7055 27.5551 18.7118 27.6411C18.7157 27.6938 18.7203 27.7454 18.7244 27.7975C18.7313 27.8817 18.7382 27.9657 18.7457 28.048C18.7505 28.0985 18.7558 28.1479 18.7607 28.1979C18.7688 28.2802 18.7771 28.3625 18.786 28.4431C18.7913 28.4906 18.7971 28.5373 18.8024 28.5843C18.8121 28.6658 18.8217 28.7469 18.832 28.8268C18.8377 28.8709 18.8434 28.9143 18.8494 28.9577C18.8602 29.039 18.8715 29.1199 18.8831 29.1995C18.8888 29.2396 18.895 29.2793 18.9009 29.319C18.9133 29.401 18.9259 29.4823 18.9392 29.5626C18.9449 29.5979 18.9506 29.6328 18.9565 29.668C18.9705 29.7515 18.9848 29.8345 18.9996 29.9163C19.0049 29.9463 19.0102 29.9759 19.0157 30.0055C19.0315 30.0921 19.0477 30.1781 19.0641 30.2626C19.0686 30.2857 19.0732 30.3086 19.0777 30.3315C19.0957 30.4232 19.1142 30.5137 19.1328 30.603C19.1357 30.6174 19.1389 30.6322 19.142 30.6467C19.163 30.7464 19.1845 30.8448 19.206 30.9415C19.2066 30.9443 19.2072 30.9472 19.208 30.95C19.6171 32.7797 20.1123 34.1053 20.1871 35.301L20.1879 35.3017Z" stroke="#353E82" stroke-width="0.282486" stroke-linejoin="round"/>
<path fill-rule="evenodd" clip-rule="evenodd" d="M26.5084 0.28033C26.2366 0.28033 25.9568 0.207997 25.682 0.0919189H25.6816C25.6816 0.931157 25.8715 3.35914 26.5084 3.35914C27.1453 3.35914 27.3351 0.931157 27.3351 0.0919189H27.3347C27.06 0.207997 26.7802 0.28033 26.5084 0.28033Z" stroke="#353E82" stroke-width="0.282486" stroke-linejoin="round"/>
<path fill-rule="evenodd" clip-rule="evenodd" d="M21.0526 19.7666C20.809 21.1443 19.6943 24.6255 19.6943 27.814C19.6943 31.0023 20.675 32.6658 20.675 33.5746C20.675 34.4834 20.9934 33.3134 21.1779 33.3134C21.362 33.3134 22.0352 34.4285 22.0352 35.1196C22.0352 35.152 22.0386 35.1703 22.0451 35.1759C22.0427 35.1412 22.0451 35.101 22.0437 35.0649C22.0402 34.9717 22.0364 34.8785 22.0402 34.7776C22.0413 34.7421 22.0453 34.7039 22.0471 34.6677C22.0534 34.5544 22.0603 34.4404 22.0731 34.3209C22.0755 34.2986 22.079 34.2757 22.0816 34.2534C22.1659 33.5162 22.3482 32.6985 22.4554 32.0553C22.4588 32.0369 22.4627 32.0158 22.4657 31.9978C22.4878 31.8612 22.5061 31.7332 22.5186 31.6166C22.619 30.6811 23.2557 28.7517 23.5646 27.6102C23.5646 27.6102 23.5652 27.6002 23.5662 27.5853C23.5675 27.566 23.5701 27.5243 23.5739 27.4668C23.5744 27.458 23.575 27.4451 23.5756 27.4356C23.5788 27.3827 23.5823 27.3223 23.5867 27.2458C23.5867 27.2439 23.5867 27.2415 23.5869 27.2398C23.5916 27.1542 23.5966 27.0565 23.6019 26.9456C23.6019 26.9413 23.6021 26.9358 23.6023 26.9315C23.6179 26.596 23.6339 26.1582 23.641 25.6648C23.6417 25.6264 23.6415 25.5852 23.6419 25.5463C23.6435 25.4161 23.6449 25.2858 23.6449 25.15C23.6451 24.9735 23.6408 24.5991 23.6408 24.5931C23.6408 23.7628 22.5472 21.0965 22.1217 19.9377C22.0372 19.7077 22.0771 19.6217 22.0492 19.5282C21.8821 18.9645 20.9519 17.8776 20.9519 17.8776L21.0526 19.7666Z" stroke="#353E82" stroke-width="0.282486" stroke-linejoin="round"/>
<path fill-rule="evenodd" clip-rule="evenodd" d="M23.6416 24.5933C23.6416 24.5992 23.6416 24.6049 23.6416 24.6107C23.6448 24.7931 23.646 24.9734 23.6458 25.1498C23.6458 25.2857 23.6444 25.416 23.6428 25.5461C23.6424 25.585 23.6426 25.6263 23.6418 25.6645C23.6347 26.1581 23.6187 26.5959 23.6033 26.9314C23.6029 26.9357 23.6027 26.9411 23.6027 26.9455C23.5974 27.0563 23.5925 27.1541 23.5879 27.2395C23.5877 27.2414 23.5877 27.2438 23.5875 27.2457C23.5834 27.322 23.5796 27.3826 23.5765 27.4353C23.5759 27.445 23.5755 27.4577 23.5747 27.4667C23.5712 27.5242 23.5684 27.5657 23.567 27.5852C23.566 27.6001 23.5654 27.6101 23.5654 27.6101C23.2566 28.7516 22.6201 30.6809 22.5194 31.6165C22.507 31.7331 22.4886 31.8611 22.4665 31.9977C22.4665 31.998 22.4663 31.9984 22.4663 31.9987C22.4373 32.1775 22.401 32.374 22.3627 32.5765C22.3303 32.748 22.2966 32.9259 22.2632 33.1066C22.2623 33.1118 22.2613 33.1171 22.2603 33.1223C22.2261 33.3072 22.1928 33.4951 22.1628 33.6818C22.162 33.6853 22.1616 33.6889 22.161 33.6923C22.1304 33.8816 22.1036 34.0698 22.0827 34.2531C22.0819 34.2607 22.0807 34.2681 22.0797 34.2756C22.0779 34.291 22.0754 34.307 22.0738 34.3223C22.0615 34.4389 22.0546 34.5503 22.0485 34.6611C22.0475 34.6781 22.0461 34.6959 22.0452 34.7127C22.0436 34.7346 22.0418 34.7565 22.041 34.7775C22.0375 34.8782 22.041 34.9714 22.0448 35.0648V35.0692C22.0469 35.1269 22.045 35.1895 22.0503 35.2439C22.1507 36.2676 22.9887 36.2092 22.9887 36.2092C23.5461 36.2092 24.6375 35.9069 24.9902 35.3508C25.0289 35.2298 25.0666 35.1063 25.1035 34.9816C25.4325 33.8694 25.679 32.6189 25.679 31.3241C25.679 31.0971 25.6863 30.8524 25.6983 30.5949C25.6983 28.774 24.6667 26.5567 23.6416 24.5933Z" stroke="#353E82" stroke-width="0.282486" stroke-linejoin="round"/>
<path fill-rule="evenodd" clip-rule="evenodd" d="M32.8291 35.3017C32.8291 35.4784 32.7101 35.5803 32.6096 35.5803C32.509 35.5803 32.2759 34.5839 32.2759 33.9203C32.3162 33.9213 32.3414 33.8302 32.3414 33.5746C32.3414 32.6658 33.3221 31.0023 33.3221 27.8138C33.3221 24.6253 32.2074 21.1443 31.9639 19.7664L32.0164 19.124C32.0391 18.7596 32.0643 17.8775 32.0643 17.8775L32.3414 17.5496C32.3414 17.5559 32.3414 17.5618 32.3414 17.5683C32.3414 18.2045 33.5651 18.7896 33.5651 21.3345C33.5651 21.9927 34.3695 23.2212 34.3695 25.8832C34.3695 26.0394 34.3679 26.1929 34.3652 26.3442C34.3644 26.3856 34.3628 26.4255 34.3618 26.4665C34.3592 26.5752 34.3565 26.6837 34.3525 26.79C34.3507 26.8409 34.348 26.8904 34.3458 26.9407C34.3417 27.035 34.3377 27.1296 34.3324 27.2221C34.3294 27.2753 34.3257 27.3271 34.3223 27.3796C34.317 27.4673 34.3115 27.5551 34.3052 27.6411C34.3012 27.6938 34.2967 27.7454 34.2923 27.7975C34.2856 27.8817 34.2787 27.9657 34.271 28.048C34.2665 28.0985 34.2611 28.1479 34.2562 28.1979C34.2481 28.2802 34.2398 28.3625 34.2309 28.4431C34.2256 28.4906 34.2199 28.5373 34.2146 28.5843C34.2049 28.6658 34.1952 28.7469 34.185 28.8268C34.1792 28.8709 34.1735 28.9143 34.1676 28.9577C34.1565 29.039 34.1455 29.1199 34.1338 29.1995C34.1281 29.2396 34.122 29.2793 34.1161 29.319C34.1037 29.401 34.091 29.4823 34.0778 29.5626C34.0721 29.5979 34.0664 29.6328 34.0604 29.668C34.0464 29.7515 34.032 29.8345 34.0174 29.9163C34.0121 29.9463 34.0067 29.9759 34.0012 30.0055C33.9854 30.0921 33.9692 30.1781 33.9527 30.2626C33.9483 30.2857 33.9438 30.3086 33.9393 30.3315C33.9213 30.4232 33.9027 30.5137 33.8842 30.603C33.881 30.6174 33.8781 30.6322 33.8749 30.6467C33.8538 30.7464 33.8325 30.8448 33.811 30.9415C33.8104 30.9443 33.8098 30.9472 33.809 30.95C33.3999 32.7797 32.9047 34.1053 32.8299 35.301L32.8291 35.3017Z" stroke="#353E82" stroke-width="0.282486" stroke-linejoin="round"/>
<path fill-rule="evenodd" clip-rule="evenodd" d="M31.9636 19.7666C32.2072 21.1443 33.3219 24.6255 33.3219 27.814C33.3219 31.0023 32.3412 32.6658 32.3412 33.5746C32.3412 34.4834 32.0228 33.3134 31.8383 33.3134C31.654 33.3134 30.981 34.4285 30.981 35.1196C30.981 35.152 30.9774 35.1703 30.9711 35.1759C30.9735 35.1412 30.9711 35.101 30.9725 35.0649C30.976 34.9717 30.9798 34.8785 30.976 34.7776C30.9748 34.7421 30.9709 34.7039 30.9689 34.6677C30.9628 34.5544 30.9557 34.4404 30.9431 34.3209C30.9405 34.2986 30.9372 34.2757 30.9344 34.2534C30.8503 33.5162 30.668 32.6985 30.5608 32.0553C30.5574 32.0369 30.5535 32.0158 30.5505 31.9978C30.5284 31.8612 30.5101 31.7332 30.4976 31.6166C30.397 30.6811 29.7605 28.7517 29.4516 27.6102C29.4516 27.6102 29.451 27.6002 29.45 27.5853C29.4487 27.566 29.4461 27.5243 29.4423 27.4668C29.4417 27.458 29.441 27.4451 29.4406 27.4356C29.4374 27.3827 29.4337 27.3223 29.4295 27.2458C29.4293 27.2439 29.4293 27.2415 29.4293 27.2398C29.4246 27.1542 29.4196 27.0565 29.4143 26.9456C29.4143 26.9413 29.4141 26.9358 29.4137 26.9315C29.3983 26.596 29.3823 26.1582 29.3752 25.6648C29.3744 25.6264 29.3746 25.5852 29.3741 25.5463C29.3727 25.4161 29.3711 25.2858 29.3711 25.15C29.3711 24.9735 29.3754 24.5991 29.3754 24.5931C29.3754 23.7628 30.469 21.0965 30.8945 19.9377C30.979 19.7077 30.9391 19.6217 30.967 19.5282C31.1341 18.9645 32.0643 17.8776 32.0643 17.8776L31.9636 19.7666Z" stroke="#353E82" stroke-width="0.282486" stroke-linejoin="round"/>
<path fill-rule="evenodd" clip-rule="evenodd" d="M29.3751 24.5933C29.3751 24.5992 29.3749 24.6049 29.3749 24.6107C29.3719 24.7931 29.3707 24.9734 29.3707 25.1498C29.3707 25.2857 29.3723 25.416 29.3737 25.5461C29.3743 25.585 29.3741 25.6263 29.3749 25.6645C29.382 26.1581 29.3979 26.5959 29.4133 26.9314C29.4137 26.9357 29.4137 26.9411 29.4139 26.9455C29.4193 27.0563 29.4242 27.1541 29.4287 27.2395C29.4289 27.2414 29.4289 27.2438 29.4291 27.2457C29.4333 27.322 29.4368 27.3826 29.4402 27.4353C29.4406 27.445 29.4412 27.4577 29.442 27.4667C29.4455 27.5242 29.4483 27.5657 29.4495 27.5852C29.4506 27.6001 29.4512 27.6101 29.4512 27.6101C29.7601 28.7516 30.3966 30.6809 30.4972 31.6165C30.5097 31.7331 30.528 31.8611 30.5501 31.9977C30.5501 31.998 30.5503 31.9984 30.5503 31.9987C30.5793 32.1775 30.6157 32.374 30.654 32.5765C30.6861 32.748 30.7201 32.9259 30.7534 33.1066C30.7544 33.1118 30.7554 33.1171 30.7564 33.1223C30.7905 33.3072 30.8239 33.4951 30.8539 33.6818C30.8545 33.6853 30.8551 33.6889 30.8557 33.6923C30.886 33.8816 30.9131 34.0698 30.934 34.2531C30.9348 34.2607 30.9358 34.2681 30.937 34.2756C30.9387 34.291 30.9413 34.307 30.9429 34.3223C30.9551 34.4389 30.962 34.5503 30.9682 34.6611C30.9691 34.6781 30.9705 34.6959 30.9715 34.7127C30.9731 34.7346 30.9749 34.7565 30.9757 34.7775C30.9792 34.8782 30.9757 34.9714 30.9719 35.0648V35.0692C30.9697 35.1269 30.9717 35.1895 30.9664 35.2439C30.8659 36.2676 30.0277 36.2092 30.0277 36.2092C29.4706 36.2092 28.379 35.9069 28.0265 35.3508C27.9878 35.2298 27.9501 35.1063 27.913 34.9816C27.5842 33.8694 27.3377 32.6189 27.3377 31.3241C27.3377 31.0971 27.3304 30.8524 27.3184 30.5949C27.3184 28.774 28.35 26.5567 29.3751 24.5933Z" stroke="#353E82" stroke-width="0.282486" stroke-linejoin="round"/>
<path fill-rule="evenodd" clip-rule="evenodd" d="M24.1696 48.3701C24.1702 48.3715 24.171 48.3727 24.1716 48.3739C24.1471 48.1848 24.1287 47.9948 24.1287 47.8076C24.1287 46.6961 24.0954 43.5003 24.0954 43.5003C24.0954 43.5003 24.2211 42.4472 24.2211 41.3501C24.2211 40.2533 23.4417 39.7047 23.4417 39.2222C23.017 40.2452 22.0006 44.158 24.1696 48.3701Z" stroke="#353E82" stroke-width="0.282486" stroke-linejoin="round"/>
<path fill-rule="evenodd" clip-rule="evenodd" d="M19.7202 40.3848C19.7202 42.6954 21.1418 45.5596 21.5312 47.5C21.5312 47.499 21.5314 47.4981 21.5316 47.4971C22.1126 42.1897 20.5898 40.6914 19.7729 39.0591C19.7409 39.4125 19.7202 39.8363 19.7202 40.3848Z" stroke="#353E82" stroke-width="0.282486" stroke-linejoin="round"/>
<path fill-rule="evenodd" clip-rule="evenodd" d="M28.8474 48.3701C28.8468 48.3715 28.846 48.3727 28.8452 48.3739C28.8699 48.1848 28.8883 47.9948 28.8883 47.8076C28.8883 46.6961 28.9216 43.5003 28.9216 43.5003C28.9216 43.5003 28.7959 42.4472 28.7959 41.3501C28.7959 40.2533 29.5753 39.7047 29.5753 39.2222C29.9998 40.2452 31.0164 44.158 28.8474 48.3701Z" stroke="#353E82" stroke-width="0.282486" stroke-linejoin="round"/>
<path fill-rule="evenodd" clip-rule="evenodd" d="M33.2968 40.3848C33.2968 42.6954 31.8754 45.5596 31.486 47.5C31.4858 47.499 31.4856 47.4981 31.4854 47.4971C30.9044 42.1897 32.4274 40.6914 33.2443 39.0591C33.2763 39.4125 33.2968 39.8363 33.2968 40.3848Z" stroke="#353E82" stroke-width="0.282486" stroke-linejoin="round"/>
<path fill-rule="evenodd" clip-rule="evenodd" d="M16.2256 12.3029C16.2256 12.146 16.2291 11.9995 16.2329 11.8541C16.2285 11.9979 16.2256 12.146 16.2256 12.3029Z" stroke="#353E82" stroke-width="0.282486" stroke-linejoin="round"/>
<path fill-rule="evenodd" clip-rule="evenodd" d="M38.9604 24.3184C38.7824 23.9484 38.4698 22.7878 38.3804 21.8239C38.1418 19.2547 37.9345 15.4212 37.719 14.6943C37.4228 13.6945 36.7914 12.6613 36.7914 12.3028C36.7914 9.16558 35.987 8.3787 35.987 7.87116C35.987 7.54205 36.1628 7.71754 36.1628 5.81621C36.1628 3.91488 33.7829 1.92572 31.4027 1.92572L29.0896 0.667806V-1.14569H29.0683C28.4871 -0.580114 27.4488 0.280307 26.5085 0.280307C25.5683 0.280307 24.53 -0.580114 23.9488 -1.14569H23.9275V0.667806L21.6144 1.92572C19.2342 1.92572 16.8543 3.91488 16.8543 5.81621C16.8543 7.71754 17.0303 7.54205 17.0303 7.87116C17.0303 8.3787 16.2257 9.16558 16.2257 12.3028C16.2257 12.6613 15.5941 13.6945 15.2979 14.6943C15.0825 15.4212 14.8755 19.2547 14.6369 21.8239C14.5473 22.7878 14.2349 23.9484 14.0567 24.3184C13.6406 25.1824 15.6474 26.5059 15.7816 26.5529C15.9549 26.6141 16.0139 26.3105 16.0727 26.192C16.3141 25.7044 15.4157 25.1249 15.4735 24.7865C15.5432 24.3797 15.6255 23.6653 15.9492 23.7793C16.273 23.8933 16.3826 24.541 16.7062 24.6551C17.0299 24.7691 17.1688 24.6933 17.2679 24.479C17.3259 24.3535 16.9581 23.5675 16.6279 22.8295C16.3946 22.308 16.4345 21.9341 16.4345 21.9341C16.4345 21.9341 19.0094 16.7127 19.1182 15.6596C19.4681 15.1746 19.3055 14.9317 19.3503 14.5801C19.5297 13.1684 19.5318 10.438 19.7707 10.438C19.997 10.438 20.0221 11.2937 20.0221 11.8202C20.0221 13.027 21.0529 13.0707 21.0529 14.6943C21.0529 15.9227 20.6758 15.4183 20.6758 17.5683C20.6758 18.2045 19.4521 18.7895 19.4521 21.3344C19.4521 21.9927 18.6477 23.2211 18.6477 25.8832C18.6477 30.973 20.1981 33.4521 20.1981 35.6023C20.1981 37.9058 19.7203 37.7084 19.7203 40.3849C19.7203 43.0616 21.6312 46.484 21.6312 48.3488C21.6312 52.4515 20.0724 51.3984 20.0724 52.3418C20.0724 52.5905 20.374 52.7513 20.374 52.7513L23.0391 53H24.4134L24.8326 52.5612C24.8326 52.5612 24.4637 52.0055 24.4637 51.7128C24.4637 51.4204 24.648 50.85 24.648 50.4989C24.648 50.1479 24.1286 48.9192 24.1286 47.8077C24.1286 46.6962 24.095 43.5003 24.095 43.5003C24.095 43.5003 24.2207 42.4473 24.2207 41.3502C24.2207 40.2534 23.4414 39.7048 23.4414 39.2223C23.4414 38.7395 25.6788 35.2293 25.6788 31.3242C25.6788 29.2399 26.2571 25.7295 26.2571 23.2943H26.5085H26.76C26.76 25.7295 27.3383 29.2399 27.3383 31.3242C27.3383 35.2293 29.5759 38.7395 29.5759 39.2223C29.5759 39.7048 28.7964 40.2534 28.7964 41.3502C28.7964 42.4473 28.9221 43.5003 28.9221 43.5003C28.9221 43.5003 28.8887 46.6962 28.8887 47.8077C28.8887 48.9192 28.3691 50.1479 28.3691 50.4989C28.3691 50.85 28.5534 51.4204 28.5534 51.7128C28.5534 52.0055 28.1847 52.5612 28.1847 52.5612L28.6037 53H29.9781L32.6431 52.7513C32.6431 52.7513 32.9449 52.5905 32.9449 52.3418C32.9449 51.3984 31.3861 52.4515 31.3861 48.3488C31.3861 46.484 33.2968 43.0616 33.2968 40.3849C33.2968 37.7084 32.819 37.9058 32.819 35.6023C32.819 33.4521 34.3694 30.973 34.3694 25.8832C34.3694 23.2211 33.565 21.9927 33.565 21.3344C33.565 18.7895 32.3413 18.2045 32.3413 17.5683C32.3413 15.4183 31.9642 15.9227 31.9642 14.6943C31.9642 13.0707 32.995 13.027 32.995 11.8202C32.995 11.2937 33.0203 10.438 33.2464 10.438C33.4852 10.438 33.4874 13.1684 33.6668 14.5801C33.7116 14.9317 33.549 15.1746 33.8989 15.6596C34.0079 16.7127 36.5828 21.9341 36.5828 21.9341C36.5828 21.9341 36.6225 22.308 36.3894 22.8295C36.0592 23.5675 35.6911 24.3535 35.7492 24.479C35.8482 24.6933 35.9872 24.7691 36.3109 24.6551C36.6347 24.541 36.7443 23.8933 37.0679 23.7793C37.3916 23.6653 37.4741 24.3797 37.5436 24.7865C37.6016 25.1249 36.703 25.7044 36.9444 26.192C37.0032 26.3105 37.0624 26.6141 37.2357 26.5529C37.3695 26.5059 39.3765 25.1824 38.9604 24.3184Z" stroke="#353E82" stroke-width="0.282486" stroke-linejoin="round"/>
<path fill-rule="evenodd" clip-rule="evenodd" d="M17.0832 15.6595C17.2535 14.7572 17.4238 14.4314 17.0832 13.8751C16.7425 13.319 16.5154 14.0845 15.5996 13.8751C15.4871 14.1412 15.3795 14.4183 15.2976 14.6942C15.1113 15.323 15.1709 18.3103 15.0361 20.7685H15.0363C15.0363 20.7685 15.7772 19.4851 15.8341 18.1968C15.8907 16.9086 16.9128 16.5618 17.0832 15.6595Z" stroke="#353E82" stroke-width="0.282486" stroke-linejoin="round"/>
<path fill-rule="evenodd" clip-rule="evenodd" d="M17.2798 17.2184C16.7992 18.4941 16.4341 21.934 16.4341 21.934C16.4341 21.934 19.009 16.7126 19.1178 15.6595C19.1178 15.6595 17.7603 15.9428 17.2798 17.2184Z" stroke="#353E82" stroke-width="0.282486" stroke-linejoin="round"/>
<path fill-rule="evenodd" clip-rule="evenodd" d="M36.1627 5.81621C36.1627 7.71754 35.9867 7.54205 35.9867 7.87117C34.8805 7.6738 34.1514 6.84007 32.819 4.88742C31.4864 2.93494 30.355 3.24201 30.355 2.78132C30.355 2.43016 31.1344 2.27671 31.4026 1.92572C33.7825 1.92572 36.1627 3.91471 36.1627 5.81621Z" stroke="#353E82" stroke-width="0.282486" stroke-linejoin="round"/>
<path fill-rule="evenodd" clip-rule="evenodd" d="M27.5645 4.00988C27.7123 3.75534 29.8272 2.78125 30.3552 2.78125C30.3552 3.24194 31.4866 2.93487 32.8192 4.88735C33.314 5.61258 33.7255 6.18315 34.1042 6.62438C33.5037 6.91337 33.699 7.14708 33.1458 7.56403C32.5928 7.9808 30.7576 8.61699 29.6261 8.61699C28.4946 8.61699 26.9219 8.02472 26.9219 8.02472V6.53276C26.9219 4.9094 27.3353 4.40479 27.5645 4.00988Z" stroke="#353E82" stroke-width="0.282486" stroke-linejoin="round"/>
<path fill-rule="evenodd" clip-rule="evenodd" d="M33.666 6.07892V6.07892C33.7189 6.14865 33.7708 6.21631 33.8219 6.28173C33.7708 6.21631 33.7189 6.14883 33.666 6.07892Z" stroke="#353E82" stroke-width="0.282486" stroke-linejoin="round"/>
<path fill-rule="evenodd" clip-rule="evenodd" d="M34.1041 6.62446V6.62446C34.0702 6.58485 34.0355 6.54265 34.0007 6.50098C34.6871 7.32954 35.2546 7.74046 35.987 7.87117C35.987 8.37871 36.7914 9.16559 36.7914 12.303C36.7914 12.9392 35.0511 13.7575 34.2522 12.303C33.7339 11.3594 33.5389 10.9662 33.4179 10.7345C33.3561 10.5482 33.2979 10.4381 33.2464 10.4381C33.0706 10.1748 33.1459 7.5641 33.1459 7.5641C33.699 7.14715 33.5036 6.91345 34.1041 6.62446Z" stroke="#353E82" stroke-width="0.282486" stroke-linejoin="round"/>
<path fill-rule="evenodd" clip-rule="evenodd" d="M33.9712 6.46663C33.9235 6.40831 33.8751 6.34775 33.8262 6.28528C33.8753 6.34775 33.9235 6.40831 33.9712 6.46663Z" stroke="#353E82" stroke-width="0.282486" stroke-linejoin="round"/>
<path fill-rule="evenodd" clip-rule="evenodd" d="M35.9335 15.6595C35.7632 14.7572 35.5928 14.4314 35.9335 13.8751C36.2741 13.319 36.5013 14.0845 37.417 13.8751C37.5295 14.1412 37.6371 14.4183 37.7188 14.6942C37.9053 15.323 37.8457 18.3103 37.9805 20.7685H37.9803C37.9803 20.7685 37.2394 19.4851 37.1826 18.1968C37.1257 16.9086 36.1038 16.5618 35.9335 15.6595Z" stroke="#353E82" stroke-width="0.282486" stroke-linejoin="round"/>
<path fill-rule="evenodd" clip-rule="evenodd" d="M35.7369 17.2184C36.2175 18.4941 36.5826 21.934 36.5826 21.934C36.5826 21.934 34.0077 16.7126 33.8989 15.6595C33.8989 15.6595 35.2564 15.9428 35.7369 17.2184Z" stroke="#353E82" stroke-width="0.282486" stroke-linejoin="round"/>
</g>
</g>
<defs>
<clipPath id="clip0_74_2359">
<rect width="53" height="53" fill="white"/>
</clipPath>
</defs>
</svg>
