<svg xmlns="http://www.w3.org/2000/svg" width="53" height="53" fill="none" viewBox="0 0 53 53"><g clip-path="url(#a)"><mask id="b" width="53" height="53" x="0" y="0" maskUnits="userSpaceOnUse" style="mask-type:luminance"><rect width="53" height="53" fill="#fff" rx="6"/></mask><g clip-rule="evenodd" mask="url(#b)"><path fill="#fff" fill-rule="evenodd" d="M44.83 25.388c-.606-1.504-1.396-2.508-1.512-3.948s-1.124-5.773-1.5-7.224c-.377-1.451-2.253-4.39-2.253-4.91 0-4.554-.532-7.283-.532-8.02 0-.477.224-.222.224-2.983 0-1.985-1.564-4.036-3.567-5.031l-.014-.007a6 6 0 0 0-.267-.124l-.09-.037-.196-.08-.11-.04a7 7 0 0 0-.477-.149 5 5 0 0 0-.421-.095l-.185-.03-.116-.016a5 5 0 0 0-.203-.02q-.05-.005-.1-.009-.15-.01-.301-.01L29.558-9.49l.168-1.608s-.818-2.524-2.734-2.524-2.733 2.524-2.733 2.524l.168 1.608-3.652 2.145q-.15 0-.302.01-.05.003-.1.01a5 5 0 0 0-.202.019l-.116.017a5.3 5.3 0 0 0-1.084.273l-.11.04-.196.08-.09.037a6 6 0 0 0-.266.124l-.014.007c-2.003.995-3.567 3.046-3.567 5.031 0 2.76.224 2.506.224 2.984 0 .736-.532 3.465-.532 8.02 0 .52-1.877 3.458-2.253 4.91-.376 1.45-1.384 5.783-1.5 7.223s-.906 2.444-1.512 3.948c-.797 1.977 1.725 3.058 1.907 3.131.236.095.5.092.58-.092.327-.757-1.404-1.76-1.093-2.31.314-.555.852-1.18 1.291-1.002.44.177.23 1.57.67 1.746.44.177.628.06.762-.273.135-.333.072-2.932-.595-3.2.335-.458.549-.774.549-.774s1.735-2.756 2.502-3.839 2.136-5.162 2.274-6.69c.394-.574-.058-1.16.114-1.645.682-1.928.649-4.112.952-4.112.288 0 .994 2.507.994 4.864 0 1.783-.48 1.051-.48 4.172 0 .924-1.554 1.773-1.554 5.468 0 .955-1.021 2.739-1.021 6.603 0 7.39 3.307 12.052 3.307 15.174 0 3.344-.91 2.39-.91 6.275s2.654 8.973 2.654 11.68c0 5.444-3.412 2.533-3.412 4.196 0 .361.948.87.948.87l2.568 1.006 1.715.165c.762 0 1.479-.264 1.479-1.587 0-.425-.038-1.494-.038-2.004s-.569-1.977-.569-3.59c0-1.614.114-6.162.114-6.162s.796-2.226.796-3.818-.872-4.1-.872-4.8c0-.702 1.152-2.496 1.152-9.506 0-3.026.734-8.122.734-11.657h.639c0 3.535.734 8.631.734 11.657 0 7.01 1.152 8.804 1.152 9.505 0 .7-.872 3.208-.872 4.8 0 1.593.796 3.819.796 3.819s.114 4.548.114 6.161c0 1.614-.569 3.082-.569 3.591s-.038 1.58-.038 2.004c0 1.323.717 1.587 1.478 1.587l1.716-.165 2.568-1.006s.948-.509.948-.87c0-1.663-3.412 1.248-3.412-4.196 0-2.707 2.653-7.795 2.653-11.68 0-3.886-.91-2.93-.91-6.275 0-3.122 3.308-7.785 3.308-15.174 0-3.864-1.022-5.648-1.022-6.603 0-3.695-1.554-4.544-1.554-5.468 0-3.121-.479-2.389-.479-4.172 0-2.357.706-4.864.994-4.864.303 0 .27 2.184.952 4.112.172.484-.28 1.071.114 1.644.138 1.53 1.508 5.608 2.274 6.691.767 1.083 2.502 3.839 2.502 3.839s.213.316.549.774c-.667.268-.73 2.867-.595 3.2.134.332.323.45.763.273s.229-1.57.668-1.746c.44-.177.978.447 1.292 1.003.31.548-1.42 1.552-1.092 2.31.08.183.343.186.579.091.182-.073 2.703-1.154 1.907-3.13"/><path fill="#059669" fill-rule="evenodd" d="M19.583 15.364c0 .924-1.554 1.773-1.554 5.468 0 .955-1.022 2.739-1.022 6.603 0 2.402.35 4.514.822 6.38.818-3.151 1.857-6.445 4.207-6.747 2.35-.303 4.957-4.116 4.957-5.4 0 0-4.582-6.2-4.582-6.88 0-.681-1.588-.132-2.828.576"/><path fill="#fff" fill-rule="evenodd" d="M19.657 28.85c.143 1.152.278 2.915.278 5.462 0 2.37-.075 4.144-.196 5.466.342 1.066.575 2.004.575 2.83v.03C21.238 40.445 22 37.074 22 33.815c0-4.948.036-6.748.036-6.748-1.004.13-1.768.805-2.379 1.782"/><path fill="#daebe2" fill-rule="evenodd" d="M25.665 24.393c-.971 1.284-2.338 2.509-3.63 2.675l-.027.005c.011 1.12.028 3.101.028 4.574 0 2.169 1.88 6.01 1.88 7.314s-.171 1.531 0 1.928c.17.397.606 2.4.738 3.175.036.21.099.375.17.507.197-.877 1.114-2.976 1.114-9.237 0-1.758.248-4.216.456-6.66-.399-1.288-.832-3.034-.73-4.281"/><path fill="#fff" fill-rule="evenodd" d="M22.494 43.44c0-1.417-.625-2.721-.91-1.87-.284.85-.966 1.927-1.37 2.632-.224 1.49-.758 1.59-.805 4.282q.004.206-.004.4 0 .13.005.26c.117 1.745 1.925 5.282 2.59 5.016.7-.28 1.006-1.194.892-2.951s-.398-6.35-.398-7.769"/><path fill="#fff" fill-rule="evenodd" d="M24.787 44.84q.001-.112.037-.27a1.6 1.6 0 0 1-.17-.506c-.133-.775-.568-2.778-.739-3.175-.17-.397-.31-1.328-.665-.63a52 52 0 0 0-.925 1.892v.002c.1.369.169.821.169 1.288 0 1.417.284 6.01.398 7.768 0 0 .647 2.513 1.309 2.381.174-.035.41-.071.661-.105v-.027s.797-2.226.797-3.818-.872-4.1-.872-4.8M18.295-6.728c-1.587.668-3.567 2.954-3.567 5.031 0 2.76.223 2.506.223 2.983 0 .266-.069.793-.157 1.566C15.841 1.708 17.49.404 19.082-.333s1.002-2.177 2.916-2.931c-1.031-1.548-2.854-2.817-3.703-3.464M14.943 1.141"/><path fill="#fff" fill-rule="evenodd" d="M14.794 2.852a55 55 0 0 0-.374 6.454c0 .082-.047.223-.126.409.616.845 1.392 1.69 2.059 1.69.585 0 1.225-.446 1.746-.905l.016-.06c.683-1.928.65-4.112.953-4.112.054 0 .122.088.198.245.085-1.49-.045-4.436-.903-6.537a15.1 15.1 0 0 0-3.569 2.816M14.795 2.846q.063-.542.106-.92zM11.483 21.372c-.241-.54-.066-4.096.177-5.099.242-1.003 1.883-3.678 2.634-4.075s1.092 3.345.751 4.366c-.34 1.02-1.82 6.05-1.82 6.05s-1.501-.702-1.742-1.242M42.502 21.372c.241-.54.066-4.096-.177-5.099-.242-1.003-1.883-3.678-2.634-4.075s-1.093 3.345-.751 4.366c.34 1.02 1.819 6.05 1.819 6.05s1.502-.702 1.743-1.242"/><path fill="#fff" fill-rule="evenodd" d="M15.046 16.564c-.242.781-.721 2.363-1.167 3.841-.357 1.203-.653 2.209-.653 2.209s1.735-2.756 2.502-3.839 2.136-5.161 2.274-6.69c-.682.793-2.433 2.787-2.956 4.479M23.12-.617c-.289-1.283-.67-1.912-1.121-2.647-1.751.592-1.325 2.194-2.916 2.93q-.36.17-.72.37c.947.935 1.69 1.6 2.484 1.89.794.293 2.215.23 2.983-.136a22 22 0 0 1-.71-2.407"/><path fill="#fff" fill-rule="evenodd" d="M23.83 1.79c-.767.365-2.189.428-2.983.137-.795-.292-1.537-.956-2.483-1.891.858 2.1.988 5.047.902 6.537-.007-.015.604 1.882.74 3.425.84 1.108 2.03 3.05 2.03 3.05 2.539-3.128 3.528-4.309 4.324-5.596-.806-1.538-1.705-3.32-2.53-5.662"/><path fill="#daece1" fill-rule="evenodd" d="m25.665 24.393-.012.015-.08.104a10 10 0 0 1-.388.47l-.072.083a10 10 0 0 1-.51.53l-.043.042a9 9 0 0 1-.237.217l-.04.036q-.285.25-.581.458c.197 1.47.632 3.243 1.066 3.768.347.418.857-1.62 1.133-3.317-.18-.847-.294-1.705-.236-2.406"/><path fill="#059669" fill-rule="evenodd" d="M34.402 15.364c0 .924 1.554 1.773 1.554 5.468 0 .955 1.022 2.739 1.022 6.603 0 2.402-.35 4.514-.822 6.38-.818-3.151-1.857-6.445-4.207-6.747-2.35-.303-4.957-4.116-4.957-5.4 0 0 4.582-6.2 4.582-6.88 0-.681 1.588-.132 2.828.576"/><path fill="#fff" fill-rule="evenodd" d="M34.328 28.85c-.143 1.152-.278 2.915-.278 5.462 0 2.37.075 4.144.196 5.466-.342 1.066-.575 2.004-.575 2.83v.03c-.924-2.192-1.686-5.563-1.686-8.822 0-4.948-.036-6.748-.036-6.748 1.004.13 1.768.805 2.379 1.782"/><path fill="#d8ebe0" fill-rule="evenodd" d="M28.32 24.393c.971 1.284 2.338 2.509 3.63 2.675l.027.005c-.011 1.12-.028 3.101-.028 4.574 0 2.169-1.88 6.01-1.88 7.314s.171 1.531 0 1.928c-.17.397-.606 2.4-.739 3.175-.035.21-.098.375-.17.507-.196-.877-1.114-2.976-1.114-9.237 0-1.758-.247-4.216-.455-6.66.399-1.288.832-3.034.729-4.281"/><path fill="#fff" fill-rule="evenodd" d="M31.491 43.44c0-1.417.626-2.721.91-1.87.284.85.966 1.927 1.37 2.632.224 1.49.758 1.59.806 4.282a6 6 0 0 0 .003.4q0 .13-.005.26c-.117 1.745-1.925 5.282-2.59 5.016-.7-.28-1.006-1.194-.892-2.951s.398-6.35.398-7.769"/><path fill="#fff" fill-rule="evenodd" d="M29.198 44.84q-.001-.112-.037-.27c.071-.131.134-.297.17-.506.132-.775.568-2.778.739-3.175.17-.397.31-1.328.664-.63.355.702.754 1.502.926 1.892v.002c-.1.369-.169.821-.169 1.288 0 1.417-.284 6.01-.398 7.768 0 0-.647 2.513-1.31 2.381-.174-.035-.409-.071-.66-.105v-.027s-.797-2.226-.797-3.818.872-4.1.872-4.8M35.69-6.728c1.587.668 3.567 2.954 3.567 5.031 0 2.76-.224 2.506-.224 2.983 0 .266.07.793.158 1.566-1.048-1.144-2.696-2.448-4.288-3.185S33.9-2.51 31.986-3.264c1.032-1.548 2.854-2.817 3.704-3.464M39.042 1.141"/><path fill="#fff" fill-rule="evenodd" d="M39.19 2.852c.157 1.376.375 3.539.375 6.454 0 .082.047.223.126.409-.616.845-1.392 1.69-2.059 1.69-.586 0-1.225-.446-1.746-.905q-.007-.03-.017-.06c-.682-1.928-.649-4.112-.952-4.112-.054 0-.122.088-.198.245-.085-1.49.044-4.436.902-6.537a15.2 15.2 0 0 1 3.57 2.816M39.19 2.846q-.063-.542-.106-.92zM38.94 16.564c.241.781.72 2.363 1.166 3.841.357 1.203.653 2.209.653 2.209s-1.735-2.756-2.502-3.839-2.136-5.161-2.274-6.69c.682.793 2.433 2.787 2.957 4.479"/><path fill="#fff" fill-rule="evenodd" d="M30.866-.617c.288-1.283.67-1.912 1.12-2.647 1.751.592 1.325 2.194 2.917 2.93q.359.17.718.37c-.946.935-1.688 1.6-2.483 1.89-.794.293-2.215.23-2.983-.136.296-.844.545-1.67.71-2.407M31.95 13.049c-.8-1.021-4.439-5.397-4.325-5.595v-.002c-.261.447-.482.762-.632.89-.15-.128-.371-.443-.633-.89v.002c.114.198-3.525 4.574-4.324 5.595 0 0 .458.907.375 1.738 0 .68 4.582 6.88 4.582 6.88s4.582-6.2 4.582-6.88c-.084-.831.374-1.739.374-1.739"/><path fill="#fff" fill-rule="evenodd" d="M30.155 1.79c.768.365 2.19.428 2.983.137.795-.292 1.537-.956 2.483-1.891-.858 2.1-.987 5.047-.902 6.537.007-.015-.604 1.882-.74 3.425-.84 1.108-2.03 3.05-2.03 3.05-2.539-3.128-3.528-4.309-4.324-5.596.806-1.538 1.706-3.32 2.53-5.662"/><path fill="#d8ebe0" fill-rule="evenodd" d="m28.32 24.393.012.015.08.104a10 10 0 0 0 .387.47l.073.083q.246.276.51.53l.043.042a9 9 0 0 0 .277.253q.285.25.581.458c-.198 1.47-.632 3.243-1.067 3.768-.346.418-.856-1.62-1.132-3.317.18-.847.294-1.705.236-2.406"/><path fill="#fff" fill-rule="evenodd" d="M33.21-7.345 29.558-9.49l.168-1.607s-.818-2.524-2.733-2.524-2.734 2.524-2.734 2.524l.168 1.607-3.652 2.146c-.849 0-1.698.228-2.48.617 1.81 1.405 4.085 2.823 4.824 6.111.74 3.289 3.141 8.335 3.874 8.96.732-.625 3.134-5.671 3.873-8.96.739-3.288 3.013-4.706 4.824-6.111-.782-.389-1.631-.617-2.48-.617"/><path stroke="#353e82" stroke-linejoin="round" stroke-width=".5" d="M19.583 15.364c0 .924-1.554 1.773-1.554 5.468 0 .955-1.022 2.739-1.022 6.603 0 2.402.35 4.514.822 6.38.818-3.151 1.857-6.445 4.207-6.747 2.35-.303 4.957-4.116 4.957-5.4 0 0-4.582-6.2-4.582-6.88 0-.681-1.588-.132-2.828.576Z"/><path stroke="#353e82" stroke-linejoin="round" stroke-width=".5" d="M19.657 28.85c.143 1.152.278 2.915.278 5.462 0 2.37-.075 4.144-.196 5.466.342 1.066.575 2.004.575 2.83v.03C21.238 40.445 22 37.074 22 33.815c0-4.948.036-6.748.036-6.748-1.004.13-1.768.805-2.379 1.782Z"/><path stroke="#353e82" stroke-linejoin="round" stroke-width=".5" d="M25.665 24.393c-.971 1.284-2.338 2.509-3.63 2.675l-.027.005c.011 1.12.028 3.101.028 4.574 0 2.169 1.88 6.01 1.88 7.314s-.171 1.531 0 1.928c.17.397.606 2.4.738 3.175.036.21.099.375.17.507.197-.877 1.114-2.976 1.114-9.237 0-1.758.248-4.216.456-6.66-.399-1.288-.832-3.034-.73-4.281ZM22.494 43.44c0-1.417-.625-2.721-.91-1.87-.284.85-.966 1.927-1.37 2.632-.224 1.49-.758 1.59-.805 4.282q.004.206-.004.4 0 .13.005.26c.117 1.745 1.925 5.282 2.59 5.016.7-.28 1.006-1.194.892-2.951s-.398-6.35-.398-7.769Z"/><path stroke="#353e82" stroke-linejoin="round" stroke-width=".5" d="M24.787 44.84q.001-.112.037-.27a1.6 1.6 0 0 1-.17-.506c-.133-.775-.568-2.778-.739-3.175-.17-.397-.31-1.328-.665-.63a52 52 0 0 0-.925 1.892v.002c.1.369.169.821.169 1.288 0 1.417.284 6.01.398 7.768 0 0 .647 2.513 1.309 2.381.174-.035.41-.071.661-.105v-.027s.797-2.226.797-3.818-.872-4.1-.872-4.8ZM18.295-6.728c-1.587.668-3.567 2.954-3.567 5.031 0 2.76.223 2.506.223 2.983 0 .266-.069.793-.157 1.566C15.841 1.708 17.49.404 19.082-.333s1.002-2.177 2.916-2.931c-1.031-1.548-2.854-2.817-3.703-3.464ZM14.932 1.076ZM14.952 1.287ZM14.933 1.079ZM14.95 1.21ZM14.943 1.141Z"/><path stroke="#353e82" stroke-linejoin="round" stroke-width=".5" d="M14.794 2.852a55 55 0 0 0-.374 6.454c0 .082-.047.223-.126.409.616.845 1.392 1.69 2.059 1.69.585 0 1.225-.446 1.746-.905l.016-.06c.683-1.928.65-4.112.953-4.112.054 0 .122.088.198.245.085-1.49-.045-4.436-.903-6.537a15.1 15.1 0 0 0-3.569 2.816ZM14.795 2.846q.063-.542.106-.92zM14.931 1.627ZM14.927 1.674ZM11.483 21.372c-.241-.54-.066-4.096.177-5.099.242-1.003 1.883-3.678 2.634-4.075s1.092 3.345.751 4.366c-.34 1.02-1.82 6.05-1.82 6.05s-1.501-.702-1.742-1.242ZM42.502 21.372c.241-.54.066-4.096-.177-5.099-.242-1.003-1.883-3.678-2.634-4.075s-1.093 3.345-.751 4.366c.34 1.02 1.819 6.05 1.819 6.05s1.502-.702 1.743-1.242Z"/><path stroke="#353e82" stroke-linejoin="round" stroke-width=".5" d="M15.046 16.564c-.242.781-.721 2.363-1.167 3.841-.357 1.203-.653 2.209-.653 2.209s1.735-2.756 2.502-3.839 2.136-5.161 2.274-6.69c-.682.793-2.433 2.787-2.956 4.479ZM23.12-.617c-.289-1.283-.67-1.912-1.121-2.647-1.751.592-1.325 2.194-2.916 2.93q-.36.17-.72.37c.947.935 1.69 1.6 2.484 1.89.794.293 2.215.23 2.983-.136a22 22 0 0 1-.71-2.407Z"/><path stroke="#353e82" stroke-linejoin="round" stroke-width=".5" d="M23.83 1.79c-.767.365-2.189.428-2.983.137-.795-.292-1.537-.956-2.483-1.891.858 2.1.988 5.047.902 6.537-.007-.015.604 1.882.74 3.425.84 1.108 2.03 3.05 2.03 3.05 2.539-3.128 3.528-4.309 4.324-5.596-.806-1.538-1.705-3.32-2.53-5.662ZM25.665 24.393l-.012.015-.08.104a10 10 0 0 1-.388.47l-.072.083a10 10 0 0 1-.51.53l-.043.042a9 9 0 0 1-.237.217l-.04.036q-.285.25-.581.458c.197 1.47.632 3.243 1.066 3.768.347.418.857-1.62 1.133-3.317-.18-.847-.294-1.705-.236-2.406ZM34.402 15.364c0 .924 1.554 1.773 1.554 5.468 0 .955 1.022 2.739 1.022 6.603 0 2.402-.35 4.514-.822 6.38-.818-3.151-1.857-6.445-4.207-6.747-2.35-.303-4.957-4.116-4.957-5.4 0 0 4.582-6.2 4.582-6.88 0-.681 1.588-.132 2.828.576Z"/><path stroke="#353e82" stroke-linejoin="round" stroke-width=".5" d="M34.328 28.85c-.143 1.152-.278 2.915-.278 5.462 0 2.37.075 4.144.196 5.466-.342 1.066-.575 2.004-.575 2.83v.03c-.924-2.192-1.686-5.563-1.686-8.822 0-4.948-.036-6.748-.036-6.748 1.004.13 1.768.805 2.379 1.782Z"/><path stroke="#353e82" stroke-linejoin="round" stroke-width=".5" d="M28.32 24.393c.971 1.284 2.338 2.509 3.63 2.675l.027.005c-.011 1.12-.028 3.101-.028 4.574 0 2.169-1.88 6.01-1.88 7.314s.171 1.531 0 1.928c-.17.397-.606 2.4-.739 3.175-.035.21-.098.375-.17.507-.196-.877-1.114-2.976-1.114-9.237 0-1.758-.247-4.216-.455-6.66.399-1.288.832-3.034.729-4.281ZM31.491 43.44c0-1.417.626-2.721.91-1.87.284.85.966 1.927 1.37 2.632.224 1.49.758 1.59.806 4.282a6 6 0 0 0 .003.4q0 .13-.005.26c-.117 1.745-1.925 5.282-2.59 5.016-.7-.28-1.006-1.194-.892-2.951s.398-6.35.398-7.769Z"/><path stroke="#353e82" stroke-linejoin="round" stroke-width=".5" d="M29.198 44.84q-.001-.112-.037-.27c.071-.131.134-.297.17-.506.132-.775.568-2.778.739-3.175.17-.397.31-1.328.664-.63.355.702.754 1.502.926 1.892v.002c-.1.369-.169.821-.169 1.288 0 1.417-.284 6.01-.398 7.768 0 0-.647 2.513-1.31 2.381-.174-.035-.409-.071-.66-.105v-.027s-.797-2.226-.797-3.818.872-4.1.872-4.8ZM35.69-6.728c1.587.668 3.567 2.954 3.567 5.031 0 2.76-.224 2.506-.224 2.983 0 .266.07.793.158 1.566-1.048-1.144-2.696-2.448-4.288-3.185S33.9-2.51 31.986-3.264c1.032-1.548 2.854-2.817 3.704-3.464ZM39.053 1.076ZM39.033 1.287ZM39.052 1.079ZM39.036 1.21ZM39.042 1.141Z"/><path stroke="#353e82" stroke-linejoin="round" stroke-width=".5" d="M39.19 2.852c.157 1.376.375 3.539.375 6.454 0 .082.047.223.126.409-.616.845-1.392 1.69-2.059 1.69-.586 0-1.225-.446-1.746-.905q-.007-.03-.017-.06c-.682-1.928-.649-4.112-.952-4.112-.054 0-.122.088-.198.245-.085-1.49.044-4.436.902-6.537a15.2 15.2 0 0 1 3.57 2.816ZM39.19 2.846q-.063-.542-.106-.92zM39.054 1.627ZM39.058 1.674ZM38.94 16.564c.241.781.72 2.363 1.166 3.841.357 1.203.653 2.209.653 2.209s-1.735-2.756-2.502-3.839-2.136-5.161-2.274-6.69c.682.793 2.433 2.787 2.957 4.479Z"/><path stroke="#353e82" stroke-linejoin="round" stroke-width=".5" d="M30.866-.617c.288-1.283.67-1.912 1.12-2.647 1.751.592 1.325 2.194 2.917 2.93q.359.17.718.37c-.946.935-1.688 1.6-2.483 1.89-.794.293-2.215.23-2.983-.136.296-.844.545-1.67.71-2.407ZM31.95 13.049c-.8-1.021-4.439-5.397-4.325-5.595v-.002c-.261.447-.482.762-.632.89-.15-.128-.371-.443-.633-.89v.002c.114.198-3.525 4.574-4.324 5.595 0 0 .458.907.375 1.738 0 .68 4.582 6.88 4.582 6.88s4.582-6.2 4.582-6.88c-.084-.831.374-1.739.374-1.739Z"/><path stroke="#353e82" stroke-linejoin="round" stroke-width=".5" d="M30.155 1.79c.768.365 2.19.428 2.983.137.795-.292 1.537-.956 2.483-1.891-.858 2.1-.987 5.047-.902 6.537.007-.015-.604 1.882-.74 3.425-.84 1.108-2.03 3.05-2.03 3.05-2.539-3.128-3.528-4.309-4.324-5.596.806-1.538 1.706-3.32 2.53-5.662ZM28.32 24.393l.012.015.08.104a10 10 0 0 0 .387.47l.073.083q.246.276.51.53l.043.042a9 9 0 0 0 .277.253q.285.25.581.458c-.198 1.47-.632 3.243-1.067 3.768-.346.418-.856-1.62-1.132-3.317.18-.847.294-1.705.236-2.406Z"/><path stroke="#353e82" stroke-linejoin="round" stroke-width=".5" d="M33.21-7.345 29.558-9.49l.168-1.607s-.818-2.524-2.733-2.524-2.734 2.524-2.734 2.524l.168 1.607-3.652 2.146c-.849 0-1.698.228-2.48.617 1.81 1.405 4.085 2.823 4.824 6.111.74 3.289 3.141 8.335 3.874 8.96.732-.625 3.134-5.671 3.873-8.96.739-3.288 3.013-4.706 4.824-6.111-.782-.389-1.631-.617-2.48-.617Z"/><path stroke="#353e82" stroke-linejoin="round" stroke-width=".5" d="M44.83 25.388c-.606-1.504-1.396-2.508-1.512-3.948s-1.124-5.773-1.5-7.224c-.377-1.451-2.253-4.39-2.253-4.91 0-4.554-.532-7.283-.532-8.02 0-.477.224-.222.224-2.983 0-1.985-1.564-4.036-3.567-5.031l-.014-.007a6 6 0 0 0-.267-.124l-.09-.037-.196-.08-.11-.04a7 7 0 0 0-.477-.149 5 5 0 0 0-.421-.095l-.185-.03-.116-.016a5 5 0 0 0-.203-.02q-.05-.005-.1-.009-.15-.01-.301-.01L29.558-9.49l.168-1.608s-.818-2.524-2.734-2.524-2.733 2.524-2.733 2.524l.168 1.608-3.652 2.145q-.15 0-.302.01-.05.003-.1.01a5 5 0 0 0-.202.019l-.116.017a5.3 5.3 0 0 0-1.084.273l-.11.04-.196.08-.09.037a6 6 0 0 0-.266.124l-.014.007c-2.003.995-3.567 3.046-3.567 5.031 0 2.76.224 2.506.224 2.984 0 .736-.532 3.465-.532 8.02 0 .52-1.877 3.458-2.253 4.91-.376 1.45-1.384 5.783-1.5 7.223s-.906 2.444-1.512 3.948c-.797 1.977 1.725 3.058 1.907 3.131.236.095.5.092.58-.092.327-.757-1.404-1.76-1.093-2.31.314-.555.852-1.18 1.291-1.002.44.177.23 1.57.67 1.746.44.177.628.06.762-.273.135-.333.072-2.932-.595-3.2.335-.458.549-.774.549-.774s1.735-2.756 2.502-3.839 2.136-5.162 2.274-6.69c.394-.574-.058-1.16.114-1.645.682-1.928.649-4.112.952-4.112.288 0 .994 2.507.994 4.864 0 1.783-.48 1.051-.48 4.172 0 .924-1.554 1.773-1.554 5.468 0 .955-1.021 2.739-1.021 6.603 0 7.39 3.307 12.052 3.307 15.174 0 3.344-.91 2.39-.91 6.275s2.654 8.973 2.654 11.68c0 5.444-3.412 2.533-3.412 4.196 0 .361.948.87.948.87l2.568 1.006 1.715.165c.762 0 1.479-.264 1.479-1.587 0-.425-.038-1.494-.038-2.004s-.569-1.977-.569-3.59c0-1.614.114-6.162.114-6.162s.796-2.226.796-3.818-.872-4.1-.872-4.8c0-.702 1.152-2.496 1.152-9.506 0-3.026.734-8.122.734-11.657h.639c0 3.535.734 8.631.734 11.657 0 7.01 1.152 8.804 1.152 9.505 0 .7-.872 3.208-.872 4.8 0 1.593.796 3.819.796 3.819s.114 4.548.114 6.161c0 1.614-.569 3.082-.569 3.591s-.038 1.58-.038 2.004c0 1.323.717 1.587 1.478 1.587l1.716-.165 2.568-1.006s.948-.509.948-.87c0-1.663-3.412 1.248-3.412-4.196 0-2.707 2.653-7.795 2.653-11.68 0-3.886-.91-2.93-.91-6.275 0-3.122 3.308-7.785 3.308-15.174 0-3.864-1.022-5.648-1.022-6.603 0-3.695-1.554-4.544-1.554-5.468 0-3.121-.479-2.389-.479-4.172 0-2.357.706-4.864.994-4.864.303 0 .27 2.184.952 4.112.172.484-.28 1.071.114 1.644.138 1.53 1.508 5.608 2.274 6.691.767 1.083 2.502 3.839 2.502 3.839s.213.316.549.774c-.667.268-.73 2.867-.595 3.2.134.332.323.45.763.273s.229-1.57.668-1.746c.44-.177.978.447 1.292 1.003.31.548-1.42 1.552-1.092 2.31.08.183.343.186.579.091.182-.073 2.703-1.154 1.907-3.13Z"/></g><rect width="53" height="53" fill="url(#c)" rx="6"/><mask id="d" width="53" height="53" x="0" y="0" maskUnits="userSpaceOnUse" style="mask-type:luminance"><rect width="53" height="53" fill="#fff" rx="6"/></mask><g mask="url(#d)"><rect width="53" height="53" fill="url(#e)" rx="6"/><mask id="f" width="53" height="53" x="0" y="0" maskUnits="userSpaceOnUse" style="mask-type:luminance"><rect width="53" height="53" fill="#fff" rx="6"/></mask></g></g><defs><linearGradient id="c" x1="16.045" x2="16.045" y1="32.09" y2="53" gradientUnits="userSpaceOnUse"><stop stop-color="#f6f6f8" stop-opacity=".01"/><stop offset="1" stop-color="#f6f6f8"/></linearGradient><linearGradient id="e" x1="16.045" x2="16.045" y1="32.09" y2="53" gradientUnits="userSpaceOnUse"><stop stop-color="#f6f6f8" stop-opacity=".01"/><stop offset="1" stop-color="#f6f6f8"/></linearGradient><clipPath id="a"><path fill="#fff" d="M0 0h53v53H0z"/></clipPath></defs></svg>