<svg width="53" height="53" viewBox="0 0 53 53" fill="none" xmlns="http://www.w3.org/2000/svg">
<g clip-path="url(#clip0_28_15872)">
<mask id="mask0_28_15872" style="mask-type:luminance" maskUnits="userSpaceOnUse" x="0" y="0" width="53" height="53">
<rect width="53" height="53" rx="6" fill="white"/>
</mask>
<g mask="url(#mask0_28_15872)">
<path fill-rule="evenodd" clip-rule="evenodd" d="M44.8501 19.8141C44.5944 19.2055 44.1454 17.2961 44.017 15.7103C43.6743 11.4835 43.3766 5.17682 43.0671 3.98087C42.6416 2.33612 41.7348 0.636403 41.7348 0.0465031C41.7348 -5.1147 40.5794 -6.40925 40.5794 -7.24423C40.5794 -7.78568 40.832 -7.49696 40.832 -10.625C40.832 -13.753 37.4137 -17.0255 33.9951 -17.0255L30.6729 -19.0949V-22.0784H30.6423C29.8075 -21.148 28.3162 -19.7324 26.9657 -19.7324C25.6153 -19.7324 24.124 -21.148 23.2892 -22.0784H23.2586V-19.0949L19.9364 -17.0255C16.5178 -17.0255 13.0995 -13.753 13.0995 -10.625C13.0995 -7.49696 13.3524 -7.78568 13.3524 -7.24423C13.3524 -6.40925 12.1967 -5.1147 12.1967 0.0465031C12.1967 0.636403 11.2896 2.33612 10.8641 3.98087C10.5548 5.17682 10.2575 11.4835 9.91478 15.7103C9.78608 17.2961 9.33736 19.2055 9.08139 19.8141C8.48385 21.2356 11.3661 23.413 11.5589 23.4904C11.8078 23.5909 11.8925 23.0914 11.977 22.8965C12.3237 22.0944 11.0333 21.141 11.1164 20.5842C11.2164 19.915 11.3346 18.7397 11.7995 18.9273C12.2647 19.1148 12.422 20.1805 12.8869 20.368C13.3518 20.5556 13.5513 20.4309 13.6936 20.0785C13.777 19.8719 13.2486 18.5788 12.7744 17.3647C12.4393 16.5068 12.4966 15.8916 12.4966 15.8916C12.4966 15.8916 16.1949 7.30154 16.3511 5.56895C16.8537 4.77109 16.6201 4.37159 16.6845 3.79302C16.9421 1.47054 16.9453 -3.02143 17.2883 -3.02143C17.6134 -3.02143 17.6494 -1.61355 17.6494 -0.747396C17.6494 1.23792 19.1299 1.30989 19.1299 3.98087C19.1299 6.00189 18.5882 5.172 18.5882 8.70914C18.5882 9.75577 16.8307 10.7183 16.8307 14.9051C16.8307 15.988 15.6753 18.009 15.6753 22.3885C15.6753 30.7621 17.9022 34.8407 17.9022 38.3781C17.9022 42.1677 17.216 41.843 17.216 46.2463C17.216 50.6498 19.9605 56.2802 19.9605 59.3482C19.9605 66.0977 17.7217 64.3652 17.7217 65.9173C17.7217 66.3264 18.1548 66.591 18.1548 66.591L21.9827 67.0002H23.9565L24.5586 66.2782C24.5586 66.2782 24.0288 65.3639 24.0288 64.8825C24.0288 64.4014 24.2935 63.463 24.2935 62.8853C24.2935 62.3079 23.5474 60.2866 23.5474 58.4579C23.5474 56.6293 23.4992 51.3715 23.4992 51.3715C23.4992 51.3715 23.6798 49.6392 23.6798 47.8344C23.6798 46.0298 22.5604 45.1274 22.5604 44.3335C22.5604 43.5393 25.7741 37.7644 25.7741 31.3398C25.7741 27.9109 26.6046 22.1357 26.6046 18.1294H26.9657H27.3269C27.3269 22.1357 28.1574 27.9109 28.1574 31.3398C28.1574 37.7644 31.3713 43.5393 31.3713 44.3335C31.3713 45.1274 30.2517 46.0298 30.2517 47.8344C30.2517 49.6392 30.4322 51.3715 30.4322 51.3715C30.4322 51.3715 30.3843 56.6293 30.3843 58.4579C30.3843 60.2866 29.638 62.3079 29.638 62.8853C29.638 63.463 29.9027 64.4014 29.9027 64.8825C29.9027 65.3639 29.3732 66.2782 29.3732 66.2782L29.975 67.0002H31.949L35.7767 66.591C35.7767 66.591 36.2101 66.3264 36.2101 65.9173C36.2101 64.3652 33.9713 66.0977 33.9713 59.3482C33.9713 56.2802 36.7155 50.6498 36.7155 46.2463C36.7155 41.843 36.0292 42.1677 36.0292 38.3781C36.0292 34.8407 38.2561 30.7621 38.2561 22.3885C38.2561 18.009 37.1007 15.988 37.1007 14.9051C37.1007 10.7183 35.3432 9.75577 35.3432 8.70914C35.3432 5.172 34.8015 6.00189 34.8015 3.98087C34.8015 1.30989 36.2821 1.23792 36.2821 -0.747396C36.2821 -1.61355 36.3184 -3.02143 36.6432 -3.02143C36.9862 -3.02143 36.9893 1.47054 37.247 3.79302C37.3113 4.37159 37.0778 4.77109 37.5804 5.56895C37.7368 7.30154 41.4352 15.8916 41.4352 15.8916C41.4352 15.8916 41.4922 16.5068 41.1574 17.3647C40.6832 18.5788 40.1545 19.8719 40.2378 20.0785C40.3801 20.4309 40.5797 20.5556 41.0446 20.368C41.5097 20.1805 41.6671 19.1148 42.1319 18.9273C42.5968 18.7397 42.7153 19.915 42.8151 20.5842C42.8984 21.141 41.6078 22.0944 41.9545 22.8965C42.039 23.0914 42.124 23.5909 42.3729 23.4904C42.5651 23.413 45.4476 21.2356 44.8501 19.8141Z" fill="white" stroke="#353E82" stroke-width="0.564973" stroke-linejoin="round"/>
<path fill-rule="evenodd" clip-rule="evenodd" d="M22.8479 20.2666C22.8479 20.2762 22.8479 20.2856 22.8479 20.2952C22.8524 20.5953 22.8541 20.8919 22.8538 21.1821C22.8538 21.4056 22.8518 21.6201 22.8496 21.834C22.849 21.898 22.8493 21.966 22.8482 22.0289C22.838 22.841 22.815 23.5612 22.7929 24.1131C22.7923 24.1202 22.792 24.129 22.792 24.1364C22.7844 24.3186 22.7773 24.4795 22.7708 24.62C22.7705 24.6231 22.7705 24.6271 22.7702 24.6302C22.7643 24.7557 22.7589 24.8555 22.7543 24.9422C22.7535 24.958 22.7529 24.979 22.7518 24.9937C22.7467 25.0884 22.7427 25.1567 22.7407 25.1887C22.7393 25.2133 22.7385 25.2298 22.7385 25.2298C22.2948 27.1077 21.3807 30.2816 21.2361 31.8209C21.2182 32.0128 21.1919 32.2233 21.1601 32.448C21.1601 32.4485 21.1598 32.4491 21.1598 32.4497C21.1182 32.7438 21.066 33.067 21.011 33.4002C20.9645 33.6824 20.9161 33.9751 20.8682 34.2723C20.8667 34.2808 20.8653 34.2896 20.8639 34.2981C20.8149 34.6024 20.767 34.9115 20.7239 35.2187C20.7227 35.2243 20.7222 35.2303 20.7213 35.236C20.6774 35.5473 20.6388 35.857 20.6088 36.1585C20.6077 36.171 20.606 36.1831 20.6045 36.1956C20.602 36.2208 20.5983 36.2472 20.596 36.2724C20.5785 36.4642 20.5685 36.6475 20.5598 36.8297C20.5583 36.8578 20.5564 36.8869 20.5549 36.9147C20.5527 36.9507 20.5501 36.9867 20.549 37.0212C20.5439 37.187 20.549 37.3403 20.5544 37.4938V37.5012C20.5575 37.5961 20.5547 37.699 20.5623 37.7885C20.7066 39.4726 21.9102 39.3766 21.9102 39.3766C22.7107 39.3766 24.2782 38.8793 24.7848 37.9645C24.8404 37.7653 24.8945 37.5621 24.9475 37.357C25.42 35.5272 25.7741 33.4699 25.7741 31.3398C25.7741 30.9664 25.7846 30.5638 25.8019 30.1402C25.8019 27.1445 24.3202 23.4966 22.8479 20.2666Z" fill="#059669" stroke="#353E82" stroke-width="0.564973" stroke-linejoin="round"/>
<path fill-rule="evenodd" clip-rule="evenodd" d="M31.0834 20.2666C31.0834 20.2762 31.0831 20.2856 31.0831 20.2952C31.0788 20.5953 31.0771 20.8919 31.0771 21.1821C31.0771 21.4056 31.0794 21.6201 31.0814 21.834C31.0822 21.898 31.082 21.966 31.0831 22.0289C31.0933 22.841 31.1163 23.5612 31.1384 24.1131C31.1389 24.1202 31.1389 24.129 31.1392 24.1364C31.1469 24.3186 31.154 24.4795 31.1605 24.62C31.1608 24.6231 31.1608 24.6271 31.161 24.6302C31.167 24.7557 31.1721 24.8555 31.1769 24.9422C31.1775 24.958 31.1783 24.979 31.1795 24.9937C31.1846 25.0884 31.1885 25.1567 31.1902 25.1887C31.1919 25.2133 31.1928 25.2298 31.1928 25.2298C31.6364 27.1077 32.5506 30.2816 32.6952 31.8209C32.713 32.0128 32.7394 32.2233 32.7711 32.448C32.7711 32.4485 32.7714 32.4491 32.7714 32.4497C32.8131 32.7438 32.8652 33.067 32.9202 33.4002C32.9664 33.6824 33.0152 33.9751 33.0631 34.2723C33.0645 34.2808 33.0659 34.2896 33.0673 34.2981C33.1164 34.6024 33.1643 34.9115 33.2074 35.2187C33.2082 35.2243 33.2091 35.2303 33.2099 35.236C33.2536 35.5473 33.2924 35.857 33.3225 36.1585C33.3236 36.171 33.325 36.1831 33.3267 36.1956C33.3293 36.2208 33.333 36.2472 33.3352 36.2724C33.3528 36.4642 33.3627 36.6475 33.3715 36.8297C33.3729 36.8578 33.3749 36.8869 33.3763 36.9147C33.3786 36.9507 33.3811 36.9867 33.3823 37.0212C33.3874 37.187 33.3823 37.3403 33.3769 37.4938V37.5012C33.3738 37.5961 33.3766 37.699 33.369 37.7885C33.2247 39.4726 32.0208 39.3766 32.0208 39.3766C31.2206 39.3766 29.6527 38.8793 29.1465 37.9645C29.0909 37.7653 29.0368 37.5621 28.9835 37.357C28.5112 35.5272 28.1572 33.4699 28.1572 31.3398C28.1572 30.9664 28.1467 30.5638 28.1294 30.1402C28.1294 27.1445 29.6111 23.4966 31.0834 20.2666Z" fill="#059669" stroke="#353E82" stroke-width="0.564973" stroke-linejoin="round"/>
</g>
</g>
<defs>
<clipPath id="clip0_28_15872">
<rect width="53" height="53" fill="white"/>
</clipPath>
</defs>
</svg>
